<svg xmlns="http://www.w3.org/2000/svg" viewBox="0 0 336 336.04"><defs><style>.cls-1{fill:#8d73ab;}.cls-2{fill:#8067a5;}.cls-3{fill:#fcc57f;}.cls-4{fill:#ffd8aa;}.cls-5{fill:#ffe6c8;}.cls-6{fill:#f4dbad;}.cls-7{fill:#e09b4a;}.cls-8{fill:#fff;}.cls-9{fill:#f1f1f2;}.cls-10{fill:#f4e9cd;}.cls-11{fill:#eed8a3;}.cls-12{fill:#f3b98b;}.cls-13{fill:#2b388f;}.cls-14{fill:#262261;}</style></defs><g id="Layer_2" data-name="Layer 2"><g id="Layer_1-2" data-name="Layer 1"><path class="cls-1" d="M168,0a168,168,0,0,0,0,336h0V0Z"/><path class="cls-2" d="M336,168A168,168,0,0,0,168,0V336A168,168,0,0,0,336,168Z"/><polygon class="cls-3" points="193.23 222.74 193.23 213.47 143.08 213.47 143.08 247.61 193.23 222.74"/><path class="cls-4" d="M143.08,177.21v72.54c0,13.65,12.56,19.78,25.11,19.41v-92Z"/><path class="cls-3" d="M193.23,249.75V177.21h-25v92C180.72,268.8,193.23,262,193.23,249.75Z"/><path class="cls-5" d="M168.17,107.32c-106.22,0-63.17,140.29,0,140.29h0V107.32Z"/><path class="cls-6" d="M168.19,107.32V247.61C231.31,247.56,274.34,107.34,168.19,107.32Z"/><path class="cls-7" d="M169.9,101.13c30.67,0,55,28.89,59.58,39.7s5.72,12.78,4.87,24.44-12.12,19.9-13.91,7.32c-2.26-15.61-12.26-34.6-27.27-45-3.6-2.48-14.31,2.76-25.12,8.5V101.22C168.67,101.17,169.3,101.13,169.9,101.13Z"/><path class="cls-7" d="M236.94,161.48c-7.72,29.79-17.27,12.91-16.89.11s-10.69-40.8-50.15-41.84c-.65,0-1.22.07-1.85.08V77.17C222.23,78,244.56,131.9,236.94,161.48Z"/><path class="cls-8" d="M167.11,260.62c-17.59-.24-34.77,4.06-63.7,22.83-7.64,4.95-13.93,14.14-19.52,25.35,22.73,14.16,49,23.62,77.71,23.62,2.24,0,4.39-.16,6.59-.25V260.64Z"/><path class="cls-9" d="M229.52,284.44C201,266.58,185,261.05,168.19,260.64v71.53a147.71,147.71,0,0,0,80.07-27.68C241,295.69,236,288.49,229.52,284.44Z"/><polygon class="cls-10" points="142.98 247.61 129.14 270.64 135.97 292.76 168.19 260.64 142.98 247.61"/><polygon class="cls-11" points="193.23 248.08 206.71 272.66 199.04 293.22 168.19 260.64 193.23 248.08"/><path class="cls-12" d="M151.15,133.49c-16.92,7.11-32.39,13.95-39,37.29-2.62,9.18-7.47,4-9.57-3.51s-1-16.46,3.48-24.79c-.77,1.44,36.71-39.31,62.06-41.26v34.89C157.74,141.6,157,131,151.15,133.49Z"/><path class="cls-12" d="M115.91,161.17c-1.12,18.05-7.41,19.72-15.1,3.28s11.12-87.17,66.08-87.32v0H167l0,0c.37,0,.71,0,1.08,0v42.67C133.74,120.64,117,143.46,115.91,161.17Z"/><path class="cls-5" d="M98,155.59c-3.88.85-5.4,8.81-3.42,17.76s6.77,15.51,10.62,14.67,5.39-8.83,3.39-17.78-6.74-15.5-10.59-14.65"/><path class="cls-5" d="M236.26,155.59c3.88.85,5.38,8.81,3.41,17.76s-6.76,15.51-10.61,14.67-5.38-8.83-3.39-17.78,6.73-15.5,10.59-14.65"/><path class="cls-13" d="M119.71,273.71c-5,2.71-10.42,5.92-16.3,9.74-7.64,4.95-16.37,17-22,28.2,23.45,14.79,47.09,22.51,74.88,24.06,2.22.13,9.68.4,11.88.32V312.1l-37.44-43.74C127.25,269.88,123.62,271.59,119.71,273.71Z"/><path class="cls-14" d="M230.91,283.45A199.58,199.58,0,0,0,205,269.37L168.39,312.1l-.2,0v24c29.86,0,58.18-5.65,86.38-23.12C249.56,303.86,238.31,288.12,230.91,283.45Z"/></g></g></svg>