<svg xmlns="http://www.w3.org/2000/svg" viewBox="0 0 336 336"><defs><style>.cls-1{fill:#d1495d;}.cls-2{fill:#c7374a;}.cls-3{fill:#fcc57f;}.cls-4{fill:#ffd8aa;}.cls-5{fill:#ffe6c8;}.cls-6{fill:#f4dbad;}.cls-7{fill:#fbb762;}.cls-8{fill:#e5a85a;}.cls-9{fill:#ededed;}.cls-10{fill:#dbdbdb;}.cls-11{fill:#5bc0a0;}.cls-12{fill:#66ad97;}.cls-13{fill:#fff;}</style></defs><g id="Layer_2" data-name="Layer 2"><g id="Layer_1-2" data-name="Layer 1"><path class="cls-1" d="M168,0a168,168,0,1,0,0,336c.3,0,.6,0,.91,0V0Z"/><path class="cls-2" d="M336,168A168,168,0,0,0,168.91,0V336A168,168,0,0,0,336,168Z"/><polygon class="cls-3" points="197.81 211.11 197.81 200.56 140.71 200.56 140.71 239.42 197.81 211.11"/><path class="cls-4" d="M140.71,159.28v82.58c0,15.54,14.31,22.51,28.6,22.09V159.28Z"/><path class="cls-3" d="M197.81,241.86V159.28h-28.5V264C183.57,263.54,197.81,255.77,197.81,241.86Z"/><path class="cls-5" d="M169.28,79.71c-120.91,0-71.91,159.71,0,159.71h0V79.71Z"/><path class="cls-6" d="M169.31,79.71V239.42C241.18,239.37,290.14,79.74,169.31,79.71Z"/><path class="cls-7" d="M167.21,72.66c-34.93,0-62.61,32.89-67.81,45.19s-6.52,14.57-5.57,27.82,13.8,22.67,15.85,8.34c2.55-17.77,14-39.38,31-51.2,4.1-2.82,16.29,3.14,28.6,9.68V72.77C168.6,72.72,167.9,72.66,167.21,72.66Z"/><path class="cls-8" d="M188.41,98.56c19.25,8.09,37.06,26.83,44.6,53.4,3,10.46,8.52,4.54,10.89-4s1.2-18.75-4-28.21c.88,1.62-41.78-44.77-70.61-47v39.72c11.78,6.25,23.66,13,28.61,13.1C204.63,125.72,181.7,95.73,188.41,98.56Z"/><path class="cls-7" d="M90.89,141.37c8.78,33.92,19.66,14.69,19.22.13S122.28,95,167.21,93.87c.72,0,1.39.07,2.1.09V45.39C107.64,46.31,82.21,107.7,90.89,141.37Z"/><path class="cls-8" d="M228.7,141c1.29,20.54,8.45,22.45,17.22,3.73s-12.66-99.24-75.23-99.41v0h-.18v0c-.41,0-.8,0-1.2,0V94C208.42,94.88,227.43,120.87,228.7,141Z"/><path class="cls-5" d="M89.44,134.67c-4.41,1-6.13,10-3.88,20.22s7.69,17.65,12.07,16.68,6.15-10,3.87-20.23-7.67-17.64-12.06-16.67"/><path class="cls-5" d="M246.79,134.67c4.42,1,6.13,10,3.89,20.22S243,172.54,238.6,171.57s-6.14-10-3.87-20.23,7.67-17.64,12.06-16.67"/><path class="cls-9" d="M169.31,255.84c-20-.27-40.82,3-73.74,24.38-8.7,5.63-16.58,17.53-23,30.29A168.27,168.27,0,0,0,161.82,336c2.52,0,5-.19,7.49-.3V257.93C168.9,257.92,169.72,255.84,169.31,255.84Z"/><path class="cls-10" d="M240.7,280.22c-32.43-20.34-52.22-23.92-71.39-24.38v79.83c33.93-1.49,66.64-10.32,92.51-28.94C256.13,296.43,248.07,284.83,240.7,280.22Z"/><path class="cls-11" d="M142.74,256.07l19.39,46.45-6.85,33.32c4.74.16,6.7.16,12.83,0l1.2,0v-80C160.73,255.83,152.22,255.91,142.74,256.07Z"/><path class="cls-12" d="M174.06,302.52l19.41-46.45c-8.62-.16-16.42-.23-24.16-.23v80c3.45-.14,6.09-.45,9.92-.72Z"/><polygon class="cls-13" points="141.55 239.42 120.44 266.31 133.57 290.81 168.37 255.83 141.55 239.42"/><polygon class="cls-9" points="196.45 239.42 218.93 268.07 204.43 290.81 169.61 255.83 196.45 239.42"/></g></g></svg>