<svg xmlns="http://www.w3.org/2000/svg" viewBox="0 0 336 336"><defs><style>.cls-1{fill:#2695a3;}.cls-2{fill:#378b95;}.cls-3{fill:#fcc57f;}.cls-4{fill:#ffd8aa;}.cls-5{fill:#ffe6c8;}.cls-6{fill:#f4dbad;}.cls-7{fill:#1b75bb;}.cls-8{fill:#fff;}.cls-9{fill:#f1f1f2;}.cls-10{fill:#f6921e;}.cls-11{fill:#f4e9cd;}.cls-12{fill:#f05a28;}.cls-13{fill:#eed8a3;}.cls-14{fill:#25a9e0;}</style></defs><g id="Layer_2" data-name="Layer 2"><g id="Layer_1-2" data-name="Layer 1"><path class="cls-1" d="M0,168A168,168,0,0,0,167.19,336V0A168,168,0,0,0,0,168Z"/><path class="cls-2" d="M336,168A168,168,0,0,0,168,0l-.81,0V336l.81,0A168,168,0,0,0,336,168Z"/><polygon class="cls-3" points="192.94 219.92 192.94 210.42 141.55 210.42 141.55 245.39 192.94 219.92"/><path class="cls-4" d="M141.55,173.26v74.32c0,14,12.87,20.27,25.73,19.9V173.26Z"/><path class="cls-3" d="M192.94,247.58V173.26H167.28v94.22C180.11,267.1,192.94,260.11,192.94,247.58Z"/><path class="cls-5" d="M167.26,101.66c-108.81,0-64.72,143.73,0,143.73h0V101.66Z"/><path class="cls-6" d="M167.28,101.66V245.39C232,245.34,276,101.69,167.28,101.66Z"/><path class="cls-7" d="M169,95.32c31.43,0,56.34,29.59,61,40.67s5.85,13.1,5,25-12.41,20.4-14.25,7.51c-2.3-16-12.57-35.45-27.94-46.08-3.68-2.55-14.66,2.83-25.73,8.7V95.4C167.77,95.36,168.41,95.32,169,95.32Z"/><path class="cls-7" d="M237.72,157.15c-7.91,30.53-17.7,13.22-17.31.11S209.46,115.46,169,114.4c-.65,0-1.25.06-1.89.07V70.77C222.65,71.59,245.52,126.84,237.72,157.15Z"/><path class="cls-8" d="M166.17,258.71c-18-.24-35.62,4.17-65.25,23.4-7.83,5.07-14.27,14.49-20,26,23.3,14.51,50.16,24.21,79.63,24.21,2.28,0,4.49-.17,6.74-.27V258.74Z"/><path class="cls-9" d="M230.12,283.12c-29.19-18.3-45.58-24-62.84-24.38V332a151.31,151.31,0,0,0,82-28.35C241.84,294.65,236.76,287.27,230.12,283.12Z"/><path class="cls-10" d="M117.61,272.13c-5.13,2.77-10.67,6.07-16.69,10-7.83,5.07-16.78,16.4-22.52,27.88,24,15.15,47.53,23.75,76,25.34,2.27.13,10.62.73,12.87.64v-24.5l-38.37-44.82C125.34,268.2,121.62,270,117.61,272.13Z"/><polygon class="cls-11" points="141.45 245.39 122.46 269.59 134.27 291.65 167.28 258.74 141.45 245.39"/><path class="cls-12" d="M231.53,282.11A206.27,206.27,0,0,0,205,267.67l-37.48,43.8-.2-.05V336c30.59,0,59.61-6.68,88.5-24.58C250.66,302.12,239.11,286.9,231.53,282.11Z"/><polygon class="cls-13" points="192.94 245.87 210.7 270.06 198.89 292.12 167.28 258.74 192.94 245.87"/><path class="cls-14" d="M149.82,128.47c-17.33,7.29-33.18,14.29-40,38.21-2.69,9.41-7.66,4.08-9.81-3.59s-1.06-16.88,3.58-25.4c-.78,1.46,37.61-40.29,63.57-42.29l-.05,35.75C156.52,136.78,155.86,125.92,149.82,128.47Z"/><path class="cls-14" d="M113.73,156.84c-1.16,18.48-7.6,20.2-15.49,3.36s11.39-89.32,67.7-89.47h.16c.37,0,.72,0,1.09,0v43.71C132,115.3,114.87,138.7,113.73,156.84Z"/><path class="cls-5" d="M95.41,151.11c-4,.88-5.52,9-3.5,18.21s6.93,15.89,10.88,15,5.51-9,3.47-18.21S99.36,150.25,95.41,151.11Z"/><path class="cls-5" d="M237,151.11c4,.88,5.52,9,3.5,18.21s-6.93,15.89-10.87,15-5.53-9-3.48-18.21S233.06,150.25,237,151.11Z"/></g></g></svg>