<svg xmlns="http://www.w3.org/2000/svg" viewBox="0 0 336 336.01"><defs><style>.cls-1{fill:#2493c5;}.cls-2{fill:#0088be;}.cls-3{fill:#ffd8aa;}.cls-4{fill:#fcc57f;}.cls-5{fill:#ffe6c8;}.cls-6{fill:#f4dbad;}.cls-7{fill:#7ccdd2;}.cls-8{fill:#7dabaf;}.cls-9{fill:#f27126;}</style></defs><g id="Layer_2" data-name="Layer 2"><g id="Layer_1-2" data-name="Layer 1"><path class="cls-1" d="M168,0a168,168,0,0,0,0,336c.66,0,1.31,0,2-.05V.05C169.31,0,168.66,0,168,0Z"/><path class="cls-2" d="M336,168A168,168,0,0,0,170,.05V336A168,168,0,0,0,336,168Z"/><path class="cls-3" d="M142.24,180.8v77.63c0,14.53,14,21.06,27.32,20.75V180.8Z"/><path class="cls-4" d="M196.81,262.19V150.76h-27l-.21,128.42C183,278.87,196.81,275.34,196.81,262.19Z"/><path class="cls-5" d="M169.77,226.07V76C56.54,76.19,102.36,225.74,169.77,226.07Z"/><path class="cls-6" d="M170,76h-.22V226.07l.22,0C237.53,226.09,283.63,76,170,76Z"/><path class="cls-3" d="M142.24,230.78s-6.2,7.88-8,13.08c-2.18,6.42,1.09,18.63,1.09,18.63l11.71,3.85,4.6-3.47L154,251.54Z"/><path class="cls-4" d="M184.14,231.75l2.3,27.1,7.29,4.37h13.06v-9.17L200.92,233s-3.52-6.18-7.18-6.18S184.14,231.75,184.14,231.75Z"/><path class="cls-7" d="M138.93,242.77c0-5.68.68-7.38,3.31-12L124.6,250.71a222.64,222.64,0,0,0-23.9,13.72c-10.5,6.82-22.33,25.84-28.92,41.27,26.78,18.92,57.67,30.31,98,30.31V274.07A31.23,31.23,0,0,1,138.93,242.77Z"/><path class="cls-8" d="M237.13,264.42A242.81,242.81,0,0,0,215,252l.35-.65L207.22,241l-8.63-11a31.31,31.31,0,0,1-28.48,44.08l-.34,0V336h.34c35.29,0,70.49-13,95.07-31C258.57,289.1,248.11,271.29,237.13,264.42Z"/><path class="cls-9" d="M102.63,162.31s-16.57-30.48-7.74-67.12S113.68,53,129.58,49.67s43.25-21.6,43.25-21.6L161.91,45.24s13.61-10,39.12-10c0,0-20.72,8.88-12,11.11,0,0,36.46-3.61,46.33-2.49s-6.57.78-6.57,10.52,25.35,29,21.55,57.68a168.15,168.15,0,0,1-15,50.25s.33-24.24-.89-40.68S220,86.31,210.49,86.31s-14.77,17-14.77,17-30.48-20.09-37.25-21.47c-16-3.29-30.54,5.54-30.54,5.54s-8.89,6-16.67,24.64C102.67,132.62,102.63,162.31,102.63,162.31Z"/><path class="cls-6" d="M243,127.62c4.15.92,5.77,9.44,3.66,19s-7.22,16.6-11.36,15.67-5.77-9.44-3.66-19,7.24-16.59,11.36-15.68"/><path class="cls-5" d="M94.92,127.62c-4.13.92-5.75,9.44-3.62,19s7.22,16.6,11.33,15.67,5.78-9.44,3.64-19-7.2-16.59-11.35-15.68"/></g></g></svg>