<svg xmlns="http://www.w3.org/2000/svg" viewBox="0 0 336 336.24"><defs><style>.cls-1{fill:#2493c5;}.cls-2{fill:#0088be;}.cls-3{fill:#fcc57f;}.cls-4{fill:#ffd8aa;}.cls-5{fill:#ffe6c8;}.cls-6{fill:#f4dbad;}.cls-7{fill:#353537;}.cls-8{fill:#fff;}.cls-9{fill:#f1f1f2;}.cls-10{fill:#484859;}.cls-11{fill:#8ad6f7;}.cls-12{fill:#1b75bb;}.cls-13{fill:#231f20;}</style></defs><g id="Layer_2" data-name="Layer 2"><g id="Layer_1-2" data-name="Layer 1"><path class="cls-1" d="M0,168A168,168,0,0,0,168,336V0A168,168,0,0,0,0,168Z"/><path class="cls-2" d="M336,168A168,168,0,0,0,168,0V336A168,168,0,0,0,336,168Z"/><polygon class="cls-3" points="199.48 209.27 199.48 198.73 142.38 198.73 142.38 237.57 199.48 209.27"/><path class="cls-4" d="M142.38,157.43V240c0,15.55,14.31,22.51,28.59,22.11V157.43Z"/><path class="cls-3" d="M199.48,240V157.43H171v104.7C185.25,261.7,199.48,253.93,199.48,240Z"/><path class="cls-5" d="M171,77.86C50,77.86,99,237.57,171,237.57h0V77.86Z"/><path class="cls-6" d="M171,77.86V237.57C242.85,237.54,291.84,77.88,171,77.86Z"/><path class="cls-7" d="M172.92,70.8c34.92,0,62.61,32.89,67.82,45.2s6.52,14.57,5.56,27.82-14.58,22.75-15.85,8.35c-4.59-52.52-24.07-39.39-41.16-51.2-4.09-2.83-13.66,2-18.47,9.67V70.91C171.51,70.86,172.24,70.8,172.92,70.8Z"/><path class="cls-7" d="M249.24,139.51c-8.77,33.93-19.66,14.71-19.22.14S217.83,93.18,172.92,92c-.73,0-1.39.07-2.1.09V43.52C232.5,44.45,257.93,105.84,249.24,139.51Z"/><path class="cls-8" d="M169.74,252.38c-20-.26-39.6,4.64-72.52,26C88.51,284,81.37,294.49,75,307.26c25.9,16.12,55.73,26.89,88.49,26.89,2.53,0,5-.19,7.49-.3V252.42C170.57,252.41,170.15,252.38,169.74,252.38Z"/><path class="cls-9" d="M240.81,279.51c-32.44-20.33-50.66-26.62-69.84-27.09v81.43a168.09,168.09,0,0,0,91.16-31.5C253.83,292.32,248.17,284.12,240.81,279.51Z"/><path class="cls-10" d="M137.62,103.92c-19.27,8.1-22.93,19.62-30.47,46.19-3,10.45-8.53,4.54-10.89-4s-1.2-18.74,4-28.21c-.87,1.62,41.79-44.78,70.64-47v39.73C162.31,97.53,144.31,101.09,137.62,103.92Z"/><polygon class="cls-8" points="170.93 251.26 142.26 237.57 125.17 265.8 134.28 288.98 170.93 254.96 170.93 251.26"/><polygon class="cls-9" points="199.48 238.1 170.93 251.26 170.93 254.76 206.1 289.51 216.56 265.8 199.48 238.1"/><path class="cls-10" d="M169.67,43.48v0h-.18v0c-18.37.05-36.31,4.37-44.73,17.37-2.48,3.83.41,10.05.41,10.05-3.11-1.44-8.64-1-11.12,1.52C92,95.15,88.94,131.58,94.24,142.91c8.78,18.72,15.92,16.81,17.23-3.73C112.73,119,131.73,93,170.87,92.1V43.52C170.46,43.51,170.07,43.48,169.67,43.48Z"/><path class="cls-5" d="M91.11,132.81c-4.44,1-6.15,10-3.91,20.23s7.71,17.65,12.1,16.68,6.14-10.05,3.86-20.23-7.66-17.65-12-16.68"/><path class="cls-5" d="M248.48,132.81c4.41,1,6.13,10,3.87,20.23s-7.68,17.65-12.08,16.68-6.13-10.05-3.86-20.23,7.67-17.65,12.07-16.68"/><path class="cls-11" d="M115.77,267.3c-5.71,3.08-11.85,6.74-18.55,11.08C88.51,284,81.37,294.49,75,307.26c25.37,17.91,51,26.07,81.68,28.89,2.52.23,12-.06,14.44-.18l.12-25L128.34,261.2C124.36,262.94,120.24,264.89,115.77,267.3Z"/><path class="cls-12" d="M226.35,267.3c5.7,3.08,11.84,6.74,18.54,11.08,8.7,5.64,14.52,14,20.88,26.8-25.35,17.91-49.77,27.27-80.45,30.08-2.53.23-11.81.83-14.3.71l.11-25,42.65-49.82C217.76,262.94,221.89,264.89,226.35,267.3Z"/><polygon class="cls-13" points="147.2 244.71 171.11 258.53 147.2 272.34 147.2 244.71"/><polygon class="cls-13" points="195.26 244.71 171.34 258.53 195.26 272.34 195.26 244.71"/></g></g></svg>