<svg xmlns="http://www.w3.org/2000/svg" viewBox="0 0 335 335.67"><defs><style>.cls-1{fill:#d1485d;}.cls-2{fill:#c7374a;}.cls-3{fill:#fcc57f;}.cls-4{fill:#ffd8aa;}.cls-5{fill:#ffe6c8;}.cls-6{fill:#f4dbad;}.cls-7{fill:#6d6e70;}.cls-8{fill:#fff;}.cls-9{fill:#f1f1f2;}.cls-10{fill:#939598;}.cls-11{fill:#808082;}.cls-12{fill:#848688;}.cls-13{fill:#f4e9cd;}.cls-14{fill:#bbbdbf;}.cls-15{fill:#808184;}.cls-16{fill:#eed8a3;}</style></defs><g id="Layer_2" data-name="Layer 2"><g id="Layer_1-2" data-name="Layer 1"><path class="cls-1" d="M167.5,0a167.5,167.5,0,0,0,0,335c1.39,0,2.75-.07,4.13-.1V.11C170.25.07,168.89,0,167.5,0Z"/><path class="cls-2" d="M335,167.5A167.45,167.45,0,0,0,171.63.11V334.9C262.22,332.7,335,258.62,335,167.5Z"/><polygon class="cls-3" points="200.17 208.32 200.17 197.72 142.79 197.72 142.79 236.76 200.17 208.32"/><path class="cls-4" d="M142.79,156.23v83c0,15.62,14.38,22.61,28.74,22.2V156.23Z"/><path class="cls-3" d="M200.17,239.22v-83H171.53V261.42C185.86,261,200.17,253.19,200.17,239.22Z"/><path class="cls-5" d="M171.5,76.28c-121.51,0-72.26,160.48,0,160.48h0V76.28Z"/><path class="cls-6" d="M171.53,76.28V236.76C243.74,236.71,293,76.31,171.53,76.28Z"/><path class="cls-7" d="M173.48,69.2c35.09,0,62.91,33,68.14,45.4s6.55,14.64,5.59,28-14.66,22.87-15.93,8.38c-4.61-52.76-14-14-31.11-25.92-4.11-2.84-11-8.46-28.8-15.8V69.3C172.07,69.25,172.79,69.2,173.48,69.2Z"/><path class="cls-7" d="M250.16,138.23c-8.81,34.09-19.75,14.77-19.3.14S218.62,91.68,173.48,90.5c-.73,0-1.4.08-2.11.1V41.79C233.34,42.72,258.89,104.4,250.16,138.23Z"/><path class="cls-8" d="M170.28,251.63c-20.1-.26-39.77,4.66-72.85,26.13-8.75,5.66-15.93,16.18-22.34,29,26,16.2,56,27,88.91,27,2.53,0,5-.19,7.53-.31V251.67Z"/><path class="cls-9" d="M241.69,278.89c-32.59-20.44-50.9-26.76-70.16-27.22v81.81a169,169,0,0,0,91.58-31.64C254.78,291.76,249.09,283.52,241.69,278.89Z"/><path class="cls-10" d="M116.06,266.62c-5.73,3.09-11.9,6.77-18.63,11.14-8.75,5.66-15.93,16.18-22.34,29,25.48,18,51.11,25.32,81.95,28.14,2.52.23,11.86.83,14.36.71l.13-25.06-42.84-50.06C124.69,262.24,120.54,264.2,116.06,266.62Z"/><path class="cls-11" d="M138,102.46c-19.35,8.14-23,19.72-30.6,46.41-3,10.51-8.56,4.57-11-4s-1.2-18.84,4-28.36c-.88,1.64,42-45,71-47.21v39.91C148.5,105,144.74,99.62,138,102.46Z"/><path class="cls-12" d="M227.15,266.62c5.73,3.09,11.91,6.77,18.63,11.14,8.75,5.66,13.93,12.28,20.33,25.1-25.47,18-49.35,29.22-80.18,32-2.53.23-11.86.83-14.37.71l.12-25.06,42.84-50.06C218.53,262.24,222.68,264.2,227.15,266.62Z"/><polygon class="cls-13" points="171.48 250.5 142.69 236.76 125.52 265.11 134.66 288.4 171.48 254.23 171.48 250.5"/><polygon class="cls-14" points="157.16 267.52 164.85 273.1 157.16 296.83 171.73 310.55 171.73 254.23 157.16 267.52"/><polygon class="cls-15" points="186.31 267.52 178.62 273.1 186.31 296.83 171.73 310.55 171.73 254.23 186.31 267.52"/><path class="cls-12" d="M109.47,270.32l20.4,18.61-16.35,2.84,36.59,42.36S165,336,171.56,335.61l.17-25.06-43-50.06s-9.25,4.22-13.71,6.72S109.47,270.32,109.47,270.32Z"/><polygon class="cls-16" points="200.17 237.29 171.48 250.5 171.48 254.03 206.82 288.93 217.32 265.11 200.17 237.29"/><path class="cls-7" d="M233.74,270.32l-20.4,18.61,16.36,2.84-36.84,42.36s-16.13,1.87-21.3,1.48l-.08-25.06,43-50.06s9.26,4.22,13.71,6.72S233.74,270.32,233.74,270.32Z"/><path class="cls-11" d="M170.21,41.75v0H170v0c-18.45,0-36.47,4.39-44.94,17.45-2.5,3.85.43,10.1.43,10.1-3.14-1.45-8.71-1-11.18,1.53-22.19,22.82-25.24,59.43-19.9,70.81,8.81,18.81,16,16.89,17.29-3.75,1.28-20.25,20.38-46.37,59.69-47.3V41.79C171,41.78,170.62,41.75,170.21,41.75Z"/><path class="cls-5" d="M91.27,131.5c-4.44,1-6.16,10.08-3.9,20.32s7.73,17.74,12.13,16.77,6.18-10.1,3.89-20.34-7.7-17.72-12.12-16.75"/><path class="cls-5" d="M249.39,131.5c4.44,1,6.16,10.08,3.9,20.32s-7.73,17.74-12.13,16.77-6.17-10.1-3.89-20.34,7.71-17.72,12.12-16.75"/></g></g></svg>