<svg xmlns="http://www.w3.org/2000/svg" viewBox="0 0 336 336.99"><defs><style>.cls-1{fill:#b3cd72;}.cls-2{fill:#91c167;}.cls-3{fill:#ffd8aa;}.cls-4{fill:#fcc57f;}.cls-5{fill:#475a92;}.cls-6{fill:#262261;}.cls-7{fill:#1b75bb;}.cls-8{fill:#2b388f;}.cls-9{fill:#ffe6c8;}.cls-10{fill:#f4dbad;}.cls-11{fill:#353537;}</style></defs><g id="Layer_2" data-name="Layer 2"><g id="Layer_1-2" data-name="Layer 1"><path class="cls-1" d="M168,0a168,168,0,0,0,0,336c.45,0,.87-.07,1.32-.07V.07C168.87.07,168.45,0,168,0Z"/><path class="cls-2" d="M336,168C336,75.67,261.48.79,169.32.07V335.93C261.48,335.21,336,260.32,336,168Z"/><path class="cls-3" d="M145.59,197.32v45s-5.6,7.1-7.17,11.78c-2,5.77,1,16.75,1,16.75l7.19,2.37c3.08,8.85,13.79,12.89,23.78,12.67l.21-88.54Z"/><path class="cls-4" d="M203.66,263.23,198,246.73s-1.95-4.43-3.35-6.87V170.29H170.36V285.86c11.79-.27,23.57-3.33,24.26-14.38h9Z"/><path class="cls-5" d="M142.61,253.08c0-5.11.61-6.63,3-10.78l-15.87,17.93a197,197,0,0,0-21.52,12.34c-9.43,6.14-21.63,25.06-27.56,38.95,26.53,16.4,60.29,25.92,89.72,25.46V281.25A28.1,28.1,0,0,1,142.61,253.08Z"/><polygon class="cls-4" points="193.7 219.22 193.7 210.29 145.41 210.29 145.41 243.16 193.7 219.22"/><path class="cls-6" d="M231,272.56a215.66,215.66,0,0,0-19.87-11.16l-16.4-21.54c1.55,3.49,4.05,9.12,4.05,13.21a28.14,28.14,0,0,1-28.07,28.18h-.31V337h.31c31.75,0,61.83-10.45,85.72-26.53C250.44,296.11,240.84,278.74,231,272.56Z"/><path class="cls-5" d="M145.59,242.29l24.77.87v42.71l-16.22,4.79-12.34-4.79s-1.53-11.66-1.33-12.42,0-23.29,0-23.29Z"/><path class="cls-6" d="M196,242.3l-25.63.86v42.71l16.2,4.79,12.34-4.79s1.53-11.66,1.34-12.42,0-23.29,0-23.29Z"/><path class="cls-7" d="M133.35,229.81c-1.48,0-2.69.72-2.69,1.63v23.45c0,.9,1.21,1.63,2.69,1.63h37.22V229.81Z"/><path class="cls-8" d="M210.05,254.89V231.44c0-.91-1.22-1.63-2.71-1.63H170.57v26.71h36.77C208.83,256.52,210.05,255.79,210.05,254.89Z"/><path class="cls-9" d="M170.36,238.06V103C68.47,103.2,109.7,237.75,170.36,238.06Z"/><path class="cls-10" d="M170.54,103l-.18,0v135l.18,0C231.32,238.08,272.8,103,170.54,103Z"/><path class="cls-11" d="M109.94,180.68s-14.9-27.42-7-60.39,17.85-43.72,32.17-46.72S157.72,69,157.72,69s16.89-5.13,24.68-3.14c0,0,41,8.95,41,17.7s22.82,26.11,19.4,51.9a151.59,151.59,0,0,1-13.5,45.21s.29-21.81-.81-36.6-13-31.78-21.51-31.78-40.79,6.52-40.79,6.52.06-9.26-6-10.51c-14.38-3-27.48,5-27.48,5s-8,5.38-15,22.16C110,154,109.94,180.68,109.94,180.68Z"/><path class="cls-10" d="M236.25,149.47c3.72.82,5.19,8.5,3.28,17.12s-6.5,14.93-10.21,14.09-5.2-8.48-3.3-17.1,6.52-14.93,10.23-14.11"/><path class="cls-9" d="M103,149.47c-3.73.82-5.18,8.5-3.26,17.12s6.49,14.93,10.19,14.09,5.19-8.48,3.28-17.1-6.48-14.93-10.21-14.11"/><polygon class="cls-11" points="130.84 98.93 160.78 117.58 141.6 95.56 130.84 98.93"/></g></g></svg>