<svg xmlns="http://www.w3.org/2000/svg" viewBox="0 0 335 335.16"><defs><style>.cls-1{fill:#edbc1f;}.cls-2{fill:#daae2a;}.cls-3{fill:#fcc57f;}.cls-4{fill:#ffd8aa;}.cls-5{fill:#ffe6c8;}.cls-6{fill:#f4dbad;}.cls-7{fill:#475a92;}.cls-8{fill:#262261;}.cls-9{fill:#ededed;}.cls-10{fill:#dbdbdb;}.cls-11{fill:#5bc0a0;}.cls-12{fill:#66ad97;}.cls-13{fill:#fff;}</style></defs><g id="Layer_2" data-name="Layer 2"><g id="Layer_1-2" data-name="Layer 1"><path class="cls-1" d="M167.49,0a167.49,167.49,0,1,0,0,335h0V0Z"/><path class="cls-2" d="M335,167.48A167.49,167.49,0,0,0,167.5,0V335A167.5,167.5,0,0,0,335,167.48Z"/><polygon class="cls-3" points="195.75 210.59 195.75 200.07 138.88 200.07 138.88 238.78 195.75 210.59"/><path class="cls-4" d="M138.88,158.94v82.29c0,15.48,14.23,22.41,28.46,22V158.94Z"/><path class="cls-3" d="M195.75,241.23V158.94H167.34V263.23C181.56,262.82,195.75,255.09,195.75,241.23Z"/><path class="cls-5" d="M167.33,79.68c-120.47,0-71.65,159.1,0,159.1h0V79.68Z"/><path class="cls-6" d="M167.34,79.68v159.1C239,238.75,287.74,79.72,167.34,79.68Z"/><path class="cls-7" d="M165.26,72.65c-34.79,0-62.37,32.78-67.56,45s-6.48,14.52-5.54,27.72,13.75,22.59,15.78,8.31c2.55-17.71,13.91-39.22,30.94-51,4.07-2.8,16.21-15.3,28.46-8.81V72.76C166.65,72.71,166,72.65,165.26,72.65Z"/><path class="cls-8" d="M186.4,98.46c19.17,8.05,36.91,26.73,44.42,53.21,3,10.4,8.48,4.51,10.85-4s1.19-18.68-3.94-28.12c.84,1.62-41.65-44.59-70.39-46.81C167.34,72.76,179.71,95.65,186.4,98.46Z"/><path class="cls-7" d="M89.23,141.1c8.74,33.8,19.57,14.65,19.14.15S120.5,95,165.26,93.79c.71,0,1.39.07,2.08.08V45.49C105.91,46.4,80.58,107.56,89.23,141.1Z"/><path class="cls-8" d="M226.51,140.77c1.31,20.47,8.42,22.36,17.16,3.71s-12.6-98.86-74.94-99v0h-.18v0c-.4,0-.79,0-1.21,0V93.87C206.33,94.79,225.25,120.69,226.51,140.77Z"/><path class="cls-5" d="M87.79,134.43c-4.41,1-6.11,10-3.88,20.15s7.68,17.59,12,16.62,6.11-10,3.84-20.16-7.63-17.57-12-16.61"/><path class="cls-5" d="M244.55,134.43c4.42,1,6.11,10,3.87,20.15s-7.66,17.59-12,16.62-6.13-10-3.85-20.16,7.63-17.57,12-16.61"/><path class="cls-9" d="M166.11,253.53c-19.93-.27-39.43,4.62-72.21,25.91-8.68,5.61-14.57,13.62-20.92,26.33C97.13,321.55,127.27,335,159.88,335c2.52,0,5,.11,7.46,0V253.57C167,253.57,166.53,253.53,166.11,253.53Z"/><path class="cls-10" d="M238.49,279.44c-32.33-20.27-52-25.4-71.15-25.87V335c25.76,1.73,67.13-9.43,92.9-28C254.57,296.74,245.83,284,238.49,279.44Z"/><path class="cls-11" d="M140.9,255.38l19.31,46.27-6.82,33.21c4.72.16,6.67.28,12.77.12h1.33l-.15-79.84C158.8,255.14,150.33,255.22,140.9,255.38Z"/><path class="cls-12" d="M172.1,301.65l19.34-46.27c-8.61-.16-16.37-.24-24.1-.24V335a96.28,96.28,0,0,0,11.19-.34Z"/><polygon class="cls-13" points="139.69 238.78 118.68 265.58 131.75 289.99 166.4 255.14 139.69 238.78"/><polygon class="cls-9" points="194.4 238.78 215.41 265.58 202.36 289.99 167.66 255.14 194.4 238.78"/><path class="cls-7" d="M133.66,60.91l8.13-4.61s6.26-14.91-8.13-15.19c0,0,29.53-.54,26.55,9.9S147,62,147,62Z"/></g></g></svg>