<svg xmlns="http://www.w3.org/2000/svg" viewBox="0 0 336 335.99"><defs><style>.cls-1{fill:#8d73ab;}.cls-2{fill:#8067a5;}.cls-3{fill:#fcc57f;}.cls-4{fill:#ffd8aa;}.cls-5{fill:#ffe6c8;}.cls-6{fill:#f4dbad;}.cls-7{fill:#e5a85a;}.cls-8{fill:#fff;}.cls-9{fill:#f1f1f2;}.cls-10{fill:#d6aa28;}.cls-11{fill:#f4e9cd;}.cls-12{fill:#bb902e;}.cls-13{fill:#eed8a3;}.cls-14{fill:#8a5d3b;}.cls-15{fill:#fbb762;}</style></defs><g id="Layer_2" data-name="Layer 2"><g id="Layer_1-2" data-name="Layer 1"><path class="cls-1" d="M0,168A168,168,0,0,0,166.55,336V0A168,168,0,0,0,0,168Z"/><path class="cls-2" d="M336,168A168,168,0,0,0,168,0c-.49,0-1,0-1.45,0V336c.49,0,1,0,1.45,0A168,168,0,0,0,336,168Z"/><polygon class="cls-3" points="195.22 207 195.22 196.46 138.12 196.46 138.12 235.31 195.22 207"/><path class="cls-4" d="M138.12,155.17v82.58c0,15.55,14.31,22.51,28.59,22.1V155.17Z"/><path class="cls-3" d="M195.22,237.75V155.17H166.71V259.85C181,259.43,195.22,251.66,195.22,237.75Z"/><path class="cls-5" d="M166.68,75.61c-120.91,0-71.91,159.7,0,159.7h0V75.61Z"/><path class="cls-6" d="M166.71,75.61v159.7C238.58,235.26,287.55,75.64,166.71,75.61Z"/><path class="cls-7" d="M168.65,68.56c34.93,0,62.61,32.88,67.81,45.19S243,128.31,242,141.56s-13.8,22.67-15.85,8.35c-2.55-17.78-14-39.39-31-51.2-4.09-2.83-16.29,3.14-28.6,9.67V68.66C167.26,68.61,168,68.56,168.65,68.56Z"/><path class="cls-7" d="M245,137.26c-8.78,33.92-19.66,14.69-19.22.13s-12.17-46.45-57.1-47.63c-.72,0-1.39.07-2.1.09V41.29C228.23,42.2,253.66,103.59,245,137.26Z"/><path class="cls-8" d="M165.48,250.11c-20-.27-39.59,4.63-72.5,26-8.71,5.64-15.86,16.1-22.23,28.86,25.89,16.12,55.72,26.89,88.47,26.89,2.53,0,5-.19,7.49-.3V250.15C166.3,250.14,165.89,250.11,165.48,250.11Z"/><path class="cls-9" d="M236.54,277.23c-32.44-20.34-50.65-26.62-69.83-27.08v81.41a168.12,168.12,0,0,0,91.14-31.49C249.56,290,243.91,281.84,236.54,277.23Z"/><path class="cls-10" d="M111.52,265c-5.71,3.08-11.85,6.74-18.54,11.09-8.71,5.64-15.86,16.1-22.23,28.86,25.35,17.91,51,27.47,81.67,30.27,2.51.23,11.8.82,14.29.71V308.73l-42.63-49.8C120.1,260.66,116,262.62,111.52,265Z"/><polygon class="cls-11" points="138.01 235.31 116.91 262.2 130.03 286.7 165.77 250.15 138.01 235.31"/><path class="cls-12" d="M238.11,276.11a228.77,228.77,0,0,0-29.53-16l-41.66,48.66-.21-.06V336c34,0,69.78-10.33,95.65-28.95C256.67,296.7,246.53,281.43,238.11,276.11Z"/><polygon class="cls-13" points="195.22 235.83 214.95 262.72 201.84 287.23 166.71 250.67 195.22 235.83"/><path class="cls-14" d="M172,274.82a5.35,5.35,0,1,1-5.35-5.35A5.35,5.35,0,0,1,172,274.82Z"/><path class="cls-14" d="M172,290a5.35,5.35,0,1,1-5.35-5.34A5.34,5.34,0,0,1,172,290Z"/><path class="cls-15" d="M147.31,105.4c-19.25,8.09-36.87,15.88-44.41,42.45-3,10.45-8.52,4.54-10.89-4s-1.2-18.75,4-28.22c-.88,1.63,41.78-44.76,70.62-47v39.72c-11.79,6.25-1.1,11.28-6.05,11.36C153.85,119.88,154,102.57,147.31,105.4Z"/><path class="cls-15" d="M107.21,136.92c-1.29,20.54-8.45,22.45-17.21,3.73s12.66-99.24,75.23-99.41v0h.17v0c.41,0,.8,0,1.21,0V89.85C127.49,90.77,108.48,116.76,107.21,136.92Z"/><path class="cls-15" d="M161.3,42.67S154.67,49,132.88,46s-23.06-10.21-23.06-10.21S112.79,49,126,63.36s25.36-5,25.36-5l5.52-8Z"/><path class="cls-5" d="M86.85,130.56c-4.41,1-6.13,10-3.88,20.22S90.66,168.44,95,167.47s6.14-10.05,3.87-20.24-7.67-17.64-12.06-16.67"/><path class="cls-5" d="M244.2,130.56c4.42,1,6.13,10,3.88,20.22s-7.69,17.66-12.07,16.69-6.14-10.05-3.87-20.24,7.67-17.64,12.06-16.67"/><path class="cls-1" d="M0,168A168,168,0,0,0,166.55,336V0A168,168,0,0,0,0,168Z"/><path class="cls-2" d="M336,168A168,168,0,0,0,168,0c-.49,0-1,0-1.45,0V336c.49,0,1,0,1.45,0A168,168,0,0,0,336,168Z"/><polygon class="cls-3" points="195.22 207 195.22 196.46 138.12 196.46 138.12 235.31 195.22 207"/><path class="cls-4" d="M138.12,155.17v82.58c0,15.55,14.31,22.51,28.59,22.1V155.17Z"/><path class="cls-3" d="M195.22,237.75V155.17H166.71V259.85C181,259.43,195.22,251.66,195.22,237.75Z"/><path class="cls-5" d="M166.68,75.61c-120.91,0-71.91,159.7,0,159.7h0V75.61Z"/><path class="cls-6" d="M166.71,75.61v159.7C238.58,235.26,287.55,75.64,166.71,75.61Z"/><path class="cls-7" d="M168.65,68.56c34.93,0,62.61,32.88,67.81,45.19S243,128.31,242,141.56s-13.8,22.67-15.85,8.35c-2.55-17.78-14-39.39-31-51.2-4.09-2.83-16.29,3.14-28.6,9.67V68.66C167.26,68.61,168,68.56,168.65,68.56Z"/><path class="cls-7" d="M245,137.26c-8.78,33.92-19.66,14.69-19.22.13s-12.17-46.45-57.1-47.63c-.72,0-1.39.07-2.1.09V41.29C228.23,42.2,253.66,103.59,245,137.26Z"/><path class="cls-8" d="M165.48,250.11c-20-.27-39.59,4.63-72.5,26-8.71,5.64-15.86,16.1-22.23,28.86,25.89,16.12,55.72,26.89,88.47,26.89,2.53,0,5-.19,7.49-.3V250.15C166.3,250.14,165.89,250.11,165.48,250.11Z"/><path class="cls-9" d="M236.54,277.23c-32.44-20.34-50.65-26.62-69.83-27.08v81.41a168.12,168.12,0,0,0,91.14-31.49C249.56,290,243.91,281.84,236.54,277.23Z"/><path class="cls-10" d="M111.52,265c-5.71,3.08-11.85,6.74-18.54,11.09-8.71,5.64-15.86,16.1-22.23,28.86,25.35,17.91,51,27.47,81.67,30.27,2.51.23,11.8.82,14.29.71V308.73l-42.63-49.8C120.1,260.66,116,262.62,111.52,265Z"/><polygon class="cls-11" points="138.01 235.31 116.91 262.2 130.03 286.7 165.77 250.15 138.01 235.31"/><path class="cls-12" d="M238.11,276.11a228.77,228.77,0,0,0-29.53-16l-41.66,48.66-.21-.06V336c34,0,69.78-10.33,95.65-28.95C256.67,296.7,246.53,281.43,238.11,276.11Z"/><polygon class="cls-13" points="195.22 235.83 214.95 262.72 201.84 287.23 166.71 250.67 195.22 235.83"/><path class="cls-14" d="M172,274.82a5.35,5.35,0,1,1-5.35-5.35A5.35,5.35,0,0,1,172,274.82Z"/><path class="cls-14" d="M172,290a5.35,5.35,0,1,1-5.35-5.34A5.34,5.34,0,0,1,172,290Z"/><path class="cls-15" d="M147.31,105.4c-19.25,8.09-36.87,15.88-44.41,42.45-3,10.45-8.52,4.54-10.89-4s-1.2-18.75,4-28.22c-.88,1.63,41.78-44.76,70.62-47v39.72c-11.79,6.25-1.1,11.28-6.05,11.36C153.85,119.88,154,102.57,147.31,105.4Z"/><path class="cls-15" d="M107.21,136.92c-1.29,20.54-8.45,22.45-17.21,3.73s12.66-99.24,75.23-99.41v0h.17v0c.41,0,.8,0,1.21,0V89.85C127.49,90.77,108.48,116.76,107.21,136.92Z"/><path class="cls-15" d="M161.3,42.67S154.67,49,132.88,46s-23.06-10.21-23.06-10.21S112.79,49,126,63.36s25.36-5,25.36-5l5.52-8Z"/><path class="cls-5" d="M86.85,130.56c-4.41,1-6.13,10-3.88,20.22S90.66,168.44,95,167.47s6.14-10.05,3.87-20.24-7.67-17.64-12.06-16.67"/><path class="cls-5" d="M244.2,130.56c4.42,1,6.13,10,3.88,20.22s-7.69,17.66-12.07,16.69-6.14-10.05-3.87-20.24,7.67-17.64,12.06-16.67"/></g></g></svg>