<svg xmlns="http://www.w3.org/2000/svg" viewBox="0 0 335.95 336"><defs><style>.cls-1{fill:#edbc1f;}.cls-2{fill:#daae2a;}.cls-3{fill:#ffd8aa;}.cls-4{fill:#fcc57f;}.cls-5{fill:#ffe6c8;}.cls-6{fill:#f4dbad;}.cls-7{fill:#231f20;}.cls-8{fill:#e394a0;}.cls-9{fill:#dc7688;}</style></defs><g id="Layer_2" data-name="Layer 2"><g id="Layer_1-2" data-name="Layer 1"><path class="cls-1" d="M0,168A168,168,0,0,0,168,336V0A168,168,0,0,0,0,168Z"/><path class="cls-2" d="M336,168A168,168,0,0,0,168,0V336A168,168,0,0,0,336,168Z"/><path class="cls-3" d="M141.19,178.46V257c0,14.7,14.33,32.52,27.84,32.22l-.21-110.71Z"/><path class="cls-4" d="M196.37,260.76V148.08H169V290C182.66,289.65,196.37,274.06,196.37,260.76Z"/><path class="cls-5" d="M169,224.24V72.47C54.52,72.67,100.86,223.9,169,224.24Z"/><path class="cls-6" d="M169.25,72.46H169V224.24l.22,0C237.55,224.26,284.16,72.46,169.25,72.46Z"/><path class="cls-3" d="M141.19,229s-6.28,8-8.05,13.23c-2.21,6.48,1.09,18.84,1.09,18.84L146.07,265l4.66-3.51L153.07,250Z"/><path class="cls-4" d="M183.55,230l2.33,27.4,7.37,4.42h13.21v-9.28l-6-21.33s-3.55-6.25-7.24-6.25S183.55,230,183.55,230Z"/><path class="cls-7" d="M101.13,159.76s-16.75-30.82-7.82-67.88,19-42.66,35.07-46S183.55,24,183.55,24s-3.86,16.24,4.91,18.48c0,0,20.58-3.49,31.94,5.94C228,54.71,254.3,80,250.46,108.94a169.86,169.86,0,0,1-15.18,50.82s.35-24.51-.89-41.13-14.58-35.72-24.18-35.72-45.77-3.09-52.61-4.49C141.44,75.11,126.71,84,126.71,84s-9,6-16.86,24.91C101.17,129.74,101.13,159.76,101.13,159.76Z"/><path class="cls-6" d="M243.08,124.68c4.19.93,5.83,9.55,3.7,19.22s-7.31,16.8-11.5,15.86-5.83-9.54-3.69-19.22,7.32-16.78,11.49-15.86"/><path class="cls-5" d="M93.35,124.68c-4.19.93-5.83,9.55-3.68,19.22s7.3,16.8,11.46,15.86,5.84-9.54,3.68-19.22-7.28-16.78-11.46-15.86"/><path class="cls-8" d="M137.84,241.12c0-5.74.68-7.46,3.35-12.11l-17.84,20.15A221.77,221.77,0,0,0,99.18,263c-10.62,6.89-22.78,25.6-29.44,41.21C96.82,323.37,130.62,336.88,169,336V287.54l-8.61-16.21A31.51,31.51,0,0,1,137.84,241.12Z"/><path class="cls-9" d="M237.13,263a246.15,246.15,0,0,0-22.33-12.57l.35-.66L206.9,239.3l-8.73-11.09a31.55,31.55,0,0,1-20.59,43.35L169,287.68V335.4c0,.56-.23.46-.1.46,35.67,0,70.76-11.84,96.79-31.27C259,288.47,248.25,270,237.13,263Z"/></g></g></svg>