<svg xmlns="http://www.w3.org/2000/svg" viewBox="0 0 336 336.09"><defs><style>.cls-1{fill:#d1495d;}.cls-2{fill:#c7374a;}.cls-3{fill:#fcc57f;}.cls-4{fill:#ffd8aa;}.cls-5{fill:#ffe6c8;}.cls-6{fill:#f4dbad;}.cls-7{fill:#2b388f;}.cls-8{fill:#fff;}.cls-9{fill:#f1f1f2;}.cls-10{fill:#bcbec0;}.cls-11{fill:#1b75bb;}.cls-12{fill:#939598;}.cls-13{fill:#484859;}.cls-14{fill:#353537;}.cls-15{fill:#e6e7e8;}</style></defs><g id="Layer_2" data-name="Layer 2"><g id="Layer_1-2" data-name="Layer 1"><path class="cls-1" d="M168,0a168,168,0,0,0,0,336c.82,0,1.62-.11,2.45-.12V.12C169.62.12,168.82,0,168,0Z"/><path class="cls-2" d="M336,168C336,76.05,262.08,1.45,170.45.12V335.88C262.08,334.55,336,259.94,336,168Z"/><polygon class="cls-3" points="198.81 209.12 198.81 198.58 141.71 198.58 141.71 237.42 198.81 209.12"/><path class="cls-4" d="M141.71,157.28v82.59c0,15.55,14.32,22.51,28.59,22.11V157.28Z"/><path class="cls-3" d="M198.81,239.87V157.28H170.3V262C184.58,261.55,198.81,253.78,198.81,239.87Z"/><path class="cls-5" d="M170.28,77.7c-120.93,0-71.92,159.72,0,159.72h0V77.7Z"/><path class="cls-6" d="M170.3,77.7V237.42C242.19,237.39,291.18,77.73,170.3,77.7Z"/><path class="cls-7" d="M172.25,70.65c34.93,0,62.61,32.89,67.82,45.19s6.52,14.57,5.56,27.83-14.58,22.75-15.85,8.35c-4.58-52.52-24.08-39.39-41.16-51.21-4.09-2.82-13.67,2-18.47,9.67V70.75C170.85,70.7,171.57,70.65,172.25,70.65Z"/><path class="cls-7" d="M248.57,139.36c-8.76,33.93-19.65,14.7-19.22.13S217.17,93,172.25,91.85c-.73,0-1.39.08-2.1.09V43.37C231.83,44.29,257.26,105.69,248.57,139.36Z"/><path class="cls-8" d="M169.07,252.23c-20-.26-39.59,4.64-72.51,26-8.72,5.64-15.86,16.11-22.24,28.88C100.23,323.23,130.06,334,162.81,334c2.54,0,5-.19,7.49-.3V252.27C169.9,252.26,169.49,252.23,169.07,252.23Z"/><path class="cls-9" d="M240.15,279.36c-32.44-20.33-50.67-26.62-69.85-27.09V333.7a168.15,168.15,0,0,0,91.17-31.5C253.17,292.17,247.5,284,240.15,279.36Z"/><path class="cls-10" d="M115.1,267.15c-5.7,3.08-11.85,6.74-18.54,11.08-8.72,5.64-15.86,16.11-22.24,28.88C99.69,325,125.3,333.18,156,336c2.52.23,12-.06,14.45-.17l.11-25-42.89-49.82C123.69,262.79,119.57,264.73,115.1,267.15Z"/><path class="cls-11" d="M137,103.76c-19.27,8.1-22.93,19.63-30.47,46.19-3,10.46-8.52,4.55-10.88-4s-1.21-18.74,4-28.21c-.87,1.62,41.79-44.79,70.65-47v39.73C161.64,97.38,143.64,100.94,137,103.76Z"/><path class="cls-12" d="M225.68,267.15c5.7,3.08,11.83,6.74,18.54,11.08,8.7,5.64,14.52,14,20.88,26.8-25.35,17.92-49.77,27.27-80.45,30.08-2.52.24-11.82.83-14.3.72l.11-25,42.65-49.82C217.09,262.79,221.23,264.73,225.68,267.15Z"/><polygon class="cls-9" points="170.26 251.11 141.6 237.42 123.45 262.95 133.61 288.83 170.26 254.81 170.26 251.11"/><polygon class="cls-13" points="156.01 268.05 163.67 273.6 156.78 294.86 170.51 310.87 170.51 254.81 156.01 268.05"/><polygon class="cls-14" points="185.03 268.05 177.37 273.6 184.23 294.78 170.51 310.87 170.51 254.81 185.03 268.05"/><polygon class="cls-15" points="198.81 237.95 170.26 251.11 170.26 254.61 205.44 289.36 217.12 262.86 198.81 237.95"/><path class="cls-11" d="M169,43.33v0h-.16l0,0c-18.37,0-36.3,4.37-44.73,17.37-2.48,3.82.42,10,.42,10-3.12-1.44-8.65-1-11.13,1.53C91.3,95,88.27,131.42,93.57,142.76c8.78,18.72,15.93,16.8,17.23-3.73,1.26-20.17,20.27-46.16,59.41-47.09V43.37C169.79,43.36,169.4,43.33,169,43.33Z"/><path class="cls-5" d="M90.44,132.66c-4.44,1-6.14,10-3.91,20.23s7.71,17.65,12.1,16.68,6.14-10,3.86-20.24-7.66-17.64-12-16.67"/><path class="cls-5" d="M247.82,132.66c4.41,1,6.13,10,3.88,20.23s-7.69,17.65-12.1,16.68-6.13-10-3.85-20.24,7.67-17.64,12.07-16.67"/></g></g></svg>