<?xml version="1.0" encoding="utf-8"?>
<!-- Generator: Adobe Illustrator 26.2.1, SVG Export Plug-In . SVG Version: 6.00 Build 0)  -->
<svg version="1.1" id="Layer_1" xmlns="http://www.w3.org/2000/svg" xmlns:xlink="http://www.w3.org/1999/xlink" x="0px" y="0px"
	 viewBox="0 0 1010.3 727.5" style="enable-background:new 0 0 1010.3 727.5;" xml:space="preserve">
<style type="text/css">
	.st0{fill:#F2371C;}
	.st1{fill:#F7941D;}
	.st2{fill:#DBDFE2;}
	.st3{fill:#FFFFFF;}
	.st4{fill:#CCCCCC;}
	.st5{fill:#F6F7F8;}
	.st6{fill:#FF9800;}
	.st7{fill:#E87A03;}
	.st8{fill:url(#SVGID_1_);}
</style>
<path class="st0" d="M1009.3,724H88.1c-0.6,0-1,0.4-1,1l0,0c0,0.6,0.4,1,1,1h921.2c0.6,0,1-0.4,1-1l0,0
	C1010.3,724.5,1009.9,724,1009.3,724z"/>
<path class="st0" d="M67.4,725.9H5.8c-0.6,0-1-0.4-1-1l0,0c0-0.6,0.4-1,1-1h61.6c0.6,0,1,0.4,1,1l0,0
	C68.4,725.5,68,725.9,67.4,725.9z"/>
<path class="st1" d="M187.3,297.4c-1.4-1.9-3.6-2.9-5.9-2.5c-2.3,0.4-4.3,1.5-5.8,3.3c-1.4,1.8-2.6,3.8-3.4,5.9
	c-1.5,3.5-2.3,7.2-2.1,11c-4.1-3.7-7.9-7.8-11.3-12.1c-0.3-0.4-0.6-0.8-0.9-1.2l9.7-6.7c2.2-1.4,4.2-3.2,5.8-5.2
	c1.4-2.2,2-5.2,0.5-7.4c-1.3-1.9-3.6-2.9-5.9-2.6c-2.3,0.4-4.3,1.5-5.8,3.3c-1.4,1.8-2.6,3.8-3.4,5.9c-1.6,3.6-2.3,7.4-2.1,11.3
	c-3.7-4.9-7-10.1-9.8-15.5l9.6-7.2c2.2-1.5,4.1-3.3,5.6-5.5c1.4-2.2,1.8-5.3,0.3-7.5c-1.4-1.8-3.7-2.7-6-2.4
	c-2.3,0.5-4.3,1.7-5.7,3.5c-1.4,1.8-2.4,3.8-3.1,6c-1.3,3.4-1.9,7.1-1.8,10.7c-2-4-3.7-8.1-5.1-12.3c-0.4-1.2-0.8-2.5-1.2-3.8
	l9.6-7.7c2.1-1.5,4-3.4,5.4-5.6c1.3-2.3,1.6-5.4,0-7.5c-1.5-1.8-3.8-2.6-6.1-2.1c-2.2,0.5-4.2,1.8-5.5,3.7c-1.3,1.9-2.3,3.9-2.9,6.1
	c-1.1,3.1-1.6,6.3-1.5,9.6c-1.1-4.3-2-8.7-2.6-13.1c1.5-3.7,3.1-7.4,4.6-11.1c1.2-2.4,1.9-4.9,2.1-7.6c0-2.6-1.2-5.5-3.5-6.6
	c-2.1-0.9-4.6-0.5-6.4,1c-1.7,1.5-2.8,3.6-3.1,5.9c-0.3,2.3-0.2,4.6,0.3,6.8c0.8,4.1,2.2,8.3,4.9,11.4l0,0c0.6,4.7,1.5,9.4,2.8,13.9
	c-2.1-2.7-4.6-5-7.5-6.8c-1.9-1.3-4-2.3-6.1-2.9c-2.2-0.6-4.6-0.4-6.6,0.7c-2.1,1.1-3.4,3.2-3.4,5.5c0.1,2.6,2.3,4.8,4.8,5.8
	c2.5,0.8,5.2,1.1,7.8,0.9l12-0.1c1.7,5.5,3.8,10.9,6.4,16.1c-2.7-2.3-5.9-4.1-9.4-5.1c-2.1-0.8-4.4-1.2-6.7-1.3
	c-2.3,0-4.5,0.8-6.3,2.3c-1.7,1.6-2.4,3.9-1.9,6.2c0.8,2.5,3.4,4.1,6,4.4c2.6,0.2,5.3-0.2,7.8-1l11.6-3.1c0.1,0.2,0.2,0.3,0.2,0.5
	c2.8,5.3,6,10.3,9.6,15.1c-3.4-2.2-7.3-3.5-11.3-3.8c-2.3-0.3-4.5-0.3-6.8,0.1c-2.3,0.4-4.3,1.7-5.7,3.5c-1.4,1.9-1.6,4.4-0.6,6.4
	c1.3,2.3,4.2,3.3,6.8,3.1c2.6-0.4,5.1-1.3,7.4-2.6l11.1-5.5l0.1,0.2v0.1l0.1-0.1c3.6,4.6,7.5,8.9,11.8,12.9
	c-3.6-0.6-7.2-0.5-10.8,0.3c-2.3,0.4-4.5,1.2-6.5,2.3c-2,1.1-3.6,3-4.4,5.2c-0.7,2.3-0.2,4.7,1.5,6.4c2,1.8,5.1,1.8,7.5,0.8
	c2.5-1.1,4.4-3,6.3-4.9l8.1-8.1l0.3-0.2c4.8,4.2,10,8,15.5,11.3c0.6,0.4,1.2-0.5,0.6-0.8c-5.4-3.2-10.5-6.9-15.3-11.1
	c3.1-2.1,6.1-4.3,9.2-6.4c2.3-1.4,4.2-3.1,5.8-5.2C188.2,302.6,188.8,299.6,187.3,297.4z"/>
<path class="st0" d="M159.2,437.5l-4.8,6.9c-2.1-7.4-4.2-14.9-7.8-21.7c-10.9-20.2-33.8-30.8-56-36.3c-22.2-5.5-45.6-7.5-66.6-16.6
	c-6-2.6-12.4-6.9-12.8-13.3c-0.1-1.3,0.1-2.7,0.5-3.9c10.3-0.6,20.6-0.5,30.8,0.2c16,1.1,31.8,4.5,46.8,10.1
	c12.4,4.7,23.9,11.4,34.3,19.7c10.2,8.2,18.8,18.2,25.3,29.6c3.2,5.9,5.9,12.1,7.9,18.5C157.7,432.8,158.4,435.2,159.2,437.5z"/>
<path class="st0" d="M166.3,427.2l-6.5,9.4l-0.6,0.8c-0.8-2.3-1.6-4.6-2.3-6.9c-2-6.4-4.7-12.6-7.9-18.5
	c-6.5-11.4-15.1-21.4-25.3-29.6c-10.3-8.3-21.9-14.9-34.3-19.6c-15-5.6-30.8-9-46.9-10.1c-10.3-0.7-20.6-0.8-30.8-0.2
	c0.1-0.3,0.2-0.6,0.3-0.8c1-2.5,2.6-4.7,4.6-6.5c9.4-9.1,23.5-11.3,36.5-10.9c40.8,1,80.5,23.7,102.1,58.3
	C161.7,403,166.8,414.9,166.3,427.2z"/>
<path class="st2" d="M159.8,436.6l-0.6,0.8c-0.8-2.3-1.6-4.6-2.3-6.9c-2-6.4-4.7-12.6-7.9-18.5c-6.5-11.4-15.1-21.4-25.3-29.6
	c-10.3-8.3-21.9-14.9-34.3-19.6c-15-5.6-30.8-9-46.9-10.1c-10.3-0.7-20.6-0.8-30.8-0.2c0.1-0.3,0.2-0.6,0.3-0.8
	c12.1-0.7,24.3-0.4,36.4,0.8c15.7,1.5,31,5.3,45.6,11.3c12.2,5.1,23.5,12.2,33.5,20.8c9.9,8.5,18.1,18.9,24.1,30.5
	c3.1,6.2,5.3,12.8,7.5,19.3C159.3,435.2,159.5,435.9,159.8,436.6z"/>
<path class="st0" d="M169.1,457.1l-1.7,8.2c-4.8-6-9.7-12.1-15.8-16.9c-18-14.2-43.2-15-65.8-11.3c-22.6,3.7-44.8,11.1-67.8,10.9
	c-6.5,0-14.1-1.4-17-7.2c-0.6-1.2-0.9-2.5-1.1-3.8c9.2-4.6,18.7-8.6,28.4-11.9c15.1-5.3,31-8.4,47-9.2c13.2-0.5,26.5,1,39.2,4.6
	c12.6,3.5,24.5,9.3,34.9,17.2c5.3,4.2,10.2,8.8,14.6,13.9C165.8,453.5,167.4,455.3,169.1,457.1z"/>
<path class="st0" d="M171.5,445l-2.2,11.2l-0.2,1c-1.6-1.8-3.2-3.6-4.9-5.5c-4.4-5.1-9.3-9.8-14.6-13.9
	c-10.4-7.9-22.3-13.7-34.9-17.2c-12.8-3.6-26-5.1-39.2-4.6c-16,0.8-31.9,3.9-47,9.2c-9.7,3.3-19.2,7.3-28.4,11.9
	c0-0.3-0.1-0.6-0.1-0.9c0-2.7,0.5-5.3,1.6-7.7c5.1-12,17.1-19.6,29.3-24.4c37.9-15.1,83.3-9.9,116.8,13.4
	C157.8,424.4,167.2,433.4,171.5,445z"/>
<path class="st2" d="M169.3,456.1l-0.2,1c-1.6-1.8-3.2-3.6-4.9-5.5c-4.4-5.1-9.3-9.8-14.6-13.9c-10.4-7.9-22.3-13.7-34.9-17.2
	c-12.8-3.6-26-5.1-39.2-4.6c-16,0.8-31.9,3.9-47,9.2c-9.7,3.3-19.2,7.3-28.4,11.9c0-0.3-0.1-0.6-0.1-0.9c10.9-5.4,22.2-10,33.8-13.6
	c15-4.8,30.6-7.3,46.3-7.5c13.2-0.1,26.4,1.9,39,6c12.5,4,24.1,10.3,34.1,18.6c5.3,4.5,9.9,9.6,14.5,14.8
	C168.2,455,168.8,455.6,169.3,456.1z"/>
<path class="st1" d="M785.3,176.8c0.7-2.2,3.6-3.1,5.8-2.4s3.8,2.7,5,4.7c1.8,3.2,3.1,6.7,4,10.2c0.6-3.5,1.3-6.9,2.1-10.3
	c0.5-2.3,1.1-4.5,1.8-6.7c-5-1.7-9.4-4.9-12.7-9.1c-1.2-1.6-2.3-3.6-1.7-5.5c0.7-2.2,3.6-3.1,5.8-2.4c2.2,0.9,3.9,2.6,5,4.7
	c1.8,3.3,3.2,6.9,4,10.6c2-6.9,4.6-13.6,7.7-20.1c-4.6-2.5-8.4-6.3-10.9-10.9c-0.9-1.8-1.7-3.9-0.8-5.7c1.1-2.1,4.1-2.5,6.1-1.4
	c2,1.3,3.5,3.2,4.2,5.4c1.2,3.5,1.9,7.1,2.1,10.7c3.4-6.8,7.5-13.4,13.2-18.5l0.4-0.3c-4.3-3.1-7.5-7.4-9.4-12.4
	c-0.7-1.9-1.1-4.1,0.1-5.8c1.4-1.9,4.4-1.9,6.3-0.6s2.8,3.7,3.4,6c0.8,3.9,1,7.9,0.6,11.9c6.7-5.6,14.4-10.1,20.9-16
	c-4.4-3.1-7.7-7.5-9.6-12.6c-0.7-1.9-1.1-4.1,0.1-5.8c1.4-1.9,4.4-1.9,6.3-0.6s2.8,3.7,3.4,6c0.8,4,1,8.1,0.6,12.2
	c1.6-1.5,3.1-3.1,4.5-4.8c2.8-3.5,4.9-7.6,6.1-11.9c-5.2-1.9-9.7-5.3-12.8-9.8c-1.2-1.6-2.1-3.7-1.4-5.6c0.8-2.2,3.7-3,5.9-2.1
	s3.7,2.8,4.8,4.9c1.8,3.7,3.1,7.7,3.8,11.8c1.9-7.1,2.2-14.5,0.7-21.7c-4.5-2.3-8.2-5.7-10.8-10c-1-1.7-1.9-3.8-1.1-5.7
	c1-2.1,3.9-2.7,6-1.8c2.1,1.2,3.6,3,4.5,5.2c1.4,3.3,2.3,6.8,2.8,10.4c0.1,0.1,0.2,0.2,0.2,0.4c1.4,5.9,1.6,12.1,0.7,18.1
	c-0.2,1.3-0.4,2.6-0.8,4c2.8-4,6.6-7.1,11-9.1c1.8-0.8,4-1.4,5.8-0.3c2,1.2,2.2,4.2,1,6.2s-3.5,3.1-5.7,3.8
	c-4.2,1.3-8.2,1.4-12.5,1.4c-0.7,2.7-1.8,5.4-3.1,7.8c-2.1,3.7-4.7,7-7.8,9.8c4.4-2.4,9.4-3.5,14.4-3.2c2,0.1,4.2,0.6,5.3,2.3
	c1.2,2,0,4.8-2,6s-4.5,1.1-6.8,0.7c-4.4-0.8-8.1-2.6-12.1-4.6c-5.1,4.6-11.1,8.4-16.5,12.5c-1.7,1.3-3.4,2.6-5,4
	c4.6-2.9,10-4.2,15.5-3.9c2,0.1,4.2,0.6,5.3,2.3c1.2,2,0,4.8-2,6s-4.5,1.1-6.8,0.7c-4.5-0.8-8.3-2.7-12.4-4.7
	c-1.7,1.5-3.3,3.2-4.7,4.9c-2.6,3.3-4.9,6.8-6.8,10.5c-0.5,1-1,2-1.5,3c3.9-3,8.6-4.8,13.5-5.2c2-0.2,4.3,0,5.6,1.5
	c1.5,1.8,0.8,4.7-1,6.2s-4.3,1.8-6.6,1.8c-4.3-0.1-8.2-1.3-12.2-2.6c-3,6.3-5.5,12.9-7.5,19.6c3.2-4,7.5-7,12.4-8.6
	c1.9-0.6,4.2-1,5.8,0.2c1.9,1.4,1.8,4.4,0.4,6.3s-3.8,2.7-6.1,3.2c-4.3,0.9-8.5,0.6-12.8,0.2c-0.3,0.9-0.5,1.8-0.8,2.7
	c-1.3,4.9-2.5,9.9-3.3,14.9c3.2-3.9,7.4-6.8,12.1-8.4c1.9-0.6,4.2-1,5.8,0.2c1.8,1.4,1.8,4.4,0.3,6.3s-3.8,2.7-6.1,3.2
	c-4.2,0.9-8.2,0.6-12.5,0.2c-0.9,5.7-1.4,11.5-1.5,17.4c0,1.2-1.9,1.1-1.9-0.1c0.1-5.9,0.6-11.7,1.5-17.5c-5.1-1.7-9.5-4.9-12.7-9.1
	C785.8,180.8,784.7,178.7,785.3,176.8z"/>
<path class="st0" d="M799.8,211.9l1,46.5c4.2-3.4,8.7-6.5,13.1-9.5c4.4-3,8.5-6.3,12.3-9.9c3.7-3.8,6.7-8.2,9-13
	c2.3-4.6,4.4-9.4,7.6-13.5c2.6-3.2,5.7-5.9,9.2-8c7.2-4.5,15.3-7.3,22.6-11.6c3.7-2.1,7.1-4.8,9.9-8c3.3-3.9,5.7-8.6,7.8-13.2
	c2-4.7,4.3-9.3,6.9-13.7c2.4-3.7,5.2-7,8.5-9.9c6.7-5.7,14.5-9.9,23-12.2c20.5-5.9,42.1-1.8,62.3,3.2l3.6,0.9
	c0.9-12.2-17.2-20.6-28.3-22c-7.6-1-15.2,2.1-22.8,2.3c-38.8,1.2-64.9-10.5-80.4,35.1c-1.7,5.1-3.2,10.6-6.7,14.6
	C842.2,186.1,798.5,178.4,799.8,211.9z"/>
<path class="st0" d="M835.5,304.7c32.1,9.5,62.4-19.7,39.9-53.7c-15.3-17.3,2.3-29.7,18.5-34.8c8-2.5,17.9-3.6,21.8-11
	c6.5-16.8-16.2-36.5,18.5-47c19.5-5.9,57.5,9.3,62.2-16.9c0-0.1,0-0.3,0.1-0.4c-19.2-4.9-39.4-9.5-59.2-5.7
	c-8.8,1.6-17.1,5-24.5,9.9c-3.6,2.5-6.8,5.4-9.6,8.8c-3,3.8-5.5,7.9-7.4,12.3c-2.2,4.6-4.1,9.4-6.7,13.8c-2.3,3.9-5.2,7.3-8.7,10.1
	c-6.4,5.1-14.1,8-21.4,11.6c-3.7,1.8-7.3,3.9-10.6,6.4c-3.6,3-6.6,6.7-8.7,10.8c-2.5,4.5-4.4,9.4-7.2,13.7c-2.8,4.2-6.2,7.9-10.1,11
	c-6.9,5.8-14.8,10.3-21.6,16.1C800.8,259.6,799.4,294,835.5,304.7z"/>
<path class="st0" d="M800.8,258.4v1.2c6.9-5.8,14.7-10.3,21.6-16.1c3.9-3.1,7.3-6.8,10.1-11c2.8-4.3,4.7-9.2,7.2-13.7
	c2.2-4.1,5.1-7.8,8.7-10.8c3.3-2.5,6.8-4.7,10.6-6.4c7.3-3.6,15-6.5,21.4-11.6c3.5-2.8,6.4-6.2,8.7-10.1c2.6-4.4,4.6-9.1,6.7-13.8
	c2-4.4,4.5-8.5,7.4-12.3c2.8-3.3,6-6.3,9.6-8.8c7.4-5,15.7-8.4,24.5-10c19.8-3.8,39.9,0.8,59.2,5.7c0-0.3,0.1-0.6,0.1-1l-3.6-0.9
	c-20.3-5-41.8-9.1-62.3-3.2c-8.5,2.3-16.3,6.5-23,12.2c-3.3,2.9-6.2,6.3-8.5,10c-2.6,4.4-4.9,9-6.9,13.7c-2.2,4.6-4.5,9.3-7.8,13.2
	c-2.8,3.2-6.2,5.9-9.9,8c-7.3,4.3-15.4,7-22.6,11.6c-3.5,2.1-6.6,4.8-9.2,8c-3.2,4.1-5.3,8.9-7.6,13.5c-2.3,4.8-5.3,9.2-9,13
	c-3.8,3.7-7.9,7-12.3,9.9C809.5,252,805,255,800.8,258.4z"/>
<path class="st1" d="M162.5,368.8h-0.2c-0.1,0-1.8-0.8-4.7-2.3c-0.3-0.1-0.4-0.5-0.2-0.8c0.1-0.3,0.5-0.4,0.8-0.2
	c2.9,1.5,4.6,2.2,4.6,2.2c0.3,0.1,0.4,0.4,0.3,0.7C162.9,368.7,162.7,368.8,162.5,368.8z"/>
<path class="st1" d="M149,361.4c-0.1,0-0.2,0-0.3-0.1c-2.9-1.8-5.8-3.8-8.5-5.8c-0.2-0.2-0.3-0.5-0.1-0.8c0.2-0.2,0.5-0.3,0.8-0.1
	c2.8,2,5.6,3.9,8.5,5.7c0.3,0.2,0.3,0.5,0.2,0.8c0,0,0,0,0,0l0,0C149.4,361.3,149.2,361.4,149,361.4z M132.4,349.4
	c-0.1,0-0.3,0-0.4-0.1c-2.6-2.2-5.2-4.5-7.6-6.9c-0.2-0.2-0.2-0.5,0-0.8l0,0c0.2-0.2,0.5-0.2,0.8,0c0,0,0,0,0,0l0,0
	c2.4,2.3,5,4.6,7.6,6.8c0.2,0.2,0.3,0.5,0.1,0.8c0,0,0,0,0,0l0,0C132.7,349.3,132.6,349.4,132.4,349.4z M117.8,335.1
	c-0.2,0-0.3-0.1-0.4-0.2c-2.3-2.6-4.5-5.3-6.5-8c-0.2-0.2-0.1-0.6,0.1-0.8c0.2-0.2,0.6-0.1,0.8,0.1c2,2.7,4.2,5.4,6.4,7.9
	c0.2,0.2,0.2,0.6,0,0.8c0,0,0,0,0,0l0,0C118,335,117.9,335.1,117.8,335.1z M105.5,318.7c-0.2,0-0.4-0.1-0.5-0.3
	c-1.8-2.9-3.5-5.9-5-9c-0.2-0.3-0.1-0.6,0.2-0.8c0.3-0.2,0.6-0.1,0.8,0.2c0,0,0,0,0,0.1c1.5,3,3.2,6,5,8.9c0.2,0.3,0.1,0.6-0.2,0.8
	c0,0,0,0,0,0l0,0C105.7,318.6,105.6,318.7,105.5,318.7z M96.3,300.4c-0.2,0-0.4-0.1-0.5-0.4c-1.2-3.2-2.4-6.5-3.3-9.7
	c-0.1-0.3,0.1-0.6,0.4-0.7c0.3-0.1,0.6,0.1,0.7,0.4l0,0c0.9,3.2,2,6.5,3.3,9.7c0.1,0.3,0,0.6-0.3,0.7c0,0,0,0,0,0l0,0
	C96.4,300.4,96.4,300.4,96.3,300.4z M90.6,280.7c-0.3,0-0.5-0.2-0.5-0.5c-0.6-3.3-1.1-6.8-1.5-10.2c0-0.3,0.2-0.6,0.5-0.6
	c0.3,0,0.6,0.2,0.6,0.5l0,0c0.3,3.4,0.8,6.8,1.5,10.1c0.1,0.3-0.1,0.6-0.4,0.6c0,0,0,0,0,0L90.6,280.7L90.6,280.7z M88.6,260.4
	c-0.3,0-0.5-0.2-0.5-0.5v-1.5c0-2.9,0.1-5.8,0.3-8.8c0-0.3,0.3-0.5,0.6-0.5c0,0,0,0,0,0c0.3,0,0.5,0.3,0.5,0.6c0,0,0,0,0,0l0,0
	c-0.2,2.9-0.3,5.8-0.3,8.7v1.6C89.2,260.1,88.9,260.4,88.6,260.4C88.6,260.4,88.6,260.4,88.6,260.4L88.6,260.4L88.6,260.4z
	 M89.9,239.9L89.9,239.9c-0.4,0-0.6-0.3-0.6-0.6l0,0c0.5-3.5,1-6.9,1.6-10.1c0.1-0.3,0.3-0.5,0.6-0.4c0.3,0.1,0.5,0.4,0.4,0.6
	c0,0,0,0,0,0l0,0c-0.6,3.2-1.1,6.6-1.6,10.1C90.4,239.7,90.2,239.9,89.9,239.9L89.9,239.9z M93.8,219.8h-0.1
	c-0.3-0.1-0.5-0.4-0.4-0.7c0.9-3.4,2-6.7,3.1-9.8c0.2-0.2,0.5-0.3,0.8-0.1c0.1,0.1,0.2,0.3,0.2,0.5c-1.1,3-2.2,6.3-3.1,9.7
	C94.2,219.7,94,219.8,93.8,219.8L93.8,219.8z M140.7,204.8c-1.5,0-2.9-0.3-4.2-0.9c-0.3-0.1-0.4-0.4-0.3-0.7l0,0
	c0.1-0.3,0.4-0.4,0.7-0.3c3,1.3,6.5,0.9,9.2-1c0.3-0.2,0.6-0.1,0.8,0.1c0.2,0.2,0.1,0.6-0.1,0.8c0,0,0,0,0,0l0,0
	C145,204.2,142.9,204.8,140.7,204.8L140.7,204.8z M101,200.7c-0.1,0-0.2,0-0.2-0.1c-0.3-0.1-0.4-0.5-0.2-0.7c0,0,0,0,0,0l0,0
	c1.6-3.1,3.4-6,5.5-8.8c0.2-0.2,0.5-0.3,0.7-0.1c0,0,0,0,0,0l0,0c0.2,0.2,0.3,0.5,0.1,0.8c-2,2.7-3.8,5.6-5.4,8.6
	C101.4,200.6,101.2,200.7,101,200.7L101,200.7z M129.6,196.9c-0.2,0-0.4-0.1-0.5-0.3c-1.6-3.1-2.6-6.4-3.1-9.9
	c0-0.3,0.2-0.6,0.5-0.6s0.6,0.2,0.6,0.5c0.5,3.3,1.5,6.6,3,9.5c0.1,0.3,0,0.6-0.2,0.8l0,0C129.8,196.9,129.7,196.9,129.6,196.9
	L129.6,196.9z M151.6,194.4h-0.1c-0.3-0.1-0.4-0.3-0.4-0.6c0.2-1.1,0.3-2.2,0.3-3.4v-1.3c-0.1-1.7-0.7-3.3-1.7-4.8
	c-0.2-0.3-0.1-0.6,0.1-0.8c0.3-0.2,0.6-0.1,0.8,0.2l0,0c1.1,1.6,1.7,3.4,1.9,5.3v1.4c0,1.2-0.1,2.4-0.3,3.6
	C152.1,194.3,151.9,194.5,151.6,194.4L151.6,194.4z M113.4,184.6c-0.2,0-0.3-0.1-0.4-0.2c-0.2-0.2-0.2-0.5,0-0.8l0,0
	c2.6-2.3,5.6-4.1,8.8-5.5c0.3-0.1,0.6,0.1,0.7,0.4c0,0.2,0,0.4-0.2,0.6c-3.1,1.3-6,3.1-8.5,5.3C113.6,184.5,113.5,184.6,113.4,184.6
	L113.4,184.6z M142.1,178.5h-0.2c-3.1-1.2-6.5-1.7-9.8-1.6c-0.3,0-0.5-0.2-0.6-0.5c0-0.3,0.2-0.6,0.5-0.6h1.2c3.1,0,6.2,0.6,9.1,1.7
	c0.3,0.1,0.4,0.4,0.3,0.7c0,0,0,0,0,0C142.6,178.4,142.4,178.6,142.1,178.5L142.1,178.5z M126,177L126,177c-0.3,0-0.5-0.3-0.5-0.6
	l0,0v-0.5c0.1-3.3,0.4-6.6,0.9-9.8c0.1-0.3,0.3-0.5,0.6-0.5c0.3,0,0.5,0.3,0.5,0.6c0,0,0,0,0,0l0,0c-0.5,3.2-0.8,6.4-0.9,9.6v0.5
	C126.5,176.7,126.3,177,126,177L126,177L126,177z M129,156.7h-0.1c-0.3-0.1-0.5-0.4-0.4-0.7c0.9-3.3,2-6.6,3.2-9.8
	c0.2-0.3,0.5-0.3,0.8-0.2c0.2,0.1,0.3,0.3,0.2,0.6l0,0c-1.2,3.2-2.3,6.4-3.1,9.7C129.4,156.6,129.2,156.8,129,156.7L129,156.7z
	 M136.4,137.6c-0.1,0-0.2,0-0.2-0.1c-0.3-0.1-0.4-0.5-0.2-0.8c1.6-3.1,3.3-6,5.2-8.9c0.2-0.2,0.5-0.3,0.7-0.2l0,0
	c0.3,0.2,0.3,0.5,0.2,0.8c0,0,0,0,0,0l0,0c-1.9,2.8-3.6,5.8-5.1,8.8C136.7,137.5,136.5,137.6,136.4,137.6L136.4,137.6z M147.6,120.5
	c-0.1,0-0.3,0-0.4-0.1c-0.2-0.2-0.3-0.5-0.1-0.8l0,0c2.2-2.6,4.5-5.2,7-7.6c0.2-0.2,0.6-0.2,0.8,0c0.2,0.2,0.2,0.6,0,0.8l0,0
	c-2.4,2.4-4.7,4.9-6.9,7.5C147.9,120.5,147.7,120.6,147.6,120.5L147.6,120.5z M162.3,106.3c-0.2,0-0.3-0.1-0.4-0.2
	c-0.2-0.2-0.1-0.6,0.1-0.8c2.7-2.1,5.5-4.1,8.4-5.9c0.2-0.2,0.6-0.1,0.7,0.1c0,0,0,0,0,0l0,0c0.2,0.3,0.1,0.6-0.2,0.8
	c-2.9,1.8-5.7,3.8-8.3,5.9C162.5,106.2,162.4,106.3,162.3,106.3L162.3,106.3z M405.9,95.7h-4.3c-0.3,0-0.5-0.2-0.5-0.5l0,0
	c0-0.3,0.3-0.5,0.5-0.5h4.4c2,0,3.9,0,5.8-0.1c0.3,0,0.5,0.3,0.5,0.6c0,0.3-0.2,0.4-0.5,0.5C409.9,95.7,408,95.7,405.9,95.7
	L405.9,95.7z M391.4,95.4L391.4,95.4c-3.3-0.1-6.8-0.3-10.2-0.6c-0.3-0.1-0.5-0.3-0.5-0.6c0-0.3,0.3-0.5,0.5-0.5
	c3.5,0.2,6.9,0.4,10.2,0.6c0.3,0,0.5,0.2,0.5,0.6S391.7,95.4,391.4,95.4L391.4,95.4z M179.5,95.4c-0.2,0-0.4-0.1-0.5-0.3
	c-0.1-0.3,0-0.6,0.2-0.7c0,0,0,0,0,0l0,0c3-1.5,6.1-3,9.4-4.3c0.3-0.1,0.6,0.1,0.7,0.4c0,0,0,0,0,0c0.1,0.2,0,0.5-0.2,0.6
	c-3.2,1.3-6.3,2.7-9.3,4.2C179.7,95.3,179.6,95.3,179.5,95.4L179.5,95.4z M422.1,95.2c-0.3,0-0.5-0.2-0.5-0.5c0-0.3,0.2-0.6,0.5-0.6
	l0,0c3.5-0.2,6.9-0.5,10.2-0.8c0.3,0,0.6,0.2,0.6,0.5l0,0c0,0.3-0.2,0.6-0.5,0.6C429.1,94.7,425.6,95,422.1,95.2L422.1,95.2z
	 M370.9,94L370.9,94c-3.3-0.3-6.8-0.6-10.2-1c-0.3,0-0.5-0.3-0.5-0.6l0,0c0-0.3,0.3-0.5,0.6-0.5c3.4,0.4,6.9,0.7,10.2,1
	c0.3,0.1,0.5,0.3,0.5,0.6C371.4,93.8,371.2,94,370.9,94L370.9,94z M442.5,93.1c-0.3,0-0.6-0.2-0.6-0.5c0-0.3,0.2-0.6,0.5-0.6
	c3.5-0.6,6.8-1.2,10-1.9c0.3-0.1,0.6,0.1,0.7,0.4c0.1,0.3-0.1,0.6-0.4,0.7C449.4,91.9,446,92.5,442.5,93.1L442.5,93.1z M350.5,91.7
	L350.5,91.7c-3.4-0.4-6.8-0.9-10.2-1.4c-0.3-0.1-0.5-0.3-0.5-0.6c0-0.3,0.3-0.5,0.6-0.5c0,0,0,0,0,0l0,0c3.4,0.5,6.8,1,10.1,1.4
	c0.3,0,0.5,0.3,0.5,0.6C351.1,91.5,350.9,91.7,350.5,91.7L350.5,91.7z M330.3,88.7h-0.2c-3.3-0.5-6.7-1.1-10.1-1.7
	c-0.3-0.1-0.5-0.3-0.5-0.6c0.1-0.3,0.3-0.5,0.6-0.4c3.4,0.6,6.8,1.2,10.1,1.7c0.3,0,0.5,0.3,0.5,0.6c0,0,0,0,0,0l0,0
	C330.7,88.5,330.5,88.7,330.3,88.7L330.3,88.7z M462.4,88.4c-0.2,0-0.4-0.2-0.5-0.4c-0.1-0.3,0.1-0.6,0.3-0.7c0,0,0,0,0,0l0,0
	c3.2-1,6.4-2.3,9.5-3.7c0.3-0.1,0.6,0,0.7,0.3s0,0.6-0.3,0.7c-3.1,1.4-6.3,2.7-9.6,3.8C462.5,88.4,462.4,88.4,462.4,88.4L462.4,88.4
	z M198.5,87.6c-0.2,0-0.5-0.2-0.5-0.4c-0.1-0.3,0.1-0.6,0.4-0.7c0,0,0,0,0,0l0,0c3.2-1,6.5-1.9,9.9-2.8c0.3-0.1,0.6,0,0.7,0.3
	c0,0,0,0,0,0c0.1,0.3,0,0.6-0.3,0.7h-0.1c-3.4,0.8-6.7,1.7-9.8,2.7C198.6,87.6,198.5,87.6,198.5,87.6L198.5,87.6z M310.1,85.1
	L310.1,85.1c-3.5-0.6-6.9-1.1-10.2-1.6c-0.3,0-0.5-0.3-0.5-0.6c0,0,0,0,0,0c0-0.3,0.3-0.5,0.6-0.5c0,0,0,0,0,0
	c3.3,0.5,6.7,1,10.1,1.6c0.3,0.1,0.5,0.3,0.5,0.6C310.6,84.9,310.3,85.1,310.1,85.1L310.1,85.1z M218.3,82.8c-0.3,0-0.6-0.2-0.6-0.5
	c0,0,0,0,0,0c0-0.3,0.2-0.6,0.5-0.6c0,0,0,0,0,0c3.3-0.6,6.7-1.1,10.2-1.5c0.3,0,0.6,0.2,0.6,0.5c0,0.3-0.1,0.5-0.4,0.6h-0.1
	c-3.4,0.4-6.8,0.9-10.1,1.5L218.3,82.8z M289.8,82.2L289.8,82.2c-3.5-0.4-6.9-0.8-10.2-1.1c-0.3,0-0.5-0.3-0.5-0.6c0,0,0,0,0,0l0,0
	c0-0.3,0.3-0.5,0.6-0.5c3.3,0.3,6.8,0.7,10.2,1.1c0.3,0,0.5,0.3,0.5,0.6C290.3,81.9,290,82.1,289.8,82.2L289.8,82.2z M238.6,80.4
	c-0.3,0-0.5-0.3-0.5-0.6c0-0.3,0.2-0.4,0.5-0.5c3.3-0.2,6.8-0.4,10.3-0.4l0,0c0.3,0,0.5,0.3,0.5,0.6c0,0.3-0.2,0.4-0.5,0.5
	C245.4,80,242,80.2,238.6,80.4L238.6,80.4z M269.4,80.3L269.4,80.3c-3.5-0.2-6.9-0.3-10.2-0.4c-0.3,0-0.5-0.3-0.5-0.6c0,0,0,0,0,0
	l0,0c0-0.3,0.2-0.5,0.5-0.6c3.4,0.1,6.8,0.2,10.3,0.4c0.3,0,0.5,0.2,0.5,0.6S269.7,80.3,269.4,80.3L269.4,80.3z"/>
<path class="st1" d="M481,79.3c-0.2,0-0.3-0.1-0.4-0.2c-0.2-0.2-0.2-0.6,0.1-0.7c0,0,0,0,0,0l0,0c1.4-1,2.6-2.1,3.7-3.4
	c0.2-0.3,0.5-0.3,0.8-0.1s0.3,0.5,0.1,0.8c-1.1,1.4-2.4,2.6-3.9,3.6C481.2,79.3,481.1,79.3,481,79.3z"/>
<polygon class="st1" points="479.9,79 494.5,70.6 485.5,66 "/>
<polygon class="st1" points="495,73.7 509.7,56 486.2,69.9 "/>
<polygon class="st1" points="509.7,56 472.5,60.9 480.9,65.1 "/>
<polygon class="st1" points="509.7,56 486.2,70 479.9,79 480.9,65 "/>
<rect x="166.6" y="193.8" class="st3" width="701.1" height="373.2"/>
<rect x="456.4" y="584.1" class="st2" width="118.6" height="104.4"/>
<path class="st4" d="M575.1,584.1v104.4h-16c1.1-10.4,2.4-41.8-19.3-65.9c-20.1-22.3-63.3-24.8-83.4-24.6v-13.8H575.1z"/>
<path class="st2" d="M634.8,688.4H396.7c-19.6,0-35.5,15.9-35.5,35.6h309.3C670.4,704.4,654.5,688.5,634.8,688.4L634.8,688.4z"/>
<path class="st2" d="M859.4,179.6H172.1c-5.7,0-10.3,4.5-10.3,10.2c0,0,0,0,0,0v389.8c0,5.6,4.6,10.2,10.2,10.2c0,0,0,0,0,0h687.4
	c5.6,0,10.2-4.6,10.2-10.2V189.8C869.7,184.2,865.2,179.6,859.4,179.6L859.4,179.6L859.4,179.6z M858,540.3c0,6.1-5,11-11.1,10.9
	H180.4c-6.1,0-11-4.8-11.1-10.9V204.7c0.1-6.1,5-10.9,11.1-10.9H847c6.1,0,11,4.9,11.1,10.9L858,540.3z"/>
<path class="st5" d="M634.8,688.4H396.7c-10.6,0-20.7,4.8-27.5,13c4.4-1.9,9.2-2.9,14-2.9h238.2c15.8,0,29.6,10.4,34.1,25.5h14.9
	C670.4,704.4,654.5,688.5,634.8,688.4L634.8,688.4z"/>
<path class="st0" d="M783.1,130.5H248.4c-16.5,0-29.9,12.7-29.9,28.4v320.6c0,15.7,13.4,28.4,29.9,28.4h534.7
	c16.5,0,29.9-12.8,29.9-28.4V158.8C813,143.2,799.6,130.5,783.1,130.5z M804.8,477.2c0,13.8-13,25-29.1,25H255.8
	c-16,0-29.1-11.2-29.1-25v-282c0-13.8,13-25,29.1-25h519.8c16.1,0,29.1,11.2,29.1,25L804.8,477.2z"/>
<path class="st3" d="M804.7,195.2v282c0,13.8-13,25-29.1,25H255.8c-16,0-29.1-11.2-29.1-25v-282c0-13.8,13-25,29.1-25h519.8
	C791.7,170.1,804.7,181.4,804.7,195.2z"/>
<path class="st3" d="M310.6,150.8c-0.3-2.3-2.4-4-4.7-3.7c-2.3,0.3-4,2.4-3.7,4.7c0.3,2.1,2.1,3.7,4.2,3.7
	C308.8,155.4,310.7,153.3,310.6,150.8z"/>
<path class="st3" d="M289.3,150.8c-0.3-2.3-2.4-4-4.7-3.7c-2.3,0.3-4,2.4-3.7,4.7c0.3,2.1,2.1,3.7,4.2,3.7
	C287.5,155.4,289.4,153.3,289.3,150.8z"/>
<path class="st3" d="M268,150.8c-0.3-2.3-2.4-4-4.7-3.7c-2.3,0.3-4,2.4-3.7,4.7c0.3,2.1,2.1,3.7,4.2,3.7
	C266.2,155.4,268.1,153.3,268,150.8z"/>
<path class="st3" d="M668.6,155.6h103.7c2.7,0,4.8-2.1,4.9-4.7c0,0,0,0,0,0l0,0c0-2.7-2.2-4.8-4.9-4.7c0,0,0,0,0,0H668.6
	c-2.7,0-4.8,2.1-4.9,4.7c0,0,0,0,0,0l0,0C663.8,153.5,666,155.6,668.6,155.6C668.6,155.6,668.6,155.6,668.6,155.6z"/>
<rect x="277" y="204.9" class="st2" width="268.6" height="113.6"/>
<rect x="368.3" y="395.6" class="st2" width="23.4" height="27.3"/>
<rect x="398.8" y="395.6" class="st2" width="23.4" height="27.3"/>
<rect x="368.3" y="439" class="st2" width="23.4" height="27.3"/>
<rect x="398.8" y="439" class="st2" width="23.4" height="27.3"/>
<rect x="704.8" y="395.6" class="st2" width="23.4" height="27.3"/>
<rect x="735.3" y="395.6" class="st2" width="23.4" height="27.3"/>
<rect x="704.8" y="439" class="st2" width="23.4" height="27.3"/>
<rect x="735.3" y="439" class="st2" width="23.4" height="27.3"/>
<path class="st2" d="M535.2,349.3H279.9c-1.3,0-2.4-1.8-2.4-3.9l0,0c0-2.1,1.1-3.9,2.4-3.9h255.4c1.3,0,2.5,1.8,2.5,3.9l0,0
	C537.7,347.5,536.6,349.3,535.2,349.3z"/>
<path class="st2" d="M535.2,367.3H279.9c-1.3,0-2.4-1.7-2.4-3.9l0,0c0-2.2,1.1-3.9,2.4-3.9h255.4c1.3,0,2.5,1.8,2.5,3.9l0,0
	C537.7,365.6,536.6,367.3,535.2,367.3z"/>
<rect x="450.1" y="395.6" class="st2" width="234.2" height="70.7"/>
<rect x="586.4" y="206.8" class="st2" width="68.6" height="60.2"/>
<rect x="684.3" y="206.8" class="st2" width="68.6" height="60.2"/>
<rect x="586.4" y="287.9" class="st2" width="68.6" height="60.2"/>
<rect x="684.3" y="287.9" class="st2" width="68.6" height="60.2"/>
<rect x="281.1" y="394.5" class="st2" width="75.9" height="71.8"/>
<path class="st0" d="M230.3,346.8h-43c-16.1,0-29.2,13-29.2,29.2c0,0,0,0,0,0v61.4h14v-59.6c0-9.4,7.6-17,17-17h39.5
	c9.4,0,17,7.6,17,17v59.6h13.9V376C259.6,359.9,246.5,346.8,230.3,346.8L230.3,346.8L230.3,346.8z"/>
<path class="st1" d="M126.4,432.8v22.4c0,45.5,36.9,82.4,82.4,82.4l0,0c45.5,0,82.4-36.9,82.4-82.4v-22.4
	c0-13.4-10.9-24.2-24.2-24.2H150.7C137.3,408.6,126.4,419.4,126.4,432.8z"/>
<circle class="st3" cx="211.6" cy="469.5" r="34.4"/>
<circle class="st1" cx="211.6" cy="469.6" r="29.9"/>
<path class="st3" d="M218.6,462.9c0-3.9-3.1-7-7-7s-7,3.1-7,7c0,2.4,1.3,4.7,3.4,6l-1.3,16c-0.1,0.6,0.4,1.2,1,1.2h7.6
	c0.6,0,1.1-0.5,1.1-1.1v-0.1l-1.3-16C217.3,467.7,218.6,465.4,218.6,462.9z"/>
<path class="st0" d="M203.4,724.5c0,0.8,0.6,1.5,1.4,1.5c0,0,0,0,0,0h2.5c0.6,0,1.1-0.5,1.1-1.1V720c0-0.6-0.5-1.1-1.1-1.1h-1.6
	c-0.8,0-1.5-0.7-1.5-1.5v-7.9c0-0.8,0.7-1.5,1.5-1.5h1.1c0.9,0,1.6-0.7,1.6-1.6l0,0l0,0v-6.5h59.7v0.6c0.1,1.4,1.3,2.4,2.7,2.3
	c1.2-0.1,2.2-1.1,2.3-2.3v-0.6h6.3v0.6c0.1,1.4,1.3,2.4,2.7,2.3c1.2-0.1,2.2-1.1,2.3-2.3v-0.6h0.8c4.3,2.8,11.8,4.7,20.3,4.7
	c8.5,0,16-1.9,20.3-4.7l0,0v0.6c-0.1,1.4,0.9,2.6,2.3,2.7c1.4,0.1,2.6-0.9,2.7-2.3c0-0.1,0-0.3,0-0.5v-0.6h5.4v0.6
	c0.1,1.4,1.3,2.4,2.7,2.3c1.2-0.1,2.2-1.1,2.3-2.3v-0.6h43.8v0.6c0.1,1.4,1.3,2.4,2.7,2.3c1.2-0.1,2.2-1.1,2.3-2.3v-0.4
	c1.8,0.9,3.8,0.9,5.6,0c-1.7,5.4-0.9,11.4,2.3,16.1l-0.1,0.1c-1,1.1-0.8,2.8,0.3,3.8c1,0.8,2.4,0.9,3.4,0.1c7.3,6,17.9,5.7,24.8-0.8
	c1.1,1,2.8,1,3.8-0.1c1-1,1-2.6,0-3.7l-0.5-0.5c2.6-4.6,3.2-10.1,1.6-15.1c1.8,0.9,3.8,0.9,5.6,0v0.4c-0.1,1.4,1,2.6,2.4,2.6
	c1.4,0.1,2.6-1,2.6-2.4l3,3c0.7,0.6,1.7,0.6,2.4,0l7.8-7.8c0.6-0.7,0.6-1.7,0-2.4l-7.8-7.8c-0.7-0.6-1.7-0.6-2.4,0l-3,3v-0.1
	c-0.1-1.4-1.3-2.4-2.7-2.3c-1.2,0.1-2.2,1.1-2.3,2.3c-1.7-0.8-3.8-0.8-5.5,0c0.5-1.8,0.8-3.6,0.8-5.5c0-3.3-0.9-6.5-2.5-9.3l0.5-0.5
	c1-1.1,0.9-2.8-0.3-3.8c-1-0.9-2.6-0.9-3.6,0c-6.9-6.5-17.5-6.8-24.8-0.8c-1.2-0.9-2.9-0.7-3.8,0.4c-0.8,1-0.8,2.5,0.1,3.5l0.1,0.1
	c-3.2,4.7-4,10.6-2.3,16c-1.8-0.9-3.8-0.9-5.6,0v-0.1c-0.1-1.4-1.3-2.4-2.7-2.3c-1.2,0.1-2.2,1.1-2.3,2.3v0.4h-43.8v-0.4
	c-0.1-1.4-1.3-2.4-2.7-2.3c-1.2,0.1-2.2,1.1-2.3,2.3v0.4h-5.4v-0.4c-0.1-1.4-1.3-2.4-2.7-2.3c-1.2,0.1-2.2,1.1-2.3,2.3l0,0
	c-4.3-2.8-11.8-4.7-20.3-4.7c-8.9,0-16.7,2-20.9,5.1h-0.2v-0.4c-0.1-1.4-1.3-2.4-2.7-2.3c-1.2,0.1-2.2,1.1-2.3,2.3v0.4h-6.3v-0.4
	c-0.1-1.4-1.3-2.4-2.7-2.3c-1.2,0.1-2.2,1.1-2.3,2.3v0.4h-106c-3,0-5.4,2.4-5.4,5.3c0,3,2.4,5.4,5.4,5.4l0,0h6.7v6.7
	c0,0.8,0.6,1.4,1.4,1.5c0,0,0,0,0,0l0,0c0.8,0,1.6,0.6,1.6,1.4c0,0,0,0.1,0,0.1v7.9c0,0.8-0.7,1.5-1.5,1.5c-0.8,0-1.5,0.6-1.5,1.4
	v4.1c0,0.8,0.6,1.4,1.4,1.4c0,0,0,0,0,0h1.6c0.8,0,1.5-0.7,1.5-1.5l0,0l0,0c0-0.8,0.7-1.5,1.5-1.5h3.8c0.8,0,1.5,0.7,1.5,1.5l0,0
	l0,0c0,0.8,0.7,1.5,1.5,1.5h2.3c0.9,0,1.7-0.8,1.7-1.7l0,0v-3.6c0-0.9-0.8-1.7-1.7-1.7h-1.2c-0.7,0-1.3-0.6-1.3-1.3l0,0l0,0v-6.1
	c0-3.8,3-6.8,6.7-6.9c3.7,0,6.7,3,6.6,6.7v6.4c0,0.7-0.6,1.3-1.3,1.3h0l0,0c-0.9,0-1.7,0.8-1.7,1.7l0,0v3.6c0,0.9,0.8,1.7,1.7,1.7
	h1.7c0.8,0,1.5-0.7,1.5-1.5c0-0.8,0.6-1.5,1.4-1.5c0,0,0,0,0,0h3.8c0.8,0,1.5,0.6,1.5,1.5C203.4,724.4,203.4,724.4,203.4,724.5
	L203.4,724.5z M402.4,677.5c1.3,0.7,3,0.2,3.7-1.1c0.5-1,0.4-2.2-0.3-3c5-4,12.2-3.7,16.8,0.7c-0.5,1.1-0.3,2.4,0.6,3.2l0,0
	c0.6,0.5,1.4,0.8,2.1,0.7c2.2,4.9,1.1,10.6-2.7,14.3l-2.3,2.2l2.3,2.2c3.9,3.7,5,9.4,2.8,14.3c-0.8-0.1-1.6,0.2-2.1,0.7l0,0
	c-0.9,0.8-1.1,2.1-0.6,3.2c-4.6,4.5-11.8,4.8-16.8,0.7l0,0c1-1.1,0.8-2.9-0.3-3.8c-0.8-0.7-2-0.8-3-0.3c-2.5-4.9-1.5-10.9,2.5-14.8
	l2.3-2.2l-2.3-2.2C400.9,688.4,399.9,682.4,402.4,677.5L402.4,677.5z"/>
<path class="st0" d="M403.8,677.7c0.6,0,1.1-0.3,1.6-0.6c0.1-0.1,0.1-0.1,0.2-0.2c-0.4,0-0.9-0.1-1.3-0.3
	C404.2,677,404,677.4,403.8,677.7z"/>
<path class="st0" d="M282.1,702.9c1.4,0,2.5-1.1,2.5-2.5l0,0l0,0v-0.5c-0.2,0.1-0.5,0.1-0.7,0.1c-1.4,0-2.5-1.1-2.5-2.5c0,0,0,0,0,0
	l0,0v-0.6h-6.3v0.6c0,0.9-0.5,1.8-1.4,2.2h5.9v0.6C279.6,701.8,280.8,702.9,282.1,702.9C282.2,702.9,282.2,702.9,282.1,702.9
	L282.1,702.9z"/>
<path class="st0" d="M338.2,697.5v-0.6h-5.4v0.6c0,0.9-0.5,1.8-1.4,2.2h5v0.6c0.1,1.4,1.3,2.4,2.7,2.3c1.2-0.1,2.2-1.1,2.3-2.3v-0.5
	c-0.2,0.1-0.5,0.1-0.7,0.1C339.3,700,338.2,698.9,338.2,697.5z"/>
<path class="st0" d="M413.7,670.5c3.3,0,6.4,1.3,8.8,3.6c-0.7,1.3-0.1,2.9,1.2,3.6c0,0,0,0,0,0c0.5,0.2,1,0.3,1.5,0.3
	c2.2,4.9,1.1,10.6-2.7,14.3l-2.3,2.2l2.3,2.2c3.7,3.6,4.9,9.1,2.9,13.9c0.5-0.3,1.1-0.5,1.8-0.4c2.2-4.9,1.1-10.6-2.7-14.3l-2.3-2.2
	l2.3-2.2c3.9-3.7,5-9.5,2.7-14.3c-1.5,0.2-2.8-0.9-3-2.3c0,0,0,0,0,0c-0.1-0.5,0-1,0.3-1.5c-3.9-3.8-9.9-4.7-14.8-2.1
	C411,670.7,412.3,670.5,413.7,670.5z"/>
<path class="st0" d="M428.3,716.5c-6.9,6.5-17.5,6.8-24.8,0.8c-1.2,0.9-2.9,0.6-3.8-0.6c-0.8-1-0.7-2.4,0.1-3.4l0.1-0.1
	c-3.2-4.7-4-10.7-2.3-16.1c-0.9,0.4-1.8,0.6-2.8,0.6c-1,0-2-0.2-2.8-0.7v0.4c-0.1,1.4-1.3,2.4-2.7,2.3c-1.2-0.1-2.2-1.1-2.3-2.3
	v-0.6h-43.8v0.6c0,0.9-0.5,1.8-1.4,2.2h43.4v0.6c0.1,1.4,1.3,2.4,2.7,2.3c1.2-0.1,2.2-1.1,2.3-2.3V700c1.8,0.9,3.8,0.9,5.6,0
	c-1.7,5.4-0.9,11.4,2.3,16.1l-0.1,0.1c-1,1.1-0.8,2.8,0.3,3.8c1,0.8,2.4,0.9,3.4,0.1c7.3,6,17.9,5.7,24.8-0.8c1.1,1,2.8,1,3.8-0.1
	c0.6-0.6,0.8-1.4,0.7-2.2C430.1,717.4,429.1,717.2,428.3,716.5z"/>
<path class="st0" d="M424.9,710.9c-0.7,0-1.3,0.2-1.8,0.7c-0.9,0.8-1.1,2.1-0.6,3.2c-0.8,0.8-1.8,1.5-2.8,2c1.8-0.6,3.4-1.6,4.7-2.9
	C424,712.9,424.2,711.8,424.9,710.9z"/>
<path class="st0" d="M326,699.8v0.6c-0.1,1.4,0.9,2.6,2.3,2.7c1.4,0.1,2.6-0.9,2.7-2.3c0-0.1,0-0.3,0-0.5V700
	c-0.2,0.1-0.5,0.1-0.7,0.1c-1.4,0-2.5-1.1-2.5-2.5c0,0,0,0,0,0l0,0V697l0,0c-4.3,2.8-11.8,4.7-20.3,4.7c-8.5,0-16-1.9-20.3-4.7h-0.8
	v0.6c0,0.9-0.5,1.8-1.4,2.2h0.4c4.3,2.8,11.8,4.7,20.3,4.7C314.2,704.5,321.7,702.7,326,699.8L326,699.8z"/>
<path class="st0" d="M395.1,685.2c0.9,0,1.7,0.2,2.5,0.6c-1.7-5.4-0.8-11.3,2.3-16l-0.1-0.1c-0.4-0.4-0.6-0.9-0.6-1.5
	c-0.3,0.1-0.6,0.3-0.8,0.5c-1.1,1-1.3,2.7-0.3,3.8l0.1,0.1C395.7,676.4,394.6,680.8,395.1,685.2L395.1,685.2z"/>
<path class="st0" d="M172.2,716.1c0.8,0,1.5-0.7,1.5-1.5v-7.9c0-0.8-0.7-1.5-1.5-1.5c0,0,0,0,0,0h-0.1c-0.8,0-1.4-0.7-1.4-1.4
	c0,0,0,0,0,0v-6.7H164c-3,0-5.3-2.4-5.4-5.3c0-0.4,0.1-0.9,0.2-1.3c-2.3,1.9-2.6,5.3-0.7,7.5c1,1.2,2.5,1.9,4.1,1.9h6.7v6.7
	c0,0.8,0.6,1.4,1.4,1.5c0,0,0,0,0,0l0,0c0.8,0,1.6,0.6,1.6,1.4c0,0,0,0.1,0,0.1v6.6C172,716.1,172.1,716.1,172.2,716.1z"/>
<path class="st0" d="M185.7,724.2v-1.1h-2.3c-0.8,0-1.5-0.7-1.5-1.5l0,0l0,0c0-0.8-0.7-1.5-1.5-1.5l0,0h-3.8c-0.8,0-1.5,0.7-1.5,1.5
	l0,0l0,0c0,0.8-0.7,1.5-1.5,1.5h-1.6c-0.8,0-1.4-0.7-1.4-1.5v-2.8h-0.3c-0.8,0-1.5,0.6-1.5,1.4v4.1c0,0.8,0.6,1.4,1.4,1.4
	c0,0,0,0,0,0h1.6c0.8,0,1.5-0.7,1.5-1.5l0,0l0,0c0-0.8,0.7-1.5,1.5-1.5h3.8c0.8,0,1.5,0.7,1.5,1.5l0,0l0,0c0,0.8,0.7,1.5,1.5,1.5
	h2.3C184.9,725.9,185.6,725.1,185.7,724.2z"/>
<path class="st0" d="M268.2,699.8v0.6c0.1,1.4,1.3,2.4,2.7,2.3c1.2-0.1,2.2-1.1,2.3-2.3V700c-0.2,0.1-0.5,0.1-0.7,0.1
	c-1.4,0-2.5-1.1-2.5-2.5c0,0,0,0,0,0l0,0V697h-61.4v2.8H268.2z"/>
<path class="st0" d="M203.4,724.5c0,0.8,0.6,1.5,1.4,1.5c0,0,0,0,0,0h2.5c0.6,0,1.1-0.5,1.1-1.1v-1.7h-1.9c-0.8,0-1.5-0.7-1.5-1.5
	c0-0.8-0.7-1.5-1.5-1.5l0,0H200c-0.8,0-1.5,0.6-1.5,1.4v0l0,0c0,0.8-0.7,1.5-1.5,1.5h-1.7c-0.9,0-1.7-0.8-1.7-1.7l0,0v-2.5h-0.1
	c-0.9,0-1.7,0.8-1.7,1.7l0,0v3.6c0,0.9,0.8,1.7,1.7,1.7h1.7c0.8,0,1.5-0.7,1.5-1.5c0-0.8,0.6-1.5,1.4-1.5c0,0,0,0,0,0h3.8
	C202.8,723,203.4,723.6,203.4,724.5L203.4,724.5z"/>
<path class="st0" d="M449.3,700.8c-0.7,0.6-1.7,0.6-2.4,0l-3-3c-0.1,1.4-1.3,2.4-2.6,2.4s-2.4-1.3-2.4-2.6v-0.4
	c-1.8,0.9-3.8,0.9-5.6,0c0.4,1.1,0.6,2.3,0.8,3.5h0.3c1,0,1.9-0.2,2.8-0.6v0.4c-0.1,1.4,1,2.6,2.4,2.6c1.4,0.1,2.6-1,2.6-2.4l3,3
	c0.7,0.6,1.7,0.6,2.4,0l7.8-7.8c0.4-0.4,0.6-1,0.5-1.5L449.3,700.8z"/>
<path class="st0" d="M206.1,706.6v1.3h0.9c0.9,0,1.6-0.7,1.6-1.6l0,0l0,0v-1.3h-0.9C206.8,705.1,206.1,705.8,206.1,706.6z"/>
<path class="st0" d="M183.6,706.5c1.2-1.2,2.9-1.9,4.6-1.9c3.7,0,6.7,3,6.6,6.7v4.9c0.2-0.1,0.3-0.1,0.5-0.1c0.7,0,1.3-0.5,1.3-1.2
	v-6.4c0-3.7-3-6.7-6.6-6.7C187.1,701.8,184.5,703.7,183.6,706.5z"/>
<path class="st6" d="M634.5,394.1L537,225.3c-2.2-3.8-7.1-5.1-11-2.8c-1.2,0.7-2.1,1.7-2.8,2.8l-97.5,168.8c-2.2,3.8-0.8,8.7,3,10.9
	c1.2,0.7,2.5,1,3.9,1h194.9c4.4,0,8-3.6,7.9-8.1C635.5,396.6,635.2,395.3,634.5,394.1z"/>
<path class="st7" d="M619.2,388.5l-85-147.2c-1.3-2.3-4.2-3-6.4-1.7c-0.7,0.4-1.3,1-1.7,1.7l-84.9,147.2c-1.3,2.3-0.5,5.1,1.7,6.4
	c0.7,0.4,1.5,0.6,2.4,0.6h169.9c2.6,0,4.7-2.1,4.7-4.7C619.8,390,619.6,389.2,619.2,388.5z"/>
<path class="st3" d="M530.1,352.7c-3.6,0-6.6-2.8-6.9-6.4l-4.4-52.1c-0.3-3.9,2.6-7.2,6.4-7.5c0,0,0,0,0,0h0.5h8.8c3.9,0,7,3.1,7,7
	c0,0.2,0,0.4,0,0.5l-4.4,52.1C536.8,349.9,533.7,352.7,530.1,352.7z"/>
<path class="st3" d="M534.5,289h-8.8c-2.6,0-4.7,2.1-4.7,4.7l0,0c0,0.1,0,0.3,0,0.4l4.4,52.1c0.2,2.6,2.5,4.5,5.1,4.3
	c2.3-0.2,4.1-2,4.3-4.3l4.4-52.1c0.2-2.6-1.7-4.9-4.3-5.1L534.5,289z"/>
<path class="st3" d="M530.1,371c-4.4,0-7.9-3.5-7.9-7.9c0-4.4,3.5-7.9,7.9-7.9c4.4,0,7.9,3.5,7.9,7.9C538,367.5,534.5,371,530.1,371
	L530.1,371z"/>
<path class="st3" d="M524.5,363.2c0-3.1,2.6-5.6,5.7-5.6c3.1,0,5.6,2.6,5.6,5.7c0,3.1-2.6,5.6-5.7,5.6
	C527,368.8,524.5,366.3,524.5,363.2C524.5,363.2,524.5,363.2,524.5,363.2z"/>
<path class="st1" d="M919.2,338.9l-11.5-3.4l0.3-1.1c0.4-1.6,1.1-3.2,2.1-4.6c0.8-1.1,1.8-2,3-2.8c2.4-1.3,4.9-2.5,7.5-3.6
	c2-0.9,3.2-1.8,3.5-2.9c0.3-0.9,0.3-2-0.2-2.9c-0.6-0.9-1.6-1.6-2.7-1.8c-1.3-0.4-2.8-0.3-4,0.4c-1.2,0.7-2.3,2.1-3.3,4.4l-11.3-5
	c1.4-3.9,4.2-7.1,7.8-9c3.5-1.8,8.1-1.9,13.8-0.2c4.4,1.3,7.7,3.3,9.8,5.9c2.8,3.1,3.8,7.5,2.6,11.6c-0.5,1.8-1.5,3.3-2.9,4.5
	c-1.4,1.3-3.9,2.7-7.6,4.1c-1.8,0.6-3.5,1.5-5,2.7C920.2,336.3,919.6,337.6,919.2,338.9z M906.4,338.4l12.3,3.7l-3.2,10.9l-12.3-3.7
	L906.4,338.4z"/>
<path class="st1" d="M961.1,334.1l7.5,11l-8.5,5.7l-18.3,9.4l-4.6-6.8l15.5-13.6L961.1,334.1z M933.5,353.5l7,10.2l-9,6.2l-7-10.2
	L933.5,353.5z"/>
<path class="st2" d="M128.1,47.6h138.1c0,0,8.1-4.7-10.3-6.8s-13.1-14.2-17.6-12.1s-8.7,9.1-16.6-0.2c-11.4-13.5-20.9-23.8-26.9-9.5
	s-12.9,11.3-16,8.1c-5.6-5.7-15.3-9.2-20.3,0s-12.8-1.5-18.4-2c-5.2-0.5-4.5,12.7-12.6,14.2s-15.5,0-15.3,3.4S126.3,47.6,128.1,47.6
	z"/>
<path class="st2" d="M583.1,112.1h138.1c0,0,8.1-4.7-10.2-6.8S697.8,91,693.4,93.1s-8.7,9.1-16.6-0.2c-11.4-13.5-20.9-23.8-26.9-9.5
	s-12.9,11.3-16.1,8.1c-5.6-5.7-15.3-9.2-20.3,0s-12.8-1.5-18.4-2c-5.2-0.5-4.5,12.7-12.6,14.2s-15.5,0-15.3,3.4
	S581.4,112.1,583.1,112.1z"/>
<path class="st2" d="M742.7,35.6h138.1c0,0,8.1-4.7-10.2-6.8S857.4,14.5,853,16.6s-8.7,9.1-16.6-0.2c-11.4-13.5-20.9-23.8-26.9-9.6
	s-12.9,11.3-16.1,8.1c-5.6-5.7-15.3-9.2-20.3,0s-12.8-1.5-18.4-2c-5.2-0.5-4.5,12.7-12.6,14.2s-15.5,0-15.3,3.4S741,35.6,742.7,35.6
	z"/>
<path class="st1" d="M991.5,512.4c0.2,0.4,0.3,0.8,0.2,1.2c-0.1,0.6-0.6,1-1.1,1.2l-5.5,1.6c-0.9,0.3-1.8-0.2-2-1.1
	c-0.1-0.3-0.1-0.6,0-0.9l1.4-5.6c0.2-0.9,1.1-1.4,2-1.2c0,0,0,0,0,0c0.3,0.1,0.5,0.2,0.8,0.4l4.2,4
	C991.3,512.2,991.4,512.3,991.5,512.4z M984.2,515.1L984.2,515.1c0.1,0.2,0.3,0.2,0.4,0.2l5.5-1.6c0.1,0,0.2-0.1,0.2-0.2
	c0-0.1,0-0.3-0.1-0.3l-4.2-4c-0.1-0.1-0.2-0.1-0.3-0.1c-0.1,0-0.2,0.1-0.2,0.2l-1.4,5.6C984.2,514.9,984.2,515,984.2,515.1z"/>
<path class="st1" d="M40.8,280.6c0.5,0.8,0.2,1.8-0.6,2.3c-0.1,0.1-0.2,0.1-0.4,0.2l-5.5,1.6c-0.9,0.3-1.8-0.2-2-1.1
	c-0.1-0.3-0.1-0.6,0-0.9l1.4-5.6c0.2-0.9,1.1-1.4,2-1.2c0.3,0.1,0.5,0.2,0.7,0.4l4.1,4C40.6,280.3,40.7,280.4,40.8,280.6z
	 M33.6,283.2L33.6,283.2c0.1,0.2,0.3,0.2,0.4,0.1l5.5-1.6c0.1,0,0.2-0.1,0.2-0.2c0-0.1,0-0.2-0.1-0.3l-4.2-4
	c-0.1-0.1-0.2-0.1-0.3-0.1c-0.1,0-0.2,0.1-0.2,0.2l-1.4,5.6C33.5,283,33.5,283.1,33.6,283.2L33.6,283.2z"/>
<linearGradient id="SVGID_1_" gradientUnits="userSpaceOnUse" x1="517.92" y1="-576.9244" x2="526.73" y2="-576.9244" gradientTransform="matrix(1 0 0 1 -176.89 688.83)">
	<stop  offset="0" style="stop-color:#E87A03"/>
	<stop  offset="1" style="stop-color:#FF9800"/>
</linearGradient>
<path class="st8" d="M349.6,112.2c0.5,0.8,0.2,1.8-0.6,2.3c-0.1,0.1-0.3,0.1-0.4,0.2l-5.5,1.6c-0.9,0.3-1.8-0.2-2-1.1
	c-0.1-0.3-0.1-0.6,0-0.9l1.4-5.6c0.2-0.9,1.1-1.4,2-1.2c0.3,0.1,0.5,0.2,0.7,0.4l4.2,4C349.4,112,349.5,112.1,349.6,112.2z
	 M342.4,114.9L342.4,114.9c0.1,0.2,0.3,0.2,0.4,0.2l5.5-1.6c0.1,0,0.2-0.1,0.2-0.2c0-0.1,0-0.3-0.1-0.3l-4.2-4
	c-0.1-0.1-0.2-0.1-0.3-0.1c-0.1,0-0.2,0.1-0.2,0.2l-1.4,5.6C342.3,114.7,342.3,114.8,342.4,114.9z"/>
<path class="st1" d="M938.8,261.7l2-2c0.5-0.5,0.5-1.2,0-1.7c-0.5-0.5-1.2-0.5-1.7,0l0,0l0,0l-2,2l-2-2c-0.5-0.5-1.2-0.5-1.7,0
	c-0.5,0.5-0.5,1.2,0,1.7l2,2l-2,2c-0.5,0.5-0.5,1.2,0,1.7s1.2,0.5,1.7,0l2-2l2,2c0.5,0.5,1.2,0.5,1.7,0s0.5-1.2,0-1.7l0,0l0,0
	L938.8,261.7z"/>
<path class="st0" d="M770.8,97.4l2-2c0.5-0.5,0.5-1.2,0-1.7c0,0,0,0,0,0l0,0c-0.5-0.5-1.2-0.5-1.7,0l0,0l-2,2l-2-2
	c-0.5-0.5-1.2-0.5-1.7,0c-0.5,0.5-0.5,1.2,0,1.7l0,0l2,2l-2,2c-0.5,0.5-0.5,1.2,0,1.7c0,0,0,0,0,0l0,0c0.5,0.5,1.2,0.5,1.7,0
	c0,0,0,0,0,0l2-2l2,2c0.5,0.5,1.2,0.5,1.7,0c0.5-0.5,0.5-1.2,0-1.7l0,0L770.8,97.4z"/>
<path class="st1" d="M86.2,120.5l2-2c0.4-0.5,0.4-1.2-0.1-1.7c-0.4-0.4-1.1-0.4-1.6,0l-2,2l-2-2c-0.5-0.4-1.2-0.4-1.7,0.1
	c-0.4,0.4-0.4,1.1,0,1.6l2,2l-2,2c-0.5,0.5-0.5,1.2,0,1.7c0,0,0,0,0,0l0,0c0.5,0.5,1.2,0.5,1.7,0c0,0,0,0,0,0l2-2l2,2
	c0.5,0.5,1.2,0.5,1.7,0c0,0,0,0,0,0c0.5-0.5,0.5-1.2,0-1.7c0,0,0,0,0,0l0,0L86.2,120.5z"/>
<path class="st1" d="M991.9,195.5c-2.6,0-4.6-2.1-4.6-4.6s2.1-4.6,4.6-4.6s4.6,2.1,4.6,4.6l0,0C996.6,193.4,994.5,195.5,991.9,195.5
	L991.9,195.5z M991.9,187.7c-1.8,0-3.2,1.4-3.2,3.2s1.4,3.2,3.2,3.2s3.2-1.4,3.2-3.2v-0.1C995.1,189.1,993.7,187.7,991.9,187.7z"/>
<path class="st0" d="M567.2,66.4c-2.6,0-4.6-2.1-4.6-4.6c0-2.6,2.1-4.6,4.6-4.6c2.6,0,4.6,2.1,4.6,4.6
	C571.9,64.4,569.8,66.4,567.2,66.4L567.2,66.4z M567.2,58.6c-1.8,0-3.2,1.4-3.2,3.2s1.4,3.2,3.2,3.2s3.2-1.4,3.2-3.2l0,0
	C570.4,60,569,58.6,567.2,58.6L567.2,58.6z"/>
<path class="st1" d="M95.3,496.3c-2.6,0-4.6-2.1-4.6-4.6c0-2.6,2.1-4.6,4.6-4.6c2.6,0,4.6,2.1,4.6,4.6l0,0
	C100,494.2,97.9,496.3,95.3,496.3C95.3,496.3,95.3,496.3,95.3,496.3z M95.3,488.5c-1.8,0-3.2,1.4-3.2,3.2s1.4,3.2,3.2,3.2
	c1.8,0,3.2-1.4,3.2-3.2l0,0C98.5,489.9,97.1,488.5,95.3,488.5L95.3,488.5z"/>
<path class="st3" d="M336.2,270.5h9.3v13.2h-9.3v17.8h-16.3v-17.8h-33.8l-0.7-10.3l34.3-54.2h16.5V270.5z M301.6,270.5h18.2v-29.1
	l-1.1,1.9L301.6,270.5z"/>
<path class="st3" d="M409.8,267.5c0,11.4-2.4,20.1-7.1,26.1c-4.7,6-11.6,9-20.7,9c-9,0-15.8-3-20.6-8.9c-4.8-5.9-7.2-14.4-7.3-25.4
	v-15.2c0-11.5,2.4-20.2,7.2-26.2c4.8-6,11.6-8.9,20.6-8.9c9,0,15.8,3,20.6,8.9s7.2,14.4,7.3,25.4L409.8,267.5z M393.4,250.8
	c0-6.8-0.9-11.8-2.8-14.9s-4.8-4.7-8.7-4.7c-3.9,0-6.7,1.5-8.5,4.4s-2.8,7.6-2.9,13.9v20c0,6.7,0.9,11.7,2.8,15
	c1.8,3.3,4.8,4.9,8.8,4.9c4,0,6.9-1.6,8.7-4.7s2.7-7.9,2.8-14.4V250.8z"/>
<path class="st3" d="M437.4,253.1h8.7c4.1,0,7.2-1,9.2-3.1c2.1-2.2,3.1-5.2,3-8.3c0.2-2.9-0.9-5.7-3-7.8c-2-1.9-4.7-2.8-8.2-2.8
	c-2.8-0.1-5.6,0.8-7.9,2.6c-2.1,1.6-3.2,4.1-3.2,6.7h-16.3c-0.1-4.1,1.2-8.2,3.5-11.6c2.4-3.5,5.8-6.3,9.7-8c4.3-2,9-2.9,13.8-2.9
	c8.7,0,15.5,2.1,20.5,6.2s7.4,9.9,7.4,17.2c0,3.8-1.2,7.4-3.5,10.4c-2.3,3.2-5.4,5.7-9,7.3c4.2,1.3,7.8,3.9,10.4,7.5
	c2.3,3.5,3.5,7.6,3.4,11.8c0,7.3-2.7,13.2-8,17.6c-5.3,4.4-12.4,6.6-21.2,6.6c-8.2,0-14.9-2.2-20.2-6.5c-5.2-4.3-7.8-10.1-7.8-17.2
	h16.3c-0.1,2.9,1.2,5.7,3.5,7.6c2.4,2,5.5,3,8.6,2.9c3.9,0,6.9-1,9.1-3.1c2.2-2.1,3.4-5.1,3.3-8.2c0-8.2-4.5-12.3-13.6-12.3h-8.6
	V253.1z"/>
<path class="st1" d="M897.7,461.6l-11.8,2.4l-0.2-1.2c-0.4-1.6-0.5-3.3-0.3-5c0.2-1.4,0.7-2.7,1.3-3.8c1.5-2.3,3.2-4.6,4.9-6.7
	c1.4-1.7,1.9-3.1,1.7-4.3c-0.1-1-0.7-1.9-1.6-2.4c-1-0.5-2.2-0.6-3.2-0.3c-1.4,0.2-2.6,1-3.4,2.2c-0.8,1.2-1,3-0.8,5.5l-12.3,1
	c-0.6-4.1,0.4-8.2,2.6-11.6c2.2-3.3,6.3-5.5,12-6.7c4.5-0.9,8.3-0.7,11.5,0.6c4,1.4,6.9,4.8,7.7,9c0.4,1.8,0.2,3.7-0.4,5.4
	c-0.6,1.8-2.2,4.2-4.7,7.2c-1.3,1.4-2.4,3-3.1,4.8C897.4,458.9,897.4,460.3,897.7,461.6z M886.2,467.3l12.6-2.6l2.3,11.1l-12.6,2.6
	L886.2,467.3z"/>
<path class="st1" d="M972.7,445l-11.7,2.5l-0.3-1.2c-0.4-1.6-0.5-3.3-0.4-5c0.2-1.4,0.6-2.7,1.3-3.9c1.5-2.3,3.1-4.6,4.9-6.7
	c1.3-1.7,1.9-3.1,1.7-4.3c-0.2-1-0.7-1.9-1.6-2.4c-1-0.5-2.2-0.6-3.2-0.3c-1.4,0.2-2.6,1.1-3.3,2.2c-0.7,1.2-1,3-0.8,5.5l-12.3,1.1
	c-0.6-4.1,0.3-8.2,2.5-11.6c2.2-3.3,6.2-5.5,12-6.8c4.5-0.9,8.3-0.8,11.5,0.5c4,1.4,7,4.8,7.8,8.9c0.4,1.8,0.2,3.7-0.4,5.4
	c-0.6,1.9-2.2,4.3-4.6,7.2c-1.3,1.4-2.3,3-3.1,4.8C972.3,442.3,972.3,443.7,972.7,445z M961.2,450.7l12.6-2.7l2.4,11.1l-12.6,2.7
	L961.2,450.7z"/>
<path class="st1" d="M922.1,550l-12,0.1l0-1.2c-0.1-1.7,0.2-3.4,0.7-5c0.5-1.3,1.2-2.5,2.1-3.5c1.9-2,4-3.9,6.1-5.6
	c1.7-1.4,2.5-2.7,2.5-3.9c0-1-0.3-2-1.1-2.7c-0.9-0.7-2-1-3.1-0.9c-1.4,0-2.7,0.5-3.7,1.5c-1,1-1.6,2.7-1.8,5.2l-12.3-1.4
	c0.2-4.1,1.9-8,4.8-10.9c2.8-2.8,7.2-4.2,13.1-4.3c4.6,0,8.3,0.9,11.1,2.8c3.6,2.2,5.9,6.1,5.9,10.3c0,1.8-0.5,3.6-1.4,5.2
	c-1,1.7-3,3.7-6,6.2c-1.6,1.1-2.9,2.5-4,4.1C922.4,547.3,922.1,548.6,922.1,550z M909.7,553.3l12.9-0.1l0.1,11.3l-12.9,0.1
	L909.7,553.3z"/>
</svg>
