<?xml version="1.0" encoding="utf-8"?>
<!-- Generator: Adobe Illustrator 26.2.1, SVG Export Plug-In . SVG Version: 6.00 Build 0)  -->
<svg version="1.1" id="OBJECTS" xmlns="http://www.w3.org/2000/svg" xmlns:xlink="http://www.w3.org/1999/xlink" x="0px" y="0px"
	 viewBox="0 0 431.9 393.6" style="enable-background:new 0 0 431.9 393.6;" xml:space="preserve">
<style type="text/css">
	.st0{fill:#B5DFEA;}
	.st1{opacity:0.55;fill:#90CEDD;enable-background:new    ;}
	.st2{fill:#79C9E8;}
	.st3{fill:#D7F0F9;}
	.st4{fill:#0582C1;}
	.st5{fill:#FFFFFF;}
	.st6{fill:#FFBF4D;}
	.st7{fill:#49B4D6;}
	.st8{fill:#FF9F50;}
	.st9{opacity:0.29;fill:#F98D2B;enable-background:new    ;}
	.st10{fill:#F77E2D;}
	.st11{fill:#00668E;}
	.st12{opacity:0.55;fill:url(#SVGID_1_);enable-background:new    ;}
</style>
<path class="st0" d="M419,393.6c7,0,12.6-5.6,12.7-12.5c0.5-34.6,3.3-85.7-61.9-99.9C317,269.8,348.3,175.9,206.1,182
	c-102.1,4.4-75,90.4-154.3,97.6C-1,284.3-1.5,351.1,0.6,381.7c0.4,6.7,6,11.9,12.7,11.9H419z"/>
<g>
	<path class="st1" d="M369.8,281.2C317,269.8,348.3,175.9,206.1,182c-24.3,1-41.2,6.7-54.1,14.8c4.3-0.6,8.9-1,13.8-1.2
		c142.2-6.1,110.9,87.8,163.7,99.2c64.5,14,62.5,64.1,61.9,98.8H419c7,0,12.6-5.6,12.7-12.5C432.3,346.4,435.1,295.3,369.8,281.2z"
		/>
</g>
<g>
	<rect x="143.7" class="st2" width="2.2" height="163.8"/>
	<rect x="304.7" class="st2" width="2.2" height="189"/>
	<g>
		<path class="st3" d="M306.7,177.9l-166.9-19.5c-7.1-0.8-13.6,4.3-14.4,11.4l-12.5,106.8c-0.8,7.1,4.3,13.6,11.4,14.4l166.9,19.5
			c7.1,0.8,13.6-4.3,14.4-11.4l12.5-106.8C319,185.2,313.9,178.8,306.7,177.9z"/>
		<path class="st4" d="M316.9,202.9l1.2-10.6c0.8-7.1-4.3-13.6-11.4-14.4l-166.9-19.5c-7.1-0.8-13.6,4.3-14.4,11.4l-1.2,10.6
			L316.9,202.9z"/>
		<g>
			<path class="st2" d="M151.1,245.1l21.2-37.3c1.4-2.4,4-3.7,6.7-3.4l0,0c3.8,0.4,6.4,3.8,6,7.6l-4.4,37.7h0.2
				c2.6,0.3,4.5,2.7,4.2,5.3l0,0c-0.3,2.6-2.7,4.5-5.3,4.2h-0.2l-0.8,6.9c-0.3,2.8-2.9,4.8-5.7,4.5l0,0c-2.8-0.3-4.8-2.9-4.5-5.7
				l0.8-6.9l-15.2-1.8c-2.6-0.3-4.5-2.7-4.2-5.3l0.4-3.5C150.5,246.6,150.7,245.8,151.1,245.1z M170.5,247.9l2.7-23.4
				c0-0.2-0.2-0.2-0.3-0.1l-12.5,22.1c-0.2,0.4,0,0.9,0.5,0.9l8.9,1C170.2,248.5,170.5,248.2,170.5,247.9z"/>
			<path class="st2" d="M244.5,256l21.2-37.3c1.4-2.4,4-3.7,6.7-3.4l0,0c3.8,0.4,6.4,3.8,6,7.6l-4.4,37.7h0.2
				c2.6,0.3,4.5,2.7,4.2,5.3l0,0c-0.3,2.6-2.7,4.5-5.3,4.2h-0.2l-0.8,6.9c-0.3,2.8-2.9,4.8-5.7,4.5l0,0c-2.8-0.3-4.8-2.9-4.5-5.7
				l0.8-6.9l-15.2-1.8c-2.6-0.3-4.5-2.7-4.2-5.3l0.4-3.5C243.9,257.5,244.1,256.7,244.5,256z M263.9,258.8l2.7-23.4
				c0-0.2-0.2-0.2-0.3-0.1l-12.5,22.1c-0.2,0.4,0,0.9,0.5,0.9l8.9,1C263.6,259.4,263.9,259.1,263.9,258.8z"/>
			<path class="st2" d="M202.5,223.1c1.2-10.5,7.5-15.9,17.6-14.7c10.2,1.2,15,7.9,13.8,18.4l-4,34.2c-1.2,10.5-7.5,15.9-17.6,14.7
				c-10.2-1.2-15-7.9-13.8-18.4L202.5,223.1z M208.8,259.3c-0.5,4.7,1.3,6.7,4.6,7.1s5.6-1.2,6.1-5.9l4.2-35.6
				c0.5-4.7-1.3-6.7-4.6-7.1c-3.3-0.4-5.6,1.2-6.1,5.9L208.8,259.3z"/>
		</g>
		<g>
			<path class="st5" d="M143.8,173.2c-0.2,1.9-2,3.3-3.9,3.1s-3.3-2-3.1-3.9s2-3.3,3.9-3.1C142.7,169.6,144,171.3,143.8,173.2z"/>
			<path class="st2" d="M160.6,175.2c-0.2,1.9-2,3.3-3.9,3.1s-3.3-2-3.1-3.9s2-3.3,3.9-3.1S160.8,173.2,160.6,175.2z"/>
			<path class="st6" d="M177.9,177.2c-0.2,1.9-2,3.3-3.9,3.1s-3.3-2-3.1-3.9s2-3.3,3.9-3.1C176.8,173.5,178.1,175.3,177.9,177.2z"/>
		</g>
	</g>
</g>
<g>
	<path class="st4" d="M142.8,295.5l-6.5-11.7c3.3-6,5.3-12.9,5.3-20.1c0-24.2-19.5-43.5-43.9-43.5s-43.9,19.3-43.9,43.5
		s19.5,43.5,43.9,43.5c12.2,0,23.2-4.8,31.3-12.9L142.8,295.5z"/>
	<g>
		<path class="st5" d="M74.9,259.7h1.6v6c0,2,0.4,2.8,2,2.8c1.2,0,1.6-0.4,2.8-1.6v-7.3h1.6v10.1h-1.2v-1.6l0,0
			c-0.8,1.2-2,1.6-3.3,1.6c-2,0-3.3-1.2-3.3-4v-6H74.9z"/>
		<path class="st5" d="M90,270.6v3.2h-1.6v-14.1h1.2v1.2l0,0c0.8-0.8,2-1.2,3.3-1.2c2.4,0,4.1,2,4.1,5.2c0,3.2-2,5.2-4.5,5.2
			c-0.8,0-2-0.4-2.8-1.2L90,270.6z M92.4,268.5c1.6,0,2.8-1.6,2.8-4c0-2-0.8-3.6-2.4-3.6c-0.8,0-1.6,0.4-2.8,1.2v5.2
			C90.8,268.1,92,268.5,92.4,268.5z"/>
		<path class="st5" d="M101.8,267.3c0.8,0.8,1.6,1.2,2.8,1.2c1.2,0,2-0.8,2-1.6c0-1.2-1.2-1.6-2.4-2c-1.2-0.4-2.8-1.2-2.8-2.8
			c0-1.6,1.2-2.8,3.3-2.8c1.2,0,2.4,0.4,3.3,1.2l-0.8,1.2c-0.8-0.4-1.2-0.8-2.4-0.8c-1.2,0-2,0.8-2,1.6s1.2,1.2,2,1.6
			c1.6,0.4,2.8,1.2,2.8,2.8c0,1.6-1.2,2.8-3.7,2.8c-1.2,0-2.8-0.4-3.7-1.2L101.8,267.3z"/>
		<path class="st5" d="M113.5,267.3c0.8,0,1.2,0.4,1.2,1.2s-0.4,1.2-1.2,1.2c-0.8,0-1.2-0.4-1.2-1.2
			C112.3,267.7,112.7,267.3,113.5,267.3z"/>
		<path class="st5" d="M120.4,267.3c0.8,0,1.2,0.4,1.2,1.2s-0.4,1.2-1.2,1.2c-0.8,0-1.2-0.4-1.2-1.2S120,267.3,120.4,267.3z"/>
	</g>
</g>
<g>
	<g>
		<g>
			<path class="st2" d="M67.5,370.5c0,0-2.3-2.1-0.7-10.1c1.5-8,5.4-15.7,3.5-24.4c-1.9-8.7-16.7-30.7-16.8-32.1
				c0-1.5-4.6,25.5,3.1,36.2c7.7,10.6,8.6,14.3,8.3,19.9s0.1,10.1,0.9,11.4L67.5,370.5z"/>
			<path class="st7" d="M66.1,354.4c-0.9,3.6-1.4,12.6,0,14.7c0.1,0.2,0.3,0.1,0.6-0.3c-0.4-1.5-0.7-4.1,0.1-8.4
				c1.5-8,5.4-15.7,3.5-24.4c-1.9-8.7-16.7-30.7-16.8-32.1c0,0,2.2,18.3,9.8,30.9C68.6,343.7,67,350.8,66.1,354.4z"/>
		</g>
		<g>
			<path class="st2" d="M70.2,369.9c0,0-4.4-10.9,3-20.3s19.2-21.5,19.4-26.3c0,0,3,22.8-6.6,29.2c-9.6,6.4-16.4,7.5-14.7,17.4
				L70.2,369.9z"/>
			<path class="st7" d="M80.6,347.9c-10.7,7.8-11.6,16.8-9.9,21c0.1,0.3,0.4,0.5,0.7,0.6c-1.4-9.6,5.2-10.7,14.7-17
				c9.6-6.4,6.6-29.2,6.6-29.2S91.3,340.1,80.6,347.9z"/>
		</g>
		<g>
			<path class="st2" d="M63,370.2c0,0,1.4-5.8,0.7-12s-7.2-9.7-13.3-16.3c-3.1-3.4-4-21.3-2.1-22.9c0,0-10.7,13-9.1,22.5
				c1.7,9.5,19.1,15.7,20.8,20.3c1.6,4.6,1.5,8.5,1.5,8.5L63,370.2z"/>
			<g>
				<path class="st7" d="M44.6,324.1c-3.5,9.6,0.1,21.2,11.9,28.4c8.7,5.3,5.9,16.4,5.9,16.4l1.4-4.4c0.1-1.9,0.1-4.1-0.1-6.3
					c-0.7-6.2-7.2-9.7-13.3-16.3c-3-3.3-4-20-2.3-22.7C47.6,319.9,46.2,321.7,44.6,324.1z"/>
				<path class="st7" d="M48.1,319.2c0.1-0.2,0.2-0.2,0.2-0.2C48.2,319.1,48.1,319.1,48.1,319.2z"/>
			</g>
		</g>
		<g>
			<path class="st2" d="M72.5,369.5c0,0,2.5-9.3,8.7-10.6c6.2-1.3,13.3-10.4,13.7-12.2C94.9,346.7,93.9,364,72.5,369.5z"/>
			<path class="st7" d="M80.8,362c-3.8,1.9-5.4,4.5-6,6.8c19.1-6.1,20-22.1,20-22.1c-0.1,0.4-0.4,1-1,1.8
				C92.1,351.7,87.5,358.6,80.8,362z"/>
		</g>
	</g>
	<path class="st6" d="M85.9,366H53.4l3.9,24.3c0.3,1.8,1.9,3.2,3.7,3.2h17.3c1.9,0,3.5-1.4,3.7-3.2L85.9,366z"/>
	<polygon class="st8" points="85.3,370 85.9,366 53.4,366 54,370 	"/>
	<path class="st8" d="M78,366l-3.9,24.3c-0.3,1.8-1.9,3.2-3.7,3.2h7.9c1.9,0,3.5-1.4,3.7-3.2l3.9-24.3H78z"/>
</g>
<g>
	<rect x="163.2" y="322.7" class="st6" width="146.9" height="29.9"/>
	<rect x="163.2" y="322.7" class="st9" width="146.9" height="7.2"/>
	<polygon class="st10" points="175.9,322.7 189.3,322.7 185.7,330 172.3,330 	"/>
	<polygon class="st10" points="206.1,322.7 219.5,322.7 215.9,330 202.5,330 	"/>
	<polygon class="st10" points="236.3,322.7 249.7,322.7 246.1,330 232.7,330 	"/>
	<polygon class="st10" points="266.5,322.7 279.9,322.7 276.3,330 262.9,330 	"/>
	<polygon class="st10" points="310,322.7 310,322.9 306.5,330 293.1,330 296.7,322.7 	"/>
	<rect x="181.4" y="352.6" class="st2" width="10.4" height="40.8"/>
	<rect x="189.4" y="352.6" class="st7" width="2.4" height="40.8"/>
	<rect x="282.2" y="352.6" class="st2" width="10.4" height="40.8"/>
	<rect x="289.5" y="352.6" class="st7" width="3.1" height="40.8"/>
	<rect x="181.4" y="352.6" class="st7" width="10.4" height="5.1"/>
	<rect x="282.2" y="352.6" class="st7" width="10.4" height="5.1"/>
	<rect x="181.4" y="318.1" class="st2" width="10.4" height="4.6"/>
	<rect x="189.4" y="318.1" class="st7" width="2.4" height="4.6"/>
	<rect x="282.2" y="318.1" class="st2" width="10.4" height="4.6"/>
	<rect x="289.5" y="318.1" class="st7" width="3.1" height="4.6"/>
	<rect x="181.4" y="322.1" class="st7" width="10.4" height="0.6"/>
	<rect x="282.2" y="322.1" class="st7" width="10.4" height="0.6"/>
	<g>
		<g>
			<polygon class="st4" points="189.3,322.7 174.5,352.6 163.2,352.6 163.2,348.5 175.9,322.7 			"/>
			<polygon class="st4" points="206.1,322.7 191.3,352.6 204.7,352.6 219.5,322.7 			"/>
			<polygon class="st4" points="249.7,322.7 234.9,352.6 221.5,352.6 236.3,322.7 			"/>
			<polygon class="st4" points="279.9,322.7 265.1,352.6 251.7,352.6 266.5,322.7 			"/>
			<polygon class="st4" points="296.7,322.7 281.9,352.6 295.3,352.6 310,322.9 			"/>
		</g>
	</g>
	<g>
		<g>
			<polygon class="st11" points="189.3,322.7 185.7,330 172.3,330 175.9,322.7 			"/>
			<polygon class="st11" points="219.5,322.7 215.9,330 202.5,330 206.1,322.7 			"/>
			<polygon class="st11" points="249.7,322.7 246.1,330 232.7,330 236.3,322.7 			"/>
			<polygon class="st11" points="279.9,322.7 276.3,330 262.9,330 266.5,322.7 			"/>
			<polygon class="st11" points="310,322.9 306.5,330 293.1,330 296.7,322.7 			"/>
		</g>
	</g>
	
		<linearGradient id="SVGID_1_" gradientUnits="userSpaceOnUse" x1="237.4" y1="32.6575" x2="237.4" y2="56.7118" gradientTransform="matrix(1 0 0 -1 0 394)">
		<stop  offset="0" style="stop-color:#FFFFFF"/>
		<stop  offset="1" style="stop-color:#FFFFFF;stop-opacity:0"/>
	</linearGradient>
	<rect x="167.3" y="335.7" class="st12" width="140.2" height="14.9"/>
	<ellipse transform="matrix(0.987 -0.1606 0.1606 0.987 -47.6277 33.9628)" class="st6" cx="186.3" cy="311.6" rx="9.2" ry="9.2"/>
	<path class="st4" d="M190.5,311.6c0-2.3-1.9-4.2-4.2-4.2s-4.2,1.9-4.2,4.2c0,2.3,1.9,4.2,4.2,4.2
		C188.7,315.8,190.5,313.9,190.5,311.6z"/>
	<ellipse class="st6" cx="287.3" cy="311.6" rx="9.2" ry="9.2"/>
	<path class="st4" d="M291.5,311.6c0-2.3-1.9-4.2-4.2-4.2c-2.3,0-4.2,1.9-4.2,4.2c0,2.3,1.9,4.2,4.2,4.2
		C289.6,315.8,291.5,313.9,291.5,311.6z"/>
</g>
<g>
	<path class="st6" d="M365.7,390.3h-46.8l7.2-17.3l0,0l2.9-7l0.8-1.9l1.3-3.1l0.3-0.6l2.9-7l0.5-1.3l5.1-12.4c0.9-2.2,4.1-2.2,5,0
		l5.1,12.4l0.5,1.3l2.9,7l0.3,0.6l1.3,3.1l0.8,1.9l2.9,7l0,0L365.7,390.3z"/>
	<polygon class="st9" points="322,382.8 318.9,390.3 365.7,390.3 362.6,382.8 	"/>
	<rect x="315.2" y="385.8" class="st2" width="53.6" height="7.6"/>
	<rect x="357.1" y="385.8" class="st7" width="11.6" height="7.6"/>
	<g>
		<path class="st9" d="M363.8,385.8h-6.6l-5.3-12.9l0,0l-2.9-7l-0.8-1.9l-1.3-3.1l-0.3-0.6l-2.9-7l-0.5-1.3l-4.3-10.4l0.8-2
			c0.9-2.2,4.1-2.2,5,0l5.1,12.4l0.5,1.3l2.9,7l0.3,0.6l1.3,3.1l0.8,1.9l2.9,7l0,0L363.8,385.8z"/>
		<g>
			<polygon class="st4" points="353.3,360.2 331.3,360.2 334.1,353.2 350.4,353.2 			"/>
			<polygon class="st4" points="358.5,372.9 358.5,372.9 326,372.9 326,372.9 328.9,365.9 355.6,365.9 			"/>
			<polygon class="st11" points="353.3,360.2 346.7,360.2 343.8,353.2 350.4,353.2 			"/>
			<polygon class="st11" points="358.5,372.9 358.5,372.9 351.9,372.9 351.9,372.9 349,365.9 355.6,365.9 			"/>
		</g>
	</g>
</g>
<g>
	<path class="st3" d="M67.5,220.2c3.5,0,6.5-2.5,7-6c0.1-0.6,0.1-1.3,0.1-1.9c0-7.7-6.2-14-14-14c-0.3,0-0.6,0-0.9,0
		c-0.6-7.6-7-13.6-14.8-13.6c-8.2,0-14.8,6.6-14.8,14.8c0,0.4,0,0.7,0,1.1c-2.3-1.3-5-2-7.9-1.9C14.8,199,8.6,205,8.1,212.4
		c0,0.1,0,0.1,0,0.2c-0.2,4,3,7.4,7.1,7.4h52.3V220.2z"/>
	<path class="st3" d="M400.6,231.2c11,0,11.6-16.6,0.6-17.1c-0.3,0-0.6,0-0.9,0c-2,0-3.9,0.3-5.6,0.9c-1.5-9-9.3-15.9-18.7-15.9
		c-9.6,0-17.6,7.2-18.8,16.5c-2.3-1.1-4.8-1.7-7.5-1.7c-1.5,0-3,0.2-4.4,0.6c-9.7,2.5-7.6,16.8,2.3,16.8h53V231.2z"/>
	<path class="st3" d="M268.1,149.3c11,0,11.6-16.6,0.6-17.1c-0.3,0-0.6,0-0.9,0c-2,0-3.9,0.3-5.6,0.9c-1.5-9-9.3-15.8-18.7-15.8
		c-9.6,0-17.5,7.2-18.8,16.4c-2.3-1.1-4.8-1.7-7.5-1.7c-1.5,0-3,0.2-4.4,0.6c-9.6,2.5-7.6,16.8,2.3,16.8L268.1,149.3L268.1,149.3z"
		/>
	<circle class="st6" cx="92.4" cy="153.6" r="26.5"/>
	<path class="st8" d="M92.6,127.1c7.2,4.7,11.9,12.9,11.9,22.1c0,14.6-11.8,26.5-26.5,26.5c-0.1,0-0.1,0-0.2,0
		c4.2,2.7,9.1,4.3,14.5,4.3c14.6,0,26.5-11.8,26.5-26.5C118.9,139,107.1,127.2,92.6,127.1z"/>
</g>
</svg>
