<?xml version="1.0" encoding="utf-8"?>
<!-- Generator: Adobe Illustrator 26.2.1, SVG Export Plug-In . SVG Version: 6.00 Build 0)  -->
<svg version="1.1" id="Layer_1" xmlns="http://www.w3.org/2000/svg" xmlns:xlink="http://www.w3.org/1999/xlink" x="0px" y="0px"
	 viewBox="0 0 259.3 194" style="enable-background:new 0 0 259.3 194;" xml:space="preserve">
<style type="text/css">
	.st0{fill:#DAE8FB;}
	.st1{fill:#2168E2;}
	.st2{fill:#D2DFF7;}
	.st3{fill:#ADCCFC;}
	.st4{fill:#F8FBFB;}
	.st5{fill:#F0F6FB;}
	.st6{fill:#5188E7;}
	.st7{fill:#2662C8;}
	.st8{fill:#7DA6EC;}
</style>
<path class="st0" d="M225.7,76.4c-1.1,0.4-2.2,1.2-3.2,1.1c-5.7-0.6-6.9,2.1-6.9,7.3c0.3,21.2,0.2,42.3,0,63.5c0,4.2,1.1,6,5.6,6.9
	c9.6,1.9,19.1,4.6,28.5,7.4c4.3,1.3,9.3,3.2,9.6,8.3c0.3,5.4-4.8,7.7-8.9,8.8c-14.6,3.7-29.3,7.5-44.2,9.8c-35.3,5.5-71,5-106.6,3.9
	c-28.7-0.8-57.5-3.3-85.2-11.7c-3.3-1-6.5-2.5-9.5-4.2c-6.2-3.7-6.4-9.2,0.1-12.1c8.2-3.5,16.7-6.4,25.5-8.4
	c10.7-2.7,9.4,0.1,9.4-11.5c0.1-30.8,0-61.6,0.1-92.4c0-2.4,0.8-4.8,1.2-7.2c-0.1,2.2-0.2,4.3-0.2,6.5c-0.1,35-0.1,70-0.1,105
	c0,10.3,6.1,16.4,16.5,16.4c47,0,94,0,141,0c11.6,0,16.8-5.2,16.8-16.8c0-24.8-0.1-49.6-0.1-74.5v-5.9H225.7z"/>
<path class="st1" d="M225.7,76.4h-11v5.9c0,24.8,0.1,49.7,0.1,74.5c0,11.5-5.2,16.8-16.8,16.8c-47,0-94,0-141,0
	c-10.4,0-16.5-6.1-16.5-16.4c0-35,0-70,0.1-105c0-2.2,0.2-4.3,0.2-6.5c3-7.3,8.4-10.5,16.4-10.4c38.6,0.2,77.3,0.1,115.9,0.1h6
	c1.8-12.7,7.3-22.6,18-29C212-2.4,226.9-2.1,241,7.4c13.2,8.9,19,21.9,16.3,37.6c-2.9,16.8-13.7,26.8-30.2,30.8
	C226.6,75.9,226.2,76.1,225.7,76.4z M208.8,75.6c-7-3.1-12.8,1.5-19,3.2s-5.9-2.5-5.5-6.5H47.2v78.6c0,3-0.1,6,0.1,9
	c0.4,4.9,3.2,7.7,8.1,7.7c34.1,0,68.3,0,102.4-0.1l46.6-0.2c5.4-0.4,8.1-2.8,8.1-8c0.1-26.3,0.1-52.6-0.1-78.8
	C212.5,78.8,210.1,77.2,208.8,75.6z M185.6,66.4c1.5-3.1,1.1-5.8-0.7-8.9c-2.2-3.5-3.7-7.4-4.6-11.5c-0.7-4.3-2.6-5.2-6.6-5.2
	c-27.5,0.2-54.9,0.1-82.4,0.1c-11.7,0-23.3-0.1-35,0.1c-7,0.1-10,3.2-10.2,10.2c-0.1,5-0.2,10-0.2,15c2,0.5,4,1.4,6.1,1.4
	c42.6,0.1,85.2,0.1,127.8,0C181.8,67.5,183.7,66.8,185.6,66.4z M190.1,72c1.9-0.4,3.7-0.8,5.5-1.4c5.2-2.2,10.2-2.1,15.9-0.7
	c17.2,4.6,34.8-5.6,39.4-22.8c1-3.8,1.3-7.8,0.9-11.7c-1.3-13.6-9.3-22.8-21.8-27.3c-13.6-4.8-26.2-2.1-36.2,8.5
	c-9.2,9.7-11.6,21.6-5.9,33.7C191,57.2,194.5,63.5,190.1,72z"/>
<path class="st2" d="M8.8,36.9C9.4,22.6,21.7,9.6,34.4,8.7c1.9-0.1,3.9,1.5,5.8,2.3c-1.6,1.5-3.1,3.9-5,4.3
	c-10.7,2.2-17,8.5-19.3,19c-0.1,0.7,0,1.5-0.4,1.9c-1.3,1.6-2.8,3.1-4.2,4.6L8.8,36.9z"/>
<path class="st2" d="M43.3,21.5l3.1,2.4c-1,1.3-1.8,3.4-3.1,3.8C36.6,29.9,32,33.8,30.5,41c-0.3,1.2-2.5,2-3.8,3
	c-0.9-1.3-2.5-2.5-2.6-3.8C23.7,32.3,33.9,21.7,43.3,21.5z"/>
<path class="st3" d="M46.1,66.1c0.1-5,0.1-10,0.2-15c0.2-7,3.2-10.1,10.2-10.2c11.6-0.2,23.3-0.1,35-0.1c27.5,0,54.9,0.1,82.4-0.1
	c4,0,5.8,0.8,6.6,5.2c0.8,4.1,2.4,7.9,4.6,11.5c1.8,3.1,2.2,5.8,0.7,8.9c-33.1,0-66.1,0-99.2,0C73,66.3,59.5,66.2,46.1,66.1z
	 M92.2,54.9v-2.2c-1.4-0.7-2.9-2.2-4.2-2s-2.9,2.1-2.9,3.2s1.8,3,3,3.1C89.4,57.2,90.8,55.7,92.2,54.9z M75.6,49.9l-2-0.1
	c-0.8,1.2-2.6,2.6-2.3,3.6c0.3,1.4,2,2.5,3.2,3.8c1.1-1,3-2,3.2-3.1C77.8,52.8,76.3,51.3,75.6,49.9L75.6,49.9z M60,57.8l2-0.1
	c0.7-1.4,2.1-2.9,1.8-4s-2.2-2.1-3.3-3.1c-0.9,1.1-2.5,2.2-2.5,3.3S59.2,56.5,60,57.8z"/>
<path class="st4" d="M190.1,72c4.5-8.5,0.9-14.8-2.3-21.7c-5.6-12.2-3.3-24,5.9-33.7C203.8,6,216.4,3.3,230,8.1
	c12.6,4.5,20.6,13.6,21.9,27.2c1.9,17.7-10.9,33.6-28.6,35.4c-3.9,0.4-7.9,0.1-11.7-0.9c-5.6-1.4-10.7-1.4-15.9,0.7
	C193.8,71.2,192,71.6,190.1,72z M231.7,36.8l-4.6,2.3c2.4,3.5,4.6,6.7,7.5,10.9l6.6-9.6c-2-3.3-3.7-5.2-4.5-7.5
	c-4.2-11-17.7-16.2-27-10.1c-1.2,0.8-1.5,2.8-2.3,4.2c1.5,0.2,2.9,0.5,4.4,0.6c0.6,0,1.2-0.5,1.8-0.7
	C222.1,23.7,229.2,27.5,231.7,36.8L231.7,36.8z M196.4,37.5c2.1,3.3,3.6,5.7,5,8c0.7,1.1,1.1,2.4,1.9,3.5c5.3,8.2,17.4,11,25.1,5.8
	c1.1-0.8,1.4-2.6,2.1-3.9c-1.4-0.4-2.9-0.7-4.4-0.8c-0.9,0-1.8,0.8-2.7,1.1c-7.9,2.5-15-1.5-17.1-10l4.3-2.5l-7.6-10.6
	C199.9,32.3,197.8,35.5,196.4,37.5L196.4,37.5z"/>
<path class="st5" d="M157.8,167.4c5.8-8.8,12.9-17.1,17.2-26.7c5.1-11.2,8.5-23.4,11.5-35.4c2.1-8.6,2.3-17.7,3.3-26.6
	c6.2-1.7,12-6.3,19-3.2c0,27.6,0.2,55.2-0.1,82.8c0,3-2.8,5.9-4.3,8.9L157.8,167.4z"/>
<path class="st6" d="M204.4,167.3c1.5-3,4.3-5.9,4.3-8.9c0.3-27.6,0.1-55.2,0.1-82.8c1.3,1.6,3.7,3.2,3.7,4.9
	c0.2,26.3,0.3,52.6,0.1,78.8C212.6,164.4,209.8,166.8,204.4,167.3z"/>
<path class="st7" d="M46.1,66.1c13.5,0.1,26.9,0.2,40.4,0.2c33.1,0,66.1,0,99.2,0c-1.9,0.4-3.8,1.1-5.7,1.1
	c-42.6,0.1-85.2,0.1-127.8,0C50.1,67.5,48.1,66.6,46.1,66.1z"/>
<path class="st6" d="M92.2,54.9c-1.4,0.8-2.9,2.2-4.2,2.1c-1.2-0.1-3-2-3-3.1s1.7-3,2.9-3.2s2.8,1.3,4.2,2L92.2,54.9z"/>
<path class="st6" d="M75.6,49.9c0.7,1.4,2.2,2.9,2,4.2c-0.1,1.1-2,2.1-3.2,3.1c-1.1-1.2-2.8-2.3-3.2-3.8c-0.2-1,1.5-2.4,2.3-3.6
	L75.6,49.9z"/>
<path class="st6" d="M60,57.8c-0.8-1.3-2.1-2.6-2.1-3.9s1.6-2.2,2.5-3.3c1.2,1,3,1.9,3.3,3.1s-1.1,2.7-1.8,4L60,57.8z"/>
<path class="st8" d="M231.7,36.7c-2.5-9.3-9.6-13-18.1-9.8c-0.6,0.2-1.2,0.8-1.8,0.7c-1.5-0.1-2.9-0.4-4.4-0.6
	c0.7-1.4,1.1-3.4,2.3-4.2c9.3-6.2,22.8-1,27,10.1c0.9,2.2,2.5,4.2,4.5,7.5l-6.6,9.6c-2.9-4.2-5.1-7.4-7.5-10.9L231.7,36.7z"/>
<path class="st8" d="M196.4,37.5c1.4-2.1,3.6-5.2,6.4-9.4l7.6,10.6l-4.3,2.5c2.1,8.4,9.2,12.5,17.1,10c1-0.3,1.8-1.1,2.7-1.1
	c1.5,0.1,2.9,0.4,4.4,0.8c-0.7,1.3-1,3.2-2.1,3.9c-7.7,5.3-19.7,2.5-25.1-5.8c-0.7-1.1-1.2-2.4-1.9-3.5
	C199.9,43.2,198.4,40.8,196.4,37.5z"/>
</svg>
