<?xml version="1.0" encoding="utf-8"?>
<!-- Generator: Adobe Illustrator 26.2.1, SVG Export Plug-In . SVG Version: 6.00 Build 0)  -->
<svg version="1.1" id="Layer_1" xmlns="http://www.w3.org/2000/svg" xmlns:xlink="http://www.w3.org/1999/xlink" x="0px" y="0px"
	 viewBox="0 0 810.5 430" style="enable-background:new 0 0 810.5 430;" xml:space="preserve">
<style type="text/css">
	.st0{opacity:0.1;fill:url(#SVGID_1_);enable-background:new    ;}
	.st1{opacity:0.1;fill:url(#SVGID_00000126283443222731261210000014258192076474234783_);enable-background:new    ;}
	.st2{fill:#030408;}
	.st3{fill:#510394;}
	.st4{fill:#FDFFFF;}
	.st5{fill:url(#SVGID_00000091003462529183549920000001775432362837747643_);}
	.st6{fill:#DFE6ED;}
	.st7{fill:#F0DBFC;}
	.st8{fill:#FFFFFF;}
	.st9{fill:#9909B7;}
	.st10{fill:#2159FF;}
	.st11{fill:#0008FF;}
	.st12{opacity:0.6;fill:#0008FF;enable-background:new    ;}
	.st13{fill:url(#SVGID_00000000202967047839029460000004884075401833840001_);}
	.st14{fill:url(#SVGID_00000017486197342735595480000007669550496218031264_);}
	.st15{fill:#192B59;}
	.st16{fill:#FFAC00;}
	.st17{fill:#D3D6DB;}
	.st18{fill:url(#SVGID_00000032613845991773707410000001856997477844258437_);}
	.st19{fill:url(#SVGID_00000126297962799302993640000004371580505426189485_);}
	.st20{fill:#7500B2;}
	.st21{fill:url(#SVGID_00000156570831013304245460000014341615099418053310_);}
	.st22{fill:url(#SVGID_00000085940713590642658230000018351519421827783869_);}
</style>
<linearGradient id="SVGID_1_" gradientUnits="userSpaceOnUse" x1="503.5521" y1="-5.0599" x2="502.7021" y2="24.7701" gradientTransform="matrix(1 0 0 -1 0 430)">
	<stop  offset="0" style="stop-color:#510394"/>
	<stop  offset="0.12" style="stop-color:#4A0388"/>
	<stop  offset="0.34" style="stop-color:#380367"/>
	<stop  offset="0.63" style="stop-color:#1B0433"/>
	<stop  offset="0.85" style="stop-color:#030408"/>
</linearGradient>
<ellipse class="st0" cx="503.2" cy="422" rx="307.4" ry="8"/>
<linearGradient id="SVGID_00000057147126509977554970000006692517706027578812_" gradientUnits="userSpaceOnUse" x1="82.3114" y1="1.0197" x2="81.8514" y2="16.9597" gradientTransform="matrix(1 0 0 -1 0 430)">
	<stop  offset="0" style="stop-color:#510394"/>
	<stop  offset="0.12" style="stop-color:#4A0388"/>
	<stop  offset="0.34" style="stop-color:#380367"/>
	<stop  offset="0.63" style="stop-color:#1B0433"/>
	<stop  offset="0.85" style="stop-color:#030408"/>
</linearGradient>
<path style="opacity:0.1;fill:url(#SVGID_00000057147126509977554970000006692517706027578812_);enable-background:new    ;" d="
	M164.2,422c0,3.3-36.8,5.9-82.1,5.9S0,425.3,0,422s36.8-5.9,82.1-5.9S164.2,418.8,164.2,422z"/>
<path class="st2" d="M464.9,417.7H315.1c-1.4,1.8-0.2,3.9,1.3,3.9h147.3c1.2-0.2,2.1-1.4,1.9-2.6C465.5,418.5,465.3,418,464.9,417.7
	z"/>
<path class="st3" d="M149.5,61.4h481c6.1,0,11.1,5,11.1,11.1v267.8c0,6.1-5,11.1-11.1,11.1h-481c-6.1,0-11.1-5-11.1-11.1V72.5
	C138.4,66.4,143.4,61.4,149.5,61.4z"/>
<path class="st4" d="M152.5,66.6h475c4.9,0,8.9,4,8.9,8.9v259c0,4.9-4,8.9-8.9,8.9h-475c-4.9,0-8.9-4-8.9-8.9v-259
	C143.6,70.6,147.6,66.6,152.5,66.6z"/>
<linearGradient id="SVGID_00000129171658181426808730000005247188210157649323_" gradientUnits="userSpaceOnUse" x1="390.0809" y1="9.84" x2="386.7609" y2="102.99" gradientTransform="matrix(1 0 0 -1 0 430)">
	<stop  offset="0" style="stop-color:#510394"/>
	<stop  offset="0.14" style="stop-color:#4A0388"/>
	<stop  offset="0.4" style="stop-color:#380367"/>
	<stop  offset="0.75" style="stop-color:#1B0433"/>
	<stop  offset="1" style="stop-color:#030408"/>
</linearGradient>
<path style="fill:url(#SVGID_00000129171658181426808730000005247188210157649323_);" d="M464.6,417.3c-5.3-3.9-14.6-11-17.6-13.6
	c-4.2-3.8-7-52.3-7-52.3h-99.9c0,0-2.8,48.4-7,52.3c-3,2.7-12.3,9.7-17.6,13.6c-0.7,0.5-0.8,1.5-0.3,2.2c0.3,0.4,0.8,0.6,1.2,0.6
	h147.3c0.9,0,1.6-0.7,1.6-1.6C465.2,418.1,465,417.6,464.6,417.3z"/>
<path class="st6" d="M620.9,128.8h-22.3v-24.1c0-4.8-3.9-8.7-8.7-8.7H224.8c-4.8,0-8.7,3.9-8.7,8.7v199.1c0,4.8,3.9,8.7,8.7,8.7
	h365.1c4.8,0,8.7-3.9,8.7-8.7V132.6h22.3c1,0,1.9-0.8,1.9-1.9C622.8,129.7,621.9,128.8,620.9,128.8L620.9,128.8z M589.9,308.8H224.8
	c-2.8,0-5-2.2-5-5V104.7c0-2.8,2.2-5,5-5h365.1c2.8,0,5,2.2,5,5v24.1H345.5c-1,0-1.9,0.8-1.9,1.9c0,1,0.8,1.9,1.9,1.9h249.4v171.3
	C594.9,306.6,592.6,308.8,589.9,308.8L589.9,308.8z"/>
<path class="st6" d="M534.7,120.9c3.4,0,6.1-2.7,6.1-6.1c0-3.4-2.7-6.1-6.1-6.1c-3.4,0-6.1,2.7-6.1,6.1c0,0,0,0,0,0
	C528.7,118.2,531.4,120.9,534.7,120.9z"/>
<circle class="st6" cx="555.1" cy="114.8" r="6.1"/>
<path class="st6" d="M575.5,120.9c3.4,0,6.1-2.7,6.1-6.1c0-3.4-2.7-6.1-6.1-6.1c-3.4,0-6.1,2.7-6.1,6.1c0,0,0,0,0,0
	C569.5,118.2,572.2,120.9,575.5,120.9z"/>
<path class="st6" d="M378.5,153h-132c-1,0-1.9,0.8-1.9,1.9v132c0,1,0.8,1.9,1.9,1.9h132c1,0,1.9-0.8,1.9-1.9v-132
	C380.4,153.8,379.6,153,378.5,153z M248.5,285V156.7h128.2v128.2L248.5,285z"/>
<path class="st7" d="M567.3,206.6c-1,0-1.9,0.8-1.9,1.9v2.7h-2.7c-1-0.1-1.9,0.7-2,1.7s0.7,1.9,1.7,2c0.1,0,0.2,0,0.3,0h4.6
	c1,0,1.9-0.8,1.9-1.9v-4.6C569.2,207.5,568.3,206.6,567.3,206.6L567.3,206.6z"/>
<path class="st7" d="M544.8,215h9c1,0.1,1.9-0.7,2-1.7s-0.7-1.9-1.7-2c-0.1,0-0.2,0-0.3,0h-9c-1,0.1-1.8,1-1.7,2
	C543.1,214.2,543.8,214.9,544.8,215z"/>
<path class="st7" d="M517.9,211.2h-9c-1-0.1-1.9,0.7-2,1.7s0.7,1.9,1.7,2c0.1,0,0.2,0,0.3,0h9c1,0.1,1.9-0.7,2-1.7s-0.7-1.9-1.7-2
	C518.1,211.2,518,211.2,517.9,211.2z"/>
<path class="st7" d="M526.8,215h9c1-0.1,1.8-1,1.7-2c-0.1-0.9-0.8-1.7-1.7-1.7h-9c-1-0.1-1.9,0.7-2,1.7s0.7,1.9,1.7,2
	C526.7,215,526.8,215,526.8,215z"/>
<path class="st6" d="M455.1,215h9c1,0.1,1.9-0.7,2-1.7s-0.7-1.9-1.7-2c-0.1,0-0.2,0-0.3,0h-9c-1,0.1-1.8,1-1.7,2
	C453.4,214.2,454.2,214.9,455.1,215z"/>
<path class="st6" d="M482,211.2h-9c-1-0.1-1.9,0.7-2,1.7s0.7,1.9,1.7,2c0.1,0,0.2,0,0.3,0h9c1-0.1,1.8-1,1.7-2
	C483.7,212,482.9,211.3,482,211.2z"/>
<path class="st6" d="M501.8,213.1c0-1-0.8-1.9-1.9-1.9l0,0h-9c-1-0.1-1.9,0.7-2,1.7s0.7,1.9,1.7,2c0.1,0,0.2,0,0.3,0h9
	C501,215,501.8,214.1,501.8,213.1z"/>
<path class="st6" d="M437.2,215h9c1-0.1,1.8-1,1.7-2c-0.1-0.9-0.8-1.7-1.7-1.7h-9c-1-0.1-1.9,0.7-2,1.7s0.7,1.9,1.7,2
	C437,215,437.1,215,437.2,215z"/>
<path class="st6" d="M428.2,211.2h-9c-1-0.1-1.9,0.7-2,1.7s0.7,1.9,1.7,2c0.1,0,0.2,0,0.3,0h9c1,0.1,1.9-0.7,2-1.7s-0.7-1.9-1.7-2
	C428.4,211.2,428.3,211.2,428.2,211.2z"/>
<path class="st6" d="M405.7,215h4.6c1,0.1,1.9-0.7,2-1.7s-0.7-1.9-1.7-2c-0.1,0-0.2,0-0.3,0h-2.7v-2.7c0-1-0.8-1.9-1.9-1.9
	s-1.9,0.8-1.9,1.9v4.6C403.8,214.2,404.6,215,405.7,215z"/>
<path class="st6" d="M405.7,180.9c1,0,1.9-0.8,1.9-1.9c0,0,0,0,0,0v-9.8c0-1-0.8-1.9-1.9-1.9s-1.9,0.8-1.9,1.9l0,0v9.8
	C403.8,180.1,404.6,180.9,405.7,180.9L405.7,180.9z"/>
<path class="st6" d="M405.7,200.6c1,0,1.9-0.8,1.9-1.9c0,0,0,0,0,0v-9.8c0-1-0.8-1.9-1.9-1.9s-1.9,0.8-1.9,1.9v9.8
	C403.8,199.7,404.6,200.6,405.7,200.6L405.7,200.6z"/>
<path class="st6" d="M405.7,161.3c1,0,1.9-0.8,1.9-1.9v-2.7h2.7c1,0.1,1.9-0.7,2-1.7s-0.7-1.9-1.7-2c-0.1,0-0.2,0-0.3,0h-4.6
	c-1,0-1.9,0.8-1.9,1.9v4.6C403.8,160.5,404.6,161.3,405.7,161.3z"/>
<path class="st6" d="M437.2,156.7h9c1-0.1,1.8-1,1.7-2c-0.1-0.9-0.8-1.7-1.7-1.7h-9c-1-0.1-1.9,0.7-2,1.7s0.7,1.9,1.7,2
	C437,156.7,437.1,156.7,437.2,156.7z"/>
<path class="st6" d="M419.2,156.7h9c1,0.1,1.9-0.7,2-1.7s-0.7-1.9-1.7-2c-0.1,0-0.2,0-0.3,0h-9c-1-0.1-1.9,0.7-2,1.7s0.7,1.9,1.7,2
	C419,156.7,419.1,156.7,419.2,156.7z"/>
<path class="st6" d="M544.8,156.7h9c1,0.1,1.9-0.7,2-1.7s-0.7-1.9-1.7-2c-0.1,0-0.2,0-0.3,0h-9c-1,0.1-1.8,1-1.7,2
	C543.1,155.9,543.8,156.6,544.8,156.7z"/>
<path class="st6" d="M508.9,156.7h9c1,0.1,1.9-0.7,2-1.7s-0.7-1.9-1.7-2c-0.1,0-0.2,0-0.3,0h-9c-1-0.1-1.9,0.7-2,1.7s0.7,1.9,1.7,2
	C508.7,156.7,508.8,156.7,508.9,156.7L508.9,156.7z"/>
<path class="st6" d="M491,156.7h9c1,0.1,1.9-0.7,2-1.7s-0.7-1.9-1.7-2c-0.1,0-0.2,0-0.3,0h-9c-1-0.1-1.9,0.7-2,1.7s0.7,1.9,1.7,2
	C490.8,156.7,490.9,156.7,491,156.7z"/>
<path class="st6" d="M526.8,156.7h9c1-0.1,1.8-1,1.7-2c-0.1-0.9-0.8-1.7-1.7-1.7h-9c-1-0.1-1.9,0.7-2,1.7s0.7,1.9,1.7,2
	C526.7,156.7,526.8,156.7,526.8,156.7z"/>
<path class="st6" d="M455.1,156.7h9c1,0.1,1.9-0.7,2-1.7s-0.7-1.9-1.7-2c-0.1,0-0.2,0-0.3,0h-9c-1,0.1-1.8,1-1.7,2
	C453.4,155.9,454.2,156.6,455.1,156.7z"/>
<path class="st6" d="M482,153h-9c-1-0.1-1.9,0.7-2,1.7s0.7,1.9,1.7,2c0.1,0,0.2,0,0.3,0h9c1-0.1,1.8-1,1.7-2
	C483.7,153.8,482.9,153.1,482,153z"/>
<path class="st6" d="M567.3,153h-4.6c-1-0.1-1.9,0.7-2,1.7s0.7,1.9,1.7,2c0.1,0,0.2,0,0.3,0h2.7v2.7c0.1,1,1,1.8,2,1.7
	c0.9-0.1,1.7-0.8,1.7-1.7v-4.6C569.2,153.8,568.3,153,567.3,153z"/>
<path class="st6" d="M567.3,187c-1,0-1.9,0.8-1.9,1.9v9.8c-0.1,1,0.7,1.9,1.7,2c1,0.1,1.9-0.7,2-1.7c0-0.1,0-0.2,0-0.3v-9.8
	C569.2,187.8,568.3,187,567.3,187L567.3,187z"/>
<path class="st6" d="M567.3,167.4c-1,0-1.9,0.8-1.9,1.9v9.8c-0.1,1,0.7,1.9,1.7,2c1,0.1,1.9-0.7,2-1.7c0-0.1,0-0.2,0-0.3v-9.8
	C569.2,168.2,568.3,167.4,567.3,167.4z"/>
<path class="st6" d="M476.9,226.6h-71.3c-1,0-1.9,0.8-1.9,1.9c0,0,0,0,0,0v58.3c0,1,0.8,1.9,1.9,1.9h71.3c1,0,1.9-0.8,1.9-1.9v-58.3
	C478.8,227.5,478,226.6,476.9,226.6z M407.5,284.9v-54.5h67.5v54.5H407.5z"/>
<path class="st6" d="M565.8,226.6h-71.3c-1,0-1.9,0.8-1.9,1.9c0,0,0,0,0,0v58.3c0,1,0.8,1.9,1.9,1.9h71.3c1,0,1.9-0.8,1.9-1.9v-58.3
	C567.7,227.5,566.8,226.6,565.8,226.6z M496.4,284.9v-54.5h67.5v54.5H496.4z"/>
<path class="st6" d="M591.2,134.4h114.5c4.4,0,8,3.6,8,8v151.2c0,4.4-3.6,8-8,8H591.2c-4.4,0-8-3.6-8-8V142.4
	C583.2,138,586.7,134.4,591.2,134.4z"/>
<rect x="606.7" y="174.6" class="st8" width="73.9" height="3.3"/>
<rect x="606.7" y="185.3" class="st8" width="73.9" height="3.3"/>
<rect x="606.7" y="196" class="st8" width="49.3" height="3.3"/>
<rect x="606.7" y="206.7" class="st8" width="73.9" height="3.3"/>
<rect x="606.7" y="217.3" class="st8" width="49.3" height="3.3"/>
<rect x="606.7" y="228" class="st8" width="73.9" height="3.3"/>
<rect x="606.7" y="238.7" class="st8" width="49.3" height="3.3"/>
<rect x="606.7" y="249.4" class="st8" width="73.9" height="3.3"/>
<rect x="606.7" y="260" class="st8" width="49.3" height="3.3"/>
<path class="st9" d="M612,154.9h30.4c2.9,0,5.3,2.4,5.3,5.3v0c0,2.9-2.4,5.3-5.3,5.3H612c-2.9,0-5.3-2.4-5.3-5.3v0
	C606.7,157.3,609,154.9,612,154.9z"/>
<path class="st6" d="M93.8,0h141.6c4.4,0,8,3.6,8,8v130.9c0,4.4-3.6,8-8,8H93.8c-4.4,0-8-3.6-8-8V8C85.8,3.6,89.4,0,93.8,0z"/>
<rect x="97.3" y="106.2" class="st9" width="79.7" height="3.5"/>
<rect x="97.3" y="117.7" class="st9" width="53.1" height="3.5"/>
<path class="st9" d="M216.1,110.7h10.3c5,0,9,4,9,9V130c0,5-4,9-9,9h-10.3c-5,0-9-4-9-9v-10.3C207.1,114.7,211.1,110.7,216.1,110.7z
	"/>
<path class="st10" d="M93.8,0h141.6c4.4,0,8,3.6,8,8v87.6l0,0H85.8l0,0V8C85.8,3.6,89.4,0,93.8,0z"/>
<path class="st11" d="M85.8,49.2c0,0,22.7,28.1,50.6,25.8s38.8-20.2,62.7-20.2c31,0,44.3,9.5,44.3,9.5v31.2H85.8V49.2z"/>
<circle class="st8" cx="123" cy="34.5" r="8"/>
<rect x="148.6" y="53.1" class="st12" width="9.7" height="4.4"/>
<rect x="167.2" y="13.3" transform="matrix(0.6347 -0.7727 0.7727 0.6347 47.87 137.557)" class="st12" width="4.4" height="9.7"/>
<rect x="231" y="14.1" transform="matrix(0.9141 -0.4055 0.4055 0.9141 13.6215 97.0226)" class="st12" width="9.7" height="4.4"/>
<rect x="92" y="4.4" transform="matrix(0.9175 -0.3978 0.3978 0.9175 4.0747 38.2306)" class="st12" width="4.4" height="9.7"/>
<path class="st6" d="M188.7,30.6h169.5c4.8,0,8.7,3.9,8.7,8.7v32c0,4.8-3.9,8.7-8.7,8.7H188.7c-4.8,0-8.7-3.9-8.7-8.7v-32
	C179.9,34.5,183.8,30.6,188.7,30.6z"/>
<rect x="203.1" y="42.7" class="st8" width="140.7" height="3.4"/>
<rect x="203.1" y="53.6" class="st8" width="140.7" height="3.4"/>
<rect x="203.1" y="64.6" class="st8" width="93.8" height="3.4"/>
<linearGradient id="SVGID_00000090255153264401387640000002989967435653105074_" gradientUnits="userSpaceOnUse" x1="492.5103" y1="219.5994" x2="163.9102" y2="99.2294" gradientTransform="matrix(1 0 0 -1 0 430)">
	<stop  offset="0" style="stop-color:#F2BE3C"/>
	<stop  offset="1" style="stop-color:#FFAC00"/>
</linearGradient>
<path style="fill:url(#SVGID_00000090255153264401387640000002989967435653105074_);" d="M212.2,395.1c-89,0-118.6-52.8-121.7-80.7
	c-2.4-21,0.6-36.3,9.3-46.5c7.9-9.4,20.7-14.5,38.7-15.5v9.2c-15.5,0.9-25.4,4.8-31.6,12.2c-6.9,8.2-9.3,21.2-7.2,39.5
	c2.9,25.1,30.1,72.5,112.6,72.5c31.6,0,54.5-8.1,72.2-25.5c16.3-16,26.9-38.1,39.2-63.7c17.8-37,37.9-79,81.9-115.1
	c25.4-20.7,53.6-37.7,83.7-50.5c2.3-1,5.1,0.1,6,2.4c1,2.3-0.1,5.1-2.4,6c-29.3,12.4-56.8,29-81.5,49.1
	c-42.5,34.8-62.1,75.8-79.5,111.9c-12.1,25.3-23.5,49.1-41,66.3C271.4,386.2,246.4,395.1,212.2,395.1z"/>
<linearGradient id="SVGID_00000110431430271399463770000015994547733387820698_" gradientUnits="userSpaceOnUse" x1="649.2837" y1="302.5594" x2="666.8536" y2="110.1394" gradientTransform="matrix(1 0 0 -1 0 430)">
	<stop  offset="0" style="stop-color:#F2BE3C"/>
	<stop  offset="1" style="stop-color:#FFAC00"/>
</linearGradient>
<path style="fill:url(#SVGID_00000110431430271399463770000015994547733387820698_);" d="M664.1,415c-1.1,0-2.2-0.1-3.2-0.2
	c-13-1.3-25.6-11-36.5-27.9c-6-9.3-11.7-21.7-16.7-35.6h9.7c12,32.5,28.2,52.6,44.5,54.3c10.2,1,22.2-5,33.8-17.1
	c12.8-13.2,23.9-32,31.4-53.1c8.1-22.9,10.9-45.9,8.2-66.4c-4.1-31.3-22.2-61.8-51-86c-29.9-25.1-69-42.1-113-49.2
	c-2.5-0.3-4.3-2.6-4-5.2c0.3-2.5,2.6-4.3,5.2-4c0.1,0,0.2,0,0.3,0c45.6,7.3,86.2,25.1,117.4,51.2c30.5,25.6,49.8,58.3,54.2,91.9
	c6.3,48.4-16.4,100.6-42.1,127.1C689.5,408.2,676.4,415,664.1,415z"/>
<path class="st15" d="M522.8,119.4l-9.8,3.3c-0.8,0.3-1.8-0.2-2-1l0,0c-0.3-0.8,0.2-1.7,1-2l9.9-3.3c0.8-0.3,1.7,0.2,2,1l0,0
	C524.1,118.3,523.7,119.1,522.8,119.4z"/>
<path class="st15" d="M526.5,130.3l-9.9,3.3c-0.8,0.3-1.8-0.2-2-1l0,0c-0.3-0.8,0.2-1.7,1-2l9.9-3.3c0.8-0.3,1.8,0.2,2,1l0,0
	C527.7,129.1,527.3,130,526.5,130.3z"/>
<path class="st16" d="M515.8,142.2l-9.1,3c-8,2.7-16.7-1.7-19.4-9.7l0,0c-2.6-8,1.7-16.7,9.7-19.3l9.1-3L515.8,142.2z"/>
<path class="st16" d="M518.2,143.6L518.2,143.6c-1,0.3-2-0.2-2.4-1.2L506,113c-0.3-1,0.2-2,1.2-2.4l0,0c1-0.3,2,0.2,2.4,1.2
	c0,0,0,0,0,0l9.8,29.5C519.6,142.3,519.1,143.3,518.2,143.6z"/>
<path class="st16" d="M554.7,110.6l9.4,1.9c8.3,1.7,13.6,9.7,12,18l0,0c-1.7,8.3-9.7,13.7-18,12l-9.4-1.9L554.7,110.6z"/>
<path class="st6" d="M25.9,172.5h155.4c4.4,0,8,3.6,8,8v118.2c0,4.4-3.6,8-8,8H25.9c-4.4,0-8-3.6-8-8V180.5
	C17.9,176.1,21.4,172.5,25.9,172.5z"/>
<rect x="29.7" y="181.8" class="st9" width="51.5" height="7.6"/>
<path class="st8" d="M35.7,198.7h138.3c3.3,0,6,2.7,6,6v64c0,3.3-2.7,6-6,6H35.7c-3.3,0-6-2.7-6-6v-64
	C29.7,201.3,32.4,198.7,35.7,198.7z"/>
<rect x="38.1" y="224" class="st17" width="76" height="3.4"/>
<rect x="38.1" y="235" class="st17" width="76" height="3.4"/>
<rect x="38.1" y="245.9" class="st17" width="50.7" height="3.4"/>
<path class="st9" d="M150.9,239.2h9c5,0,9,4,9,9v9c0,5-4,9-9,9h-9c-5,0-9-4-9-9v-9C141.9,243.2,146,239.2,150.9,239.2z"/>
<path class="st9" d="M74.8,214.7H43.6c-3,0-5.5-2.5-5.5-5.5l0,0l0,0c0-3,2.5-5.5,5.5-5.5c0,0,0,0,0,0h31.2c3,0,5.5,2.4,5.5,5.5
	c0,0,0,0,0,0l0,0C80.3,212.2,77.9,214.7,74.8,214.7C74.8,214.7,74.8,214.7,74.8,214.7z"/>
<linearGradient id="SVGID_00000117653892979941334680000011579976973174526088_" gradientUnits="userSpaceOnUse" x1="107.5188" y1="118.2882" x2="53.1088" y2="77.4782" gradientTransform="matrix(1 0 0 -1 0 430)">
	<stop  offset="0" style="stop-color:#4E9CFF"/>
	<stop  offset="1" style="stop-color:#176AD4"/>
</linearGradient>
<path style="fill:url(#SVGID_00000117653892979941334680000011579976973174526088_);" d="M82.6,311.7c4.6,1.2,22.1,0.5,18.8-8.1
	c-3.7-9.6-13.6-1.2-17.9,4.1c1.3-7.2,1.9-14.4,1.8-21.7c3.1-3.8,9.8-27.8-3.3-26.6c-17.1,1.6-2,24.2,2,26.8c0,5.5-0.4,16.5-2.9,26
	c-0.5-6-6.6-23.2-14.6-17.2c-11.6,8.8,10.6,19.4,14,19.2c-0.9,3.3-2.3,6.4-4.2,9.2c-1.3,1.8-2.7,4-4.2,6.3l-0.1,0.1
	c-0.7-6.4-6.7-22.7-14.5-16.8c-10.8,8.2,7.8,18,13.1,19.1c-3.5,5.5-6.5,11.3-9.2,17.2c-0.4-5.8-11.6-17.5-16.1-10.8
	c-2.5,3.7,10.7,15.9,15.1,13.2c-2.5,6.1-4,11.7-3.5,15.9c0.2,1.5,0.5,3.3,0.8,5.3c-3.1-3.4-14.2-14.9-17.6-6
	c-2.8,7.3,6.5,11.6,10.3,11.6c3,0,6.2-2.9,7.5-4.1c0.2,1,0.4,2.1,0.5,3.2c1.6,9,3.4,19.9,2.9,26.5c-2.6-5.1-14.4-26.4-21.2-12.7
	c-3.5,7,6.5,12.9,10.3,14.2c3.2,1.1,8.8,0.1,10.8-0.3c-0.1,0.7-0.2,1.3-0.4,2c-2,5.4-4.5,10.5-7.7,15.3c-0.2,0.3-0.1,0.7,0.2,0.9
	c0.1,0.1,0.2,0.1,0.4,0.1c0.2,0,0.4-0.1,0.5-0.3c2.5-3.9,4.7-8,6.5-12.3c3-0.4,14.7-2,18.1-4.2c3.9-2.6,10.8-11,5.2-14.2
	c-8.7-4.8-17.9,8-21.9,14.7c1.5-5,0.2-15-1.4-24.4c3.1,0.9,13.3-0.9,16.8-3.2c3.9-2.6,10.5-9.3,6.4-12.9
	c-10.2-9.1-21.1,10.2-23.5,14.8c-0.2-1.5-0.5-2.9-0.7-4.3c-0.7-3.7-1.3-7.3-1.6-10c-0.5-3.8,1-9.4,3.5-15.6
	c5.3,1.6,10.9,2.1,16.5,1.5c9-1.3,13.6-8.3,10.3-11.6c-5.6-5.6-22.1,6-26.4,9.2c2.9-6.6,6.3-13,10.2-19.1c5.3,1.2,26.2,0.8,23.4-7.5
	s-13.6-2.7-19.9,2.2c0.5-0.8,1-1.5,1.6-2.3C79.8,320.4,81.6,316.1,82.6,311.7z"/>
<linearGradient id="SVGID_00000102537328034141666010000011624497918890378915_" gradientUnits="userSpaceOnUse" x1="27.7192" y1="84.0701" x2="19.1092" y2="3.1001" gradientTransform="matrix(1 0 0 -1 0 430)">
	<stop  offset="0" style="stop-color:#F2BE3C"/>
	<stop  offset="1" style="stop-color:#FFAC00"/>
</linearGradient>
<path style="fill:url(#SVGID_00000102537328034141666010000011624497918890378915_);" d="M45.3,391.5c-10.8-4.3-13.5,12.2-14,17.7
	c-2.5-8.2-3.3-16.9-2.3-25.4c1.6,0,8-0.3,12.5-2.6c5.2-2.6,8.3-12.9,3.9-14.2c-7.5-2.1-14.1,10.9-16.1,15.3c0.2-1,0.4-1.9,0.6-2.9
	c1.8-7,2.9-14.2,3.3-21.4c2,0,7.7-0.2,10.9-1.3c3.9-1.3,10.4-11.4,5.2-12.9c-7.2-2.1-13.7,8.3-15.9,12.5c0.4-8,0.1-15.6-1.2-20.9
	c1-3.6,1.5-7.3,1.7-11c0-5.2-6-15.3-11.6-10.3c-10.3,9.1,5.1,19.8,8.8,22.1c1.2,5.1,1.5,12.6,1.1,20.3c-2.3-5.8-11.6-26.7-22.8-16.6
	c-4.3,3.9,5.2,12.9,11.6,15.5c3.5,1.4,7.3,2.3,11.1,2.6c-0.4,7.1-1.6,14.2-3.3,21.1c-0.3,1.1-0.5,2.3-0.7,3.4
	c-2.5-4.9-13.8-25.9-26.4-16.8c-5.2,3.8,5.2,12.9,10.3,15.5c4.4,2.2,13.4,2.3,15.9,2.3c-0.9,8.5-0.2,17.2,2.2,25.4
	C26.1,403.2,15,388.5,6.6,398c-5,5.6,7.9,10.4,11.6,11.6c3.2,1.1,10.1,1.4,12.3,1.5c1.8,5.5,4.3,10.1,7.2,12.5
	c0.1,0.1,0.3,0.2,0.4,0.1c0.2,0,0.4-0.1,0.5-0.2c0.2-0.3,0.2-0.7-0.1-0.9c-2.8-2.3-5.2-6.7-6.9-12c3.4-1.4,6.6-3,9.7-4.9
	C45.3,403.1,51.2,393.9,45.3,391.5z"/>
<path class="st20" d="M73,423.7H14.3c-0.4,0-0.7-0.2-0.7-0.6s0.2-0.7,0.6-0.7c0.1,0,0.1,0,0.2,0H73c0.4,0,0.6,0.4,0.6,0.7
	C73.5,423.5,73.3,423.7,73,423.7z"/>
<path class="st20" d="M93.6,423.7H80.1c-0.4,0-0.7-0.2-0.7-0.6c0-0.4,0.2-0.7,0.6-0.7c0.1,0,0.1,0,0.2,0h13.5c0.4,0,0.7,0.2,0.7,0.6
	c0,0.4-0.2,0.7-0.6,0.7C93.7,423.7,93.7,423.7,93.6,423.7z"/>
<linearGradient id="SVGID_00000150787999462122039550000015401898916512844934_" gradientUnits="userSpaceOnUse" x1="814.1776" y1="88.6666" x2="774.1575" y2="58.6566" gradientTransform="matrix(1 0 0 -1 0 430)">
	<stop  offset="0" style="stop-color:#4E9CFF"/>
	<stop  offset="1" style="stop-color:#176AD4"/>
</linearGradient>
<path style="fill:url(#SVGID_00000150787999462122039550000015401898916512844934_);" d="M795.9,341.3c3.4,0.9,16.2,0.4,13.8-6
	c-2.7-7-10-0.9-13.1,3c0.9-5.3,1.4-10.6,1.3-16c2.3-2.8,7.2-20.4-2.4-19.5c-12.6,1.1-1.4,17.8,1.5,19.7c0.1,6.4-0.6,12.9-2.1,19.1
	c-0.4-4.5-4.8-17.1-10.7-12.6c-8.5,6.5,7.8,14.3,10.3,14.1c-0.7,2.4-1.7,4.7-3.1,6.8c-1,1.4-2,2.9-3.1,4.6l-0.1,0.1
	c-0.5-4.7-4.9-16.7-10.7-12.3c-8,6,5.7,13.2,9.6,14c-2.5,4.1-4.8,8.3-6.8,12.7c-0.3-4.2-8.6-12.9-11.8-7.9
	c-1.8,2.8,7.9,11.7,11.1,9.7c-1.8,4.5-2.9,8.6-2.5,11.7c0.1,1.1,0.3,2.4,0.6,3.9c-2.3-2.5-10.5-10.9-12.9-4.4
	c-2,5.4,4.7,8.5,7.6,8.5c2.2,0,4.6-2.1,5.5-3c0.1,0.8,0.3,1.6,0.4,2.4c1.2,6.6,2.5,14.6,2.1,19.5c-1.9-3.8-10.6-19.4-15.6-9.3
	c-2.6,5.2,4.7,9.5,7.6,10.4c2.3,0.8,6.5,0.1,7.9-0.2c-0.1,0.5-0.2,1-0.3,1.5c-1.4,4-3.3,7.8-5.6,11.3c-0.1,0.2-0.1,0.5,0.1,0.6
	c0,0,0,0,0,0c0.1,0.1,0.2,0.1,0.3,0.1c0.2,0,0.3-0.1,0.4-0.2c1.8-2.9,3.5-5.9,4.8-9c2.2-0.3,10.8-1.5,13.3-3.1
	c2.8-1.9,7.9-8.1,3.8-10.4c-6.4-3.6-13.1,5.9-16.1,10.8c1.1-3.7,0.1-11-1-17.9c2.3,0.7,9.8-0.6,12.3-2.4c2.8-1.9,7.8-6.8,4.7-9.5
	c-7.5-6.7-15.5,7.5-17.2,10.9c-0.2-1.1-0.4-2.1-0.5-3.2c-0.5-2.8-0.9-5.4-1.2-7.3c-0.4-2.8,0.7-6.9,2.6-11.5
	c3.9,1.2,8.1,1.6,12.1,1.1c6.6-1,10-6.1,7.6-8.5c-4.1-4.1-16.3,4.4-19.4,6.7c2.1-4.9,4.7-9.6,7.5-14.1c3.9,0.9,19.3,0.6,17.2-5.5
	s-10-2-14.6,1.6c0.4-0.6,0.8-1.1,1.2-1.7C793.9,347.7,795.2,344.6,795.9,341.3z"/>
<linearGradient id="SVGID_00000058550461592117169310000001890389547478620572_" gradientUnits="userSpaceOnUse" x1="755.5301" y1="63.4689" x2="749.1901" y2="3.9389" gradientTransform="matrix(1 0 0 -1 0 430)">
	<stop  offset="0" style="stop-color:#F2BE3C"/>
	<stop  offset="1" style="stop-color:#FFAC00"/>
</linearGradient>
<path style="fill:url(#SVGID_00000058550461592117169310000001890389547478620572_);" d="M768.4,400c-8-3.2-9.9,9-10.3,13
	c-1.8-6-2.4-12.4-1.7-18.7c1.2,0,5.9-0.2,9.2-1.9c3.8-1.9,6.1-9.5,2.8-10.4c-5.5-1.6-10.4,8-11.9,11.3c0.1-0.7,0.3-1.5,0.5-2.1
	c1.3-5.2,2.1-10.4,2.5-15.8c2.7,0,5.4-0.3,8-0.9c2.8-1,7.7-8.4,3.8-9.5c-5.3-1.5-10,6.1-11.7,9.2c0.3-5.9,0.1-11.5-0.9-15.3
	c0.7-2.6,1.1-5.3,1.2-8.1c0-3.8-4.4-11.3-8.5-7.6c-7.5,6.7,3.8,14.5,6.5,16.3c0.9,3.8,1.1,9.2,0.8,14.9c-1.7-4.3-8.5-19.6-16.7-12.2
	c-3.2,2.8,3.8,9.5,8.5,11.4c2.6,1.1,5.4,1.7,8.2,1.9c-0.3,5.2-1.1,10.4-2.4,15.5c-0.2,0.8-0.4,1.6-0.5,2.5
	c-1.8-3.6-10.2-19-19.4-12.3c-3.8,2.8,3.8,9.5,7.6,11.4c3.2,1.6,9.9,1.7,11.7,1.7c-0.7,6.3-0.1,12.6,1.6,18.7
	c-2.8-4.2-10.9-15-17.1-8.1c-3.7,4.1,5.8,7.6,8.5,8.5c2.4,0.8,7.5,1,9.1,1.1c1.3,4.1,3.2,7.5,5.3,9.2c0.1,0.1,0.2,0.1,0.3,0.1
	c0.1,0,0.3-0.1,0.4-0.2c0.2-0.2,0.1-0.5,0-0.6c0,0,0,0,0,0c-2-1.7-3.8-4.9-5.1-8.8c2.5-1,4.9-2.2,7.2-3.6
	C768.4,408.6,772.8,401.8,768.4,400z"/>
<path class="st20" d="M788.8,423.7h-43.1c-0.3,0-0.5-0.2-0.5-0.5s0.2-0.5,0.5-0.5l0,0h43.1c0.3,0,0.5,0.2,0.5,0.5
	S789,423.7,788.8,423.7z"/>
<path class="st20" d="M804,423.7h-10c-0.3,0-0.5-0.2-0.5-0.5s0.2-0.5,0.5-0.5l0,0h10c0.3,0,0.5,0.2,0.5,0.5S804.3,423.7,804,423.7z"
	/>
</svg>
