<?xml version="1.0" encoding="utf-8"?>
<!-- Generator: Adobe Illustrator 26.2.1, SVG Export Plug-In . SVG Version: 6.00 Build 0)  -->
<svg version="1.1" id="Layer_1" xmlns="http://www.w3.org/2000/svg" xmlns:xlink="http://www.w3.org/1999/xlink" x="0px" y="0px"
	 viewBox="0 0 1180.7 781.6" style="enable-background:new 0 0 1180.7 781.6;" xml:space="preserve">
<style type="text/css">
	.st0{fill:none;}
	.st1{fill:#D1E2FA;}
	.st2{fill:#246A84;}
	.st3{fill:#0097FA;}
</style>
<rect class="st0" width="1180.7" height="781.6"/>
<path class="st1" d="M961.4,379.3c0,147.6-84.3,275.5-207.4,338.2c-19.6,10-40.3,18.3-61.7,24.8l0,0h-0.1c-4.8,1.5-9.6,2.8-14.5,4.1
	c-15.1,3.9-30.6,7-46.4,9c-0.5,0.1-0.9,0.1-1.4,0.2c-15.6,2-31.6,3-47.8,3c-2,0-4,0-5.9,0c-2.3,0-4.5-0.1-6.8-0.2
	c-3.8-0.1-7.7-0.3-11.5-0.5h-0.1c-49.5-3.1-96.3-15.7-138.9-36c-127.8-61-216.2-191.4-216.2-342.5C202.8,169.8,372.6,0,582.1,0
	S961.4,169.8,961.4,379.3z"/>
<path class="st2" d="M648.9,210.4c38.5-4.4,428.4-100.1,428.4-100.1s9.3,231.1-0.6,229.6c-9.9-1.5-427.8-95.4-427.8-95.4
	c-5.7-3.9-8.8-11-8.5-18.4C640.9,216,648.1,210.7,648.9,210.4z"/>
<path class="st2" d="M1050.2,223.4c0,64.9,14.5,117.6,32.4,117.6s32.4-52.7,32.4-117.6s-14.5-117.6-32.4-117.6
	c-2.2,0-4.5,0.9-6.6,2.4C1061.5,119.1,1050.2,166.5,1050.2,223.4z"/>
<ellipse class="st3" cx="1082.6" cy="222.2" rx="24.7" ry="93.3"/>
</svg>
