<svg xmlns="http://www.w3.org/2000/svg" viewBox="0 0 447.7 375.61"><defs><style>.cls-1{fill:#ebebeb;}.cls-2{fill:#dbdbdb;}.cls-3{fill:#263238;}.cls-4{fill:#455a64;}.cls-5{fill:#37474f;}.cls-6{fill:#ffc727;}.cls-7{opacity:0.1;}.cls-8{fill:#fff;}.cls-9{opacity:0.3;}</style></defs><g id="Layer_2" data-name="Layer 2"><g id="Background_Complete" data-name="Background Complete"><polygon class="cls-1" points="188.92 331.11 10.19 331.11 33.36 274.15 45.6 267.44 64.87 222.89 80.45 213.74 95.27 186.94 109.89 186.94 142.39 241.81 158.93 250.35 188.92 331.11"/><polygon class="cls-2" points="10.19 331.11 87.28 331.11 87.28 286.66 107.06 255.54 97.64 222.89 109.89 186.94 95.27 186.94 80.45 213.74 64.87 222.89 45.6 267.44 33.36 274.15 10.19 331.11"/><polygon class="cls-2" points="109.89 331.11 117.36 307.71 129.44 295.81 134.84 281.78 138.6 284.83 138.6 298.25 129.44 308.93 129.44 331.2 109.89 331.11"/><polygon class="cls-2" points="124.25 259.03 126.25 249.64 131.64 244.25 134.16 247.45 130.8 251.64 132.31 260.57 124.25 259.03"/><polygon class="cls-1" points="176.06 331.07 437.51 331.07 388.18 228.04 364.45 217.87 339.26 168.65 322.65 150.79 308.01 118.2 290.87 120.98 261.56 189.26 245.19 201.47 218.61 271.79 192.43 297.23 176.06 331.07"/><polygon class="cls-2" points="308.01 118.2 310.02 169.54 290.72 196.5 299.77 217.14 281.85 262.64 297.47 300.28 288.22 331.07 176.06 331.07 192.43 297.23 218.61 271.79 245.19 201.47 261.56 189.26 290.87 120.98 308.01 118.2"/><polygon class="cls-2" points="303.19 249.41 316.65 226.01 315.6 216.09 320.61 208.97 326.68 229.19 308.47 249.41 303.19 249.41"/><polygon class="cls-2" points="292.63 77.4 293.58 79.33 295.72 79.64 294.18 81.15 294.54 83.28 292.63 82.27 290.72 83.28 291.08 81.15 289.54 79.64 291.67 79.33 292.63 77.4"/><polygon class="cls-2" points="113.12 174.18 114.08 176.12 116.21 176.43 114.67 177.94 115.03 180.06 113.12 179.06 111.21 180.06 111.58 177.94 110.03 176.43 112.17 176.12 113.12 174.18"/><polygon class="cls-2" points="362.52 6.46 363.48 8.39 365.62 8.7 364.07 10.21 364.43 12.33 362.52 11.33 360.61 12.33 360.98 10.21 359.43 8.7 361.57 8.39 362.52 6.46"/><polygon class="cls-2" points="148.03 9.39 148.99 11.33 151.12 11.64 149.58 13.15 149.94 15.27 148.03 14.27 146.12 15.27 146.49 13.15 144.94 11.64 147.08 11.33 148.03 9.39"/><polygon class="cls-2" points="420 168.31 420.96 170.24 423.1 170.55 421.55 172.06 421.92 174.18 420 173.18 418.1 174.18 418.46 172.06 416.91 170.55 419.05 170.24 420 168.31"/><polygon class="cls-2" points="209.56 74.07 210.51 76.01 212.65 76.32 211.1 77.82 211.47 79.95 209.56 78.95 207.65 79.95 208.01 77.82 206.47 76.32 208.6 76.01 209.56 74.07"/><polygon class="cls-2" points="19.29 34.21 20.24 36.15 22.38 36.46 20.83 37.97 21.2 40.09 19.29 39.09 17.38 40.09 17.74 37.97 16.19 36.46 18.33 36.15 19.29 34.21"/><polygon class="cls-2" points="60.5 149.77 61.45 151.7 63.59 152.01 62.04 153.52 62.41 155.65 60.5 154.64 58.59 155.65 58.95 153.52 57.41 152.01 59.54 151.7 60.5 149.77"/><polygon class="cls-2" points="19.29 182.71 19.88 183.91 21.2 184.1 20.24 185.03 20.47 186.34 19.29 185.72 18.1 186.34 18.33 185.03 17.38 184.1 18.7 183.91 19.29 182.71"/><polygon class="cls-2" points="153.58 61.3 154.17 62.5 155.49 62.69 154.53 63.62 154.76 64.93 153.58 64.31 152.4 64.93 152.62 63.62 151.66 62.69 152.99 62.5 153.58 61.3"/><polygon class="cls-2" points="252.79 167.61 253.38 168.81 254.7 169 253.75 169.93 253.97 171.25 252.79 170.62 251.61 171.25 251.84 169.93 250.88 169 252.2 168.81 252.79 167.61"/><polygon class="cls-2" points="29.66 44.58 30.25 45.78 31.57 45.97 30.61 46.9 30.84 48.22 29.66 47.6 28.48 48.22 28.7 46.9 27.75 45.97 29.07 45.78 29.66 44.58"/><polygon class="cls-2" points="365.62 150.89 366.2 152.09 367.52 152.28 366.57 153.21 366.8 154.53 365.62 153.9 364.43 154.53 364.66 153.21 363.7 152.28 365.02 152.09 365.62 150.89"/><polygon class="cls-2" points="68.47 207.15 69.06 208.35 70.38 208.54 69.43 209.47 69.65 210.78 68.47 210.16 67.29 210.78 67.52 209.47 66.56 208.54 67.88 208.35 68.47 207.15"/><polygon class="cls-2" points="45.55 143.32 46.14 144.51 47.46 144.71 46.51 145.64 46.73 146.95 45.55 146.33 44.37 146.95 44.6 145.64 43.64 144.71 44.96 144.51 45.55 143.32"/><polygon class="cls-2" points="239.33 52.03 239.92 53.23 241.24 53.42 240.28 54.35 240.51 55.67 239.33 55.05 238.15 55.67 238.37 54.35 237.42 53.42 238.74 53.23 239.33 52.03"/><polygon class="cls-2" points="370.29 207.15 370.88 208.35 372.2 208.54 371.25 209.47 371.47 210.78 370.29 210.16 369.11 210.78 369.33 209.47 368.38 208.54 369.7 208.35 370.29 207.15"/><polygon class="cls-2" points="429.6 93 430.19 94.2 431.51 94.39 430.55 95.32 430.78 96.64 429.6 96.02 428.42 96.64 428.64 95.32 427.69 94.39 429.01 94.2 429.6 93"/><polygon class="cls-2" points="377.47 91.19 378.06 92.38 379.38 92.57 378.42 93.5 378.65 94.82 377.47 94.2 376.29 94.82 376.51 93.5 375.56 92.57 376.88 92.38 377.47 91.19"/><path class="cls-2" d="M339.2,38.77A26.34,26.34,0,1,1,310.5,0a24.64,24.64,0,1,0,28.7,38.77Z"/></g><g id="Floor"><path class="cls-3" d="M10,331.11c137-.62,290.7-.62,427.7,0-137,.61-290.69.61-427.7,0Z"/><path class="cls-4" d="M443.22,340.07H4.48A4.49,4.49,0,0,1,0,335.59H0a4.48,4.48,0,0,1,4.48-4.48H443.22a4.47,4.47,0,0,1,4.48,4.48h0A4.48,4.48,0,0,1,443.22,340.07Z"/><rect class="cls-4" x="72.95" y="348.93" width="285.53" height="8.96" rx="4.48"/><path class="cls-4" d="M329.16,375.61H127.67a4.48,4.48,0,0,1-4.48-4.48h0a4.49,4.49,0,0,1,4.48-4.48H329.16a4.48,4.48,0,0,1,4.48,4.48h0A4.47,4.47,0,0,1,329.16,375.61Z"/><rect class="cls-4" x="33.23" y="348.93" width="30.01" height="8.96" rx="4.48"/><path class="cls-4" d="M364,375.61H353.45a4.48,4.48,0,0,1-4.48-4.48h0a4.49,4.49,0,0,1,4.48-4.48H364a4.49,4.49,0,0,1,4.48,4.48h0A4.48,4.48,0,0,1,364,375.61Z"/><path class="cls-4" d="M207.33,349H91.44a4.48,4.48,0,1,0,0-9H207.33a4.48,4.48,0,0,0,0,9Z"/><path class="cls-4" d="M327.68,349h-76a4.48,4.48,0,0,0,0-9h76a4.48,4.48,0,0,0,0,9Z"/><path class="cls-4" d="M270.19,366.75H153.58a4.48,4.48,0,0,0,0-9H270.19a4.48,4.48,0,1,0,0,9Z"/></g><g id="Mountains"><polygon class="cls-4" points="39.98 331.03 318.99 331.03 268.06 205.47 243.56 193.07 217.56 133.09 200.41 111.31 185.29 71.6 167.59 74.98 137.33 158.2 120.44 173.08 83.91 258.79 56.88 289.78 39.98 331.03"/><polygon class="cls-5" points="185.29 71.6 187.36 134.17 167.44 167.03 176.78 192.18 158.28 247.63 174.41 293.5 164.86 331.03 39.98 331.03 56.88 289.78 83.91 258.79 120.44 173.08 137.33 158.2 167.59 74.98 185.29 71.6"/><polygon class="cls-5" points="180.31 231.51 194.21 202.99 193.12 190.9 198.3 182.22 204.57 206.86 185.76 231.51 180.31 231.51"/><polygon class="cls-5" points="407.72 331.05 201.13 331.05 228.42 264.02 247.7 248.54 267.59 190.83 283.68 178.97 298.97 144.25 314.07 144.25 347.63 215.34 364.7 226.41 407.72 331.05"/><polygon class="cls-3" points="201.13 331.05 290.73 331.05 290.73 273.45 311.15 233.13 301.42 190.83 314.07 144.25 298.97 144.25 283.68 178.97 267.59 190.83 247.7 248.54 228.42 264.02 201.13 331.05"/><polygon class="cls-3" points="314.07 331.05 321.78 300.73 334.26 285.31 339.82 267.12 343.71 271.08 343.71 288.47 334.26 302.31 334.26 331.16 314.07 331.05"/><polygon class="cls-3" points="328.89 237.65 330.96 225.48 336.52 218.5 339.13 222.65 335.65 228.07 337.22 239.65 328.89 237.65"/></g><g id="Trees"><path class="cls-3" d="M52.54,330.8c-1.15,1.14-14.51,1.65-19.37,1.65S15,331.94,13.8,330.8s15-90,19.37-90S53.68,329.65,52.54,330.8Z"/><path class="cls-5" d="M52.8,308.17c-3.3,1.26-15.53,6.24-18.17,7.69,0-.56,0-1.12,0-1.67,3-1.74,5.92-3.46,8.87-5.18A101.68,101.68,0,0,0,53,303.34c.14-.11.06-.4-.14-.32a78.58,78.58,0,0,0-9.33,5.16c-3,1.76-6,3.58-9,5.41q0-6.39,0-12.77a101.36,101.36,0,0,0,13.94-7.08c.15-.09.05-.37-.13-.3a102.38,102.38,0,0,0-13.82,6.81c0-2.21,0-4.43,0-6.64-.13-11.4-.15-22.81-.44-34.2,2.9-1.47,5.89-2.76,8.79-4.23.19-.09.05-.42-.15-.35-2.94,1.15-5.77,2.51-8.66,3.78-.16-5.88-.38-11.76-.74-17.63a.15.15,0,0,0-.3,0c-.41,10.92-.38,21.85-.24,32.77-3-2.39-6.21-4.51-9.26-6.84-.12-.09-.24.11-.12.2,3.2,2.43,6.19,5.13,9.39,7.55l0,1.85c-3.26-1.49-6.57-2.87-9.86-4.28-.26-.11-.49.26-.22.38,3.35,1.61,6.69,3.25,10.09,4.77.08,5.41.17,10.82.24,16.23.12,9.45.33,18.9.53,28.34q-9.23-4.67-18.58-9.07c-.24-.11-.45.22-.21.36a193.2,193.2,0,0,0,18.81,9.44c.16,7.85.32.71.43,8.56a.37.37,0,0,0,.74,0c-.11-10-.13-5-.16-15.05,3.25-.8,15.49-6,18.4-7.48C53.33,308.56,53.12,308,52.8,308.17Z"/><path class="cls-3" d="M152.52,330.73c-1,1-12.45,1.42-16.62,1.42s-15.64-.44-16.62-1.42,12.9-77.2,16.62-77.2S153.5,329.74,152.52,330.73Z"/><path class="cls-5" d="M152.75,311.3c-2.83,1.09-13.33,5.36-15.59,6.61,0-.48,0-1,0-1.44,2.53-1.49,5.07-3,7.61-4.44a87.44,87.44,0,0,0,8.19-4.87c.13-.09.06-.34-.11-.27a66.76,66.76,0,0,0-8,4.43c-2.58,1.51-5.13,3.07-7.67,4.64,0-3.65,0-7.31-.05-11a86.67,86.67,0,0,0,12-6.08c.13-.08.05-.32-.11-.25a86.83,86.83,0,0,0-11.85,5.84c0-1.9,0-3.8,0-5.7-.11-9.78-.13-19.57-.38-29.35,2.49-1.25,5.06-2.36,7.54-3.62.17-.08.05-.37-.12-.3-2.53,1-5,2.15-7.43,3.24-.14-5-.33-10.09-.64-15.13a.13.13,0,0,0-.26,0c-.35,9.37-.32,18.75-.2,28.12-2.58-2-5.33-3.87-7.95-5.87-.1-.08-.2.09-.1.17,2.74,2.09,5.31,4.4,8.06,6.48,0,.53,0,1.06,0,1.59-2.8-1.28-5.63-2.47-8.46-3.68-.22-.09-.42.23-.19.33,2.88,1.38,5.74,2.79,8.66,4.09.06,4.65.14,9.29.2,13.93.11,8.11.29,16.22.46,24.33-5.27-2.67-10.6-5.27-15.94-7.79-.21-.1-.39.19-.18.31a166.44,166.44,0,0,0,16.13,8.1c.15,6.74.29,1.65.37,8.39a.32.32,0,0,0,.64,0c-.09-8.59-.11-5.36-.13-14,2.78-.68,13.29-5.18,15.79-6.42C153.21,311.65,153,311.2,152.75,311.3Z"/><path class="cls-3" d="M44.21,331.13c.83.83,10.48,1.2,14,1.2s13.16-.37,14-1.2-10.86-65-14-65S43.38,330.3,44.21,331.13Z"/><path class="cls-4" d="M44,314.77c2.39.91,11.23,4.51,13.14,5.56v-1.21l-6.41-3.74a73.71,73.71,0,0,1-6.9-4.1c-.1-.07,0-.29.1-.23a58.38,58.38,0,0,1,6.75,3.73c2.17,1.28,4.32,2.59,6.46,3.91q0-4.6,0-9.23a73.78,73.78,0,0,1-10.07-5.11c-.11-.07,0-.27.09-.22a74,74,0,0,1,10,4.92c0-1.6,0-3.2,0-4.8.09-8.23.1-16.48.31-24.71-2.09-1.06-4.25-2-6.34-3.06-.14-.07,0-.31.1-.25,2.13.83,4.17,1.82,6.26,2.73q.16-6.37.53-12.74a.11.11,0,0,1,.22,0c.3,7.89.27,15.79.17,23.68,2.18-1.73,4.49-3.26,6.7-4.94.08-.07.17.08.08.14-2.31,1.76-4.47,3.71-6.78,5.46,0,.45,0,.89,0,1.34,2.35-1.08,4.74-2.08,7.12-3.1.19-.08.35.19.16.28-2.42,1.16-4.84,2.35-7.29,3.44q-.09,5.87-.17,11.73c-.09,6.83-.24,13.66-.39,20.49q6.67-3.37,13.43-6.56c.17-.08.32.16.15.26a140.2,140.2,0,0,1-13.59,6.82c-.12,5.68-.24,1.26-.31,6.94a.27.27,0,0,1-.53,0c.07-7.24.09-4.39.11-11.63-2.35-.57-11.2-4.36-13.3-5.4C43.63,315.06,43.78,314.69,44,314.77Z"/><path class="cls-3" d="M398.62,330.6c-1.06,1-13.39,1.52-17.87,1.52s-16.82-.47-17.87-1.52,13.87-83,17.87-83S399.68,329.54,398.62,330.6Z"/><path class="cls-4" d="M398.87,309.71c-3.05,1.16-14.33,5.76-16.77,7.1,0-.52,0-1,0-1.54l8.19-4.78a95,95,0,0,0,8.81-5.23c.13-.1.06-.38-.13-.3a72.93,72.93,0,0,0-8.61,4.76c-2.78,1.63-5.52,3.3-8.26,5,0-3.93,0-7.86,0-11.79a92.47,92.47,0,0,0,12.86-6.54c.14-.08.05-.34-.11-.27A94.22,94.22,0,0,0,382,302.4c0-2,0-4.08-.05-6.12-.11-10.52-.13-21-.4-31.57,2.68-1.35,5.44-2.54,8.11-3.89.18-.09.05-.4-.14-.33-2.71,1.06-5.32,2.32-8,3.49-.14-5.43-.35-10.85-.68-16.27a.14.14,0,0,0-.28,0c-.38,10.07-.34,20.16-.22,30.24-2.77-2.21-5.73-4.17-8.55-6.31-.11-.09-.21.1-.1.18,2.95,2.24,5.71,4.73,8.66,7,0,.57,0,1.14,0,1.71-3-1.38-6.05-2.65-9.09-4-.24-.1-.45.24-.21.36,3.1,1.48,6.18,3,9.32,4.4q.1,7.49.22,15c.11,8.72.3,17.44.49,26.15q-8.52-4.31-17.15-8.37c-.22-.1-.41.21-.19.33a181.45,181.45,0,0,0,17.35,8.72c.16,7.24.31,1.77.4,9a.34.34,0,0,0,.68,0c-.1-9.24-.11-5.76-.14-15,3-.74,14.3-5.58,17-6.91C399.36,310.08,399.16,309.6,398.87,309.71Z"/><path class="cls-3" d="M347.62,330.6c-1.06,1-13.39,1.52-17.88,1.52s-16.81-.47-17.87-1.52,13.87-83,17.87-83S348.67,329.54,347.62,330.6Z"/><path class="cls-4" d="M347.86,309.71c-3,1.16-14.33,5.76-16.77,7.1v-1.54q4.08-2.4,8.18-4.78a95,95,0,0,0,8.81-5.23c.13-.1.06-.38-.12-.3a73.05,73.05,0,0,0-8.62,4.76c-2.78,1.63-5.52,3.3-8.25,5,0-3.93,0-7.86,0-11.79a93.6,93.6,0,0,0,12.86-6.54c.14-.08,0-.34-.12-.27A94.8,94.8,0,0,0,331,302.4q0-3.06,0-6.12c-.11-10.52-.14-21-.4-31.57,2.67-1.35,5.43-2.54,8.1-3.89.18-.09.06-.4-.13-.33-2.72,1.06-5.33,2.32-8,3.49-.15-5.43-.36-10.85-.69-16.27a.14.14,0,0,0-.28,0c-.37,10.07-.34,20.16-.21,30.24-2.78-2.21-5.73-4.17-8.55-6.31-.11-.09-.22.1-.11.18,2.95,2.24,5.71,4.73,8.67,7,0,.57,0,1.14,0,1.71-3-1.38-6.06-2.65-9.1-4-.23-.1-.45.24-.2.36,3.09,1.48,6.18,3,9.31,4.4.07,5,.16,10,.22,15,.11,8.72.31,17.44.49,26.15q-8.5-4.31-17.15-8.37c-.22-.1-.41.21-.19.33a180.45,180.45,0,0,0,17.36,8.72c.15,7.24.3,1.77.39,9a.35.35,0,0,0,.69,0c-.1-9.24-.12-5.76-.15-15,3-.74,14.3-5.58,17-6.91C348.35,310.08,348.16,309.6,347.86,309.71Z"/><path class="cls-3" d="M341,331.39c.74.74,9.36,1.06,12.49,1.06s11.76-.32,12.5-1.06-9.7-58-12.5-58S340.3,330.65,341,331.39Z"/><path class="cls-5" d="M340.87,316.79c2.13.81,10,4,11.72,5v-1.08c-1.9-1.12-3.81-2.22-5.72-3.33s-4.24-2.26-6.15-3.66c-.1-.07,0-.26.09-.21a52.79,52.79,0,0,1,6,3.33c1.94,1.13,3.85,2.31,5.77,3.49,0-2.75,0-5.49,0-8.24a65.44,65.44,0,0,1-9-4.57c-.1-.06,0-.24.08-.19a66.33,66.33,0,0,1,8.91,4.39l0-4.28c.08-7.35.1-14.71.28-22.06-1.87-.94-3.79-1.77-5.66-2.72-.12-.06,0-.28.09-.23,1.9.74,3.73,1.62,5.59,2.44.1-3.79.25-7.58.48-11.37a.1.1,0,1,1,.19,0c.26,7,.24,14.09.15,21.13,1.94-1.54,4-2.91,6-4.41.08-.06.15.07.07.13-2.06,1.57-4,3.31-6.05,4.87,0,.4,0,.8,0,1.19,2.1-1,4.23-1.85,6.36-2.76.16-.07.31.17.14.25-2.16,1-4.32,2.09-6.51,3.07-.05,3.49-.11,7-.15,10.47-.08,6.1-.21,12.19-.34,18.28,4-2,8-4,12-5.85.15-.07.29.14.13.23a124.76,124.76,0,0,1-12.12,6.09c-.11,5.07-.22,1-.28,6.07a.24.24,0,0,1-.48,0c.07-6.45.08-3.79.1-10.25a119.37,119.37,0,0,1-11.87-4.83C340.53,317.05,340.66,316.71,340.87,316.79Z"/><path class="cls-3" d="M101.37,331.27c.74.74,9.36,1.07,12.5,1.07s11.75-.33,12.49-1.07-9.7-58-12.49-58S100.63,330.53,101.37,331.27Z"/><path class="cls-5" d="M101.2,316.67c2.13.82,10,4,11.72,5,0-.36,0-.72,0-1.08l-5.72-3.34a65.71,65.71,0,0,1-6.16-3.66c-.09-.07,0-.26.09-.21a52,52,0,0,1,6,3.33c1.94,1.14,3.86,2.31,5.77,3.49,0-2.74,0-5.49,0-8.23a66.58,66.58,0,0,1-9-4.57c-.09-.06,0-.24.08-.19a64.69,64.69,0,0,1,8.92,4.39c0-1.43,0-2.86,0-4.28.07-7.35.09-14.71.28-22.06-1.87-1-3.8-1.78-5.67-2.73a.12.12,0,0,1,.1-.22c1.89.74,3.72,1.62,5.58,2.43.1-3.79.25-7.58.48-11.37a.1.1,0,0,1,.19,0c.27,7,.24,14.09.16,21.14,1.93-1.55,4-2.91,6-4.42.08-.05.15.08.08.13-2.07,1.57-4,3.31-6.06,4.87,0,.4,0,.8,0,1.2,2.1-1,4.24-1.86,6.36-2.77.16-.07.31.17.14.25-2.16,1-4.31,2.1-6.5,3.08,0,3.49-.11,7-.16,10.47-.08,6.09-.21,12.18-.34,18.28q5.94-3,12-5.86c.15-.07.29.15.14.24A128.42,128.42,0,0,1,113.58,326c-.11,5.06-.22,1.12-.28,6.18a.24.24,0,0,1-.48,0c.07-6.45.08-3.91.1-10.37A119.31,119.31,0,0,1,101.05,317C100.86,316.93,101,316.6,101.2,316.67Z"/><path class="cls-3" d="M175.57,331.16c.74.74,9.36,1.06,12.5,1.06s11.75-.32,12.49-1.06-9.7-58-12.49-58S174.83,330.42,175.57,331.16Z"/><path class="cls-5" d="M175.4,316.56c2.13.81,10,4,11.72,5,0-.36,0-.72,0-1.08l-5.73-3.33c-2-1.2-4.24-2.26-6.15-3.66-.09-.07,0-.26.09-.21a52,52,0,0,1,6,3.33c1.94,1.13,3.85,2.31,5.77,3.49,0-2.75,0-5.49,0-8.24a65.44,65.44,0,0,1-9-4.57c-.1-.06,0-.24.08-.19a66.33,66.33,0,0,1,8.91,4.39l0-4.28c.08-7.35.1-14.71.29-22.06-1.88-.94-3.8-1.77-5.67-2.72-.12-.06,0-.28.09-.23,1.9.74,3.73,1.62,5.59,2.44.1-3.79.25-7.58.48-11.37a.1.1,0,1,1,.19,0c.26,7,.24,14.09.15,21.13,1.94-1.54,4-2.91,6-4.41.08-.06.15.07.07.13-2.06,1.57-4,3.3-6.05,4.87,0,.4,0,.79,0,1.19,2.1-1,4.23-1.85,6.36-2.76.16-.07.31.17.14.25-2.16,1-4.32,2.09-6.51,3.07-.05,3.49-.11,7-.15,10.47-.08,6.09-.21,12.19-.34,18.28,4-2,8-4,12-5.85.15-.07.29.14.14.23a126.07,126.07,0,0,1-12.13,6.09c-.11,5.07-.22,1.24-.28,6.3a.24.24,0,0,1-.48,0c.07-6.45.08-4,.1-10.48a119.37,119.37,0,0,1-11.87-4.83C175.06,316.82,175.19,316.48,175.4,316.56Z"/><path class="cls-3" d="M408.94,331.16c.74.74,9.36,1.06,12.49,1.06s11.75-.32,12.49-1.06-9.7-58-12.49-58S408.2,330.42,408.94,331.16Z"/><path class="cls-5" d="M408.77,316.56c2.12.81,10,4,11.72,5v-1.08c-1.9-1.12-3.81-2.22-5.72-3.33a70.34,70.34,0,0,1-6.16-3.66c-.09-.07,0-.26.09-.21a51.14,51.14,0,0,1,6,3.33c1.94,1.13,3.86,2.31,5.77,3.49,0-2.75,0-5.49,0-8.24a64.88,64.88,0,0,1-9-4.57c-.1-.06,0-.24.08-.19a66.33,66.33,0,0,1,8.91,4.39l0-4.28c.08-7.35.09-14.71.28-22.06-1.87-.94-3.8-1.77-5.67-2.72-.12-.06,0-.28.1-.23,1.9.74,3.72,1.62,5.59,2.44.1-3.79.24-7.58.47-11.37a.1.1,0,0,1,.2,0c.26,7,.24,14.09.15,21.13,1.94-1.54,4-2.91,6-4.41.08-.06.16.07.08.13-2.06,1.57-4,3.3-6.06,4.87,0,.4,0,.79,0,1.19,2.1-1,4.23-1.85,6.35-2.76.17-.07.32.17.15.25-2.16,1-4.32,2.09-6.51,3.07,0,3.49-.11,7-.15,10.47-.08,6.09-.22,12.19-.35,18.28,4-2,8-4,12-5.85a.13.13,0,0,1,.13.23,124.92,124.92,0,0,1-12.13,6.09c-.11,5.07-.21,1.24-.28,6.3a.24.24,0,0,1-.47,0c.07-6.45.08-4,.1-10.48a117.44,117.44,0,0,1-11.87-4.83C408.42,316.82,408.56,316.48,408.77,316.56Z"/></g><g id="Tent"><rect class="cls-3" x="314.6" y="327.04" width="1.48" height="4.17"/><rect class="cls-3" x="242.99" y="327.04" width="1.48" height="4.17"/><polygon class="cls-6" points="242.99 331.2 263.89 300.13 285.34 331.2 242.99 331.2"/><polygon class="cls-7" points="242.99 331.2 263.89 300.13 285.34 331.2 242.99 331.2"/><polygon class="cls-6" points="263.89 300.13 294.53 300.13 315.82 331.2 285.34 331.2 263.89 300.13"/><polygon class="cls-8" points="276.95 305.78 290.95 305.78 295.21 312 281.24 312 276.95 305.78"/><polygon class="cls-9" points="257.02 331.2 270.2 331.2 263.89 300.13 257.02 331.2"/><rect class="cls-3" x="284.59" y="327.04" width="1.48" height="4.17"/><path class="cls-8" d="M263.89,300.12c-5.06,10.1-10.93,21.2-16.41,31.08,5.07-10.1,10.93-21.2,16.41-31.08Z"/><path class="cls-8" d="M263.89,300.12c5.43,9.82,11.22,20.87,16.24,30.91-5.43-9.83-11.23-20.86-16.24-30.91Z"/><path class="cls-6" d="M257,331.2a16.72,16.72,0,0,0-5.5-8.28l12.37-22.8Z"/><path class="cls-6" d="M270.2,331.2l-6.31-31.08,12.88,24A8,8,0,0,0,270.2,331.2Z"/></g></g></svg>