<svg version="1.2" baseProfile="tiny-ps" xmlns="http://www.w3.org/2000/svg" viewBox="0 0 1000 1000" width="45" height="45">
	<path id="Layer" fill="#7366ff" class="s0" d="m850.21 73.16l69.5 69.93c12.5 12.65 12.65 33.15 0.15 45.8c-93.63 95.52-187.99 191.62-282.78 288.16c-12.5 12.65-12.5 33.29 0 45.94c95.52 97.26 189.59 193.08 282.34 287.58c12.36 12.65 12.36 33.29-0.15 45.94c-23.12 23.41-45.94 46.67-69.2 70.22c-12.36 12.65-32.57 12.5-45.07-0.15c-94.5-96.1-188.28-191.48-282.34-287.14c-12.5-12.65-32.57-12.65-45.07 0l-282.34 286.85c-12.36 12.65-32.71 12.65-45.22 0.15l-69.5-69.64c-12.65-12.5-12.65-33-0.29-45.65c93.78-95.37 188.28-191.48 283.07-288.01c12.36-12.79 12.5-33.29 0-45.94c-95.52-97.26-189.73-193.08-281.47-286.41c-12.36-12.65-12.65-33.29-0.29-46.09c23.26-23.99 45.65-47.4 68.48-70.95c12.36-12.65 32.42-12.79 44.92-0.15c94.21 95.67 188.28 191.33 282.78 287.29c12.5 12.79 32.57 12.65 45.07 0c94.94-96.54 188.71-192.06 282.34-287.29c12.5-12.65 32.71-12.79 45.07-0.44z" />
</svg>
