<svg xmlns="http://www.w3.org/2000/svg" viewBox="0 0 194.5 194.5"><defs><style>.cls-1{fill:#cbd5e1;}.cls-1,.cls-10,.cls-11,.cls-2,.cls-3,.cls-4,.cls-5,.cls-6,.cls-7,.cls-8,.cls-9{fill-rule:evenodd;}.cls-2{fill:#f9fcfa;}.cls-3{fill:#a9a8bb;}.cls-4{fill:#51331b;}.cls-5{fill:#684329;}.cls-6{fill:#facda6;}.cls-7{fill:#eea16d;}.cls-8{fill:#df534d;}.cls-9{fill:#9e1d20;}.cls-10{fill:#0b1435;}.cls-11{fill:#f8fcff;}</style></defs><g id="Layer_2" data-name="Layer 2"><g id="Layer_1-2" data-name="Layer 1"><path class="cls-1" d="M97.25,0A97.25,97.25,0,1,1,0,97.25,97.25,97.25,0,0,1,97.25,0Z"/><path class="cls-2" d="M155.08,175.43a97.22,97.22,0,0,1-112.84,2c13.2-5.08,19.63-5.42,19.63-5.42L76.37,153s3.37-5.44,3.78-10.94.59-10.12.59-10.12S69,127.3,64.59,121.62s-5-10.65-5-10.65-17.45-1.71-19.7-15.67,6.74-17.87,6.74-17.87-3.78-16,.24-32.3,9.94-18.57,9.94-18.57-4.5-4.2,3.49-7.93,29.75-.17,37.44.6S108.31,21,108.31,21s-1.78-7.36,2-6.92,5.91,7.42,5.91,7.42,6.28-6.36,8.11-4.58-3.05,8.52-3.05,8.52,14.7,6.8,17.48,20.29-.71,28.39-.71,28.39,11.36.24,13.37,10.65-6.57,19.64-12.89,22.12S128.39,108,128.39,108s-2.25,6.75-5.44,10.77a19.92,19.92,0,0,1-7,5.62s-.47,14.14,1.48,20.76,2.25,7.69,2.25,7.16,6.38,5.21,8.28,7.87a26.28,26.28,0,0,1,2.6,4.32s16.16,7.08,24.5,11Z"/><path class="cls-3" d="M60.44,172.18c1-.14,1.43-.16,1.43-.16L76.37,153a31.4,31.4,0,0,0,3-6.91c11.16-1.39,27.54,2.42,40.23,6.22.06.13.08.12.08,0l.42.13a51.16,51.16,0,0,1,7.87,7.7,26.28,26.28,0,0,1,2.6,4.32l5.43,2.39c-2.44,5.95-7,13.39-14.78,15.89C107.51,187.1,95,173.85,95,173.85s-4.14,6.75-17.51,9.94c-10.16,2.43-15.19-7-17-11.61Z"/><path class="cls-4" d="M41.62,82.34a12,12,0,0,1,5-4.91s-3.78-16,.24-32.3,9.94-18.57,9.94-18.57-4.5-4.2,3.49-7.93,29.75-.17,37.44.6S108.31,21,108.31,21s-1.78-7.36,2-6.92,5.91,7.42,5.91,7.42,6.28-6.36,8.11-4.58-3.05,8.52-3.05,8.52,14.7,6.8,17.48,20.29-.71,28.39-.71,28.39,7.77.16,11.6,6.11c-2,13.55-9.92,11.68-58.27,13.41-28.35,1-42.62-4.87-49.8-11.3Z"/><path class="cls-5" d="M50.24,35c3.31-7.24,6.55-8.47,6.55-8.47s-4.5-4.2,3.49-7.93,29.75-.17,37.44.6S108.31,21,108.31,21s-1.78-7.36,2-6.92,5.91,7.42,5.91,7.42,6.28-6.36,8.11-4.58-3.05,8.52-3.05,8.52a31.6,31.6,0,0,1,3.87,2.23c-5.63,2.48-13,5.38-22.65,8.71C80.44,44,62.22,40.12,50.24,35Z"/><path class="cls-6" d="M73.65,156.54,76.37,153s3.37-5.44,3.78-10.94.59-10.12.59-10.12S69,127.3,64.59,121.62s-5-10.65-5-10.65-17.45-1.71-19.7-15.67,6.74-17.87,6.74-17.87c2.93-.83,6.06,1.07,6.06,1.07l1.07-13.84s4.14-.36,17.15-8.17A49.05,49.05,0,0,0,89.23,36.85S86.87,46.44,91,54.48s27.68-15.26,27.68-15.26,7.93,43.06,11.71,46.61,7.69-11.71,7.69-11.71,11.36.24,13.37,10.65-6.57,19.64-12.89,22.12S128.39,108,128.39,108s-2.25,6.75-5.44,10.77a19.92,19.92,0,0,1-7,5.62s-.47,14.14,1.48,20.76,2.25,7.69,2.25,7.16c0-.32,2.33,1.65,4.6,3.85a75.09,75.09,0,0,1-26.67,6.5c-9.44.43-18-2.83-24-6.07Z"/><path class="cls-7" d="M80.21,141.29c.37-5.17.53-9.38.53-9.38s6.89,2.31,19.85-.29c11-2.22,14.57-6,15.37-7.08,0,.11,0,.25,0,.43-1,3.15-5.4,15.72-15.42,18.71-9.11,2.73-17.32-.81-20.32-2.39Z"/><path class="cls-8" d="M108.06,193.9a99,99,0,0,1-10.81.6q-3.82,0-7.58-.3a38.54,38.54,0,0,1,1.63-5.32c1.36-3.43,2.49-6.1,2.49-6.1s-6.51-7.86-8.46-11.89-2-4.49-2-4.49,11.49-7.53,12.81-7.37,6.35.92,6.35.92l10.47,6.8s-.77,7.52-4.91,11.95-4.26,4.44-4.26,4.44,2.47,5.62,4.22,10.76Z"/><path class="cls-9" d="M92.35,186.26c.85-2.08,1.44-3.48,1.44-3.48A11,11,0,0,0,99.41,184c3.78,0,4.43-.83,4.43-.83s1,2.25,2.16,5.21a8.09,8.09,0,0,1-5.83,2.77,9.18,9.18,0,0,1-7.82-4.86Z"/><path class="cls-10" d="M155.08,175.43a97.19,97.19,0,0,1-13.92,8.6,116.44,116.44,0,0,0-8.35-18.6c4.72,2.07,15.82,7,22.27,10ZM64.54,188.85a96.58,96.58,0,0,1-22.3-11.41c13.2-5.08,19.63-5.42,19.63-5.42L72.7,157.79c8.49,1.18,15.23,2.87,15.23,2.87L75.27,172.73a41.63,41.63,0,0,0-10.73,16.12Z"/><path class="cls-11" d="M61.66,172h.21L76.37,153l.11-.19a27.84,27.84,0,0,0,13.58,6.11c11.38,1.7,28.3-6,29.56-6.59.06.13.08.09.08,0l.51.24a51.28,51.28,0,0,1,7.77,7.63,26.28,26.28,0,0,1,2.6,4.32l.09,0c-.36,5.09-2.25,11.14-9,12.27-12.07,2-24.49-16.92-24.49-16.92s-19.64,20.82-29,19.4c-4-.61-5.82-3.79-6.51-7.2Z"/></g></g></svg>
