<svg xmlns="http://www.w3.org/2000/svg" xmlns:xlink="http://www.w3.org/1999/xlink" viewBox="0 0 74.99 95.98"><defs><style>.cls-1{fill:none;}.cls-2{clip-path:url(#clip-path);}.cls-3{fill:#7366ff;}.cls-4{clip-path:url(#clip-path-2);}.cls-5{fill:#4c5270;}</style><clipPath id="clip-path"><rect class="cls-1" width="74.99" height="75.21"/></clipPath><clipPath id="clip-path-2"><rect class="cls-1" x="28.89" y="69.6" width="43.27" height="26.38"/></clipPath></defs><g id="Layer_2" data-name="Layer 2"><g id="Layer_1-2" data-name="Layer 1"><g class="cls-2"><path class="cls-3" d="M24.7,68.13A31.83,31.83,0,1,1,64.54,19.77H75A40.34,40.34,0,1,0,19.77,75.14l4.93-7"/></g><g class="cls-4"><path class="cls-3" d="M49.74,70.8c-.35.11-.71.22-1.06.31l-19.75,8a40.64,40.64,0,0,0,4.13,1L72.11,96l-18.5-26.3a28.57,28.57,0,0,1-3.87,1.12"/></g><path class="cls-5" d="M43.32,62.17A20.86,20.86,0,1,0,27.45,27.81H20.6A26.43,26.43,0,1,1,48.07,67.34L22.49,77.73,34.74,60.32a20.64,20.64,0,0,0,8.58,1.85"/><path class="cls-3" d="M35.41,40.39A3.43,3.43,0,1,1,32,37a3.43,3.43,0,0,1,3.43,3.43"/><path class="cls-3" d="M45.71,40.39A3.42,3.42,0,1,1,42.29,37a3.42,3.42,0,0,1,3.42,3.43"/><path class="cls-3" d="M56,40.39A3.42,3.42,0,1,1,52.6,37,3.42,3.42,0,0,1,56,40.39"/></g></g></svg>