<svg xmlns="http://www.w3.org/2000/svg" viewBox="0 0 2385.97 1469.79"><defs><style>.cls-1{fill:#f1f2f5;}.cls-2{fill:#f0c36a;}.cls-3{fill:#1d2238;}.cls-4{fill:#fff;}.cls-5{fill:#d2d6e1;}</style></defs><g id="Layer_2" data-name="Layer 2"><g id="Layer_1-2" data-name="Layer 1"><path class="cls-1" d="M2173.1,546.49c-139.9-144.2-331.9-236.7-531.9-256.4s-406.3,33.6-571.6,147.7c-3.9,2.7-7.8,5.4-11.7,8.2,69.9-194.4-12.1-393.8-254.4-436.8-114.9-20.4-246-7.1-352.1,42.7-135.9,63.7-249.8,193.2-298.4,335-46,134.3-34.5,321.5,97.9,401.9,28.9,17.6,60.6,29.8,93.5,38.1-51.7,23.9-98.9,54.3-137.9,97.3-63.4,70-94.2,164.5-103.3,258.4s7.5,190.8,47.9,287h2224C2398.7,1159.59,2404,784.39,2173.1,546.49Z"/><path class="cls-2" d="M0,1422.29c23.3-2.5,47.9-6.1,71.3-5.7a381.26,381.26,0,0,1-6.5-109.2c39.6-4.9,80.1,6.4,111.8,30.5.9-44.2,11.7-90.8,33.3-129.4,43.2,26.1,74.5,68.8,94.5,115.1s31.9,96.2,38.9,146.2H28.5C12.1,1459.39,2.8,1441.49,0,1422.29Z"/><path class="cls-3" d="M176.7,1337.89a155.2,155.2,0,0,0,3,15.4c1.2,5.1,2.7,10.1,4.3,15.1a197,197,0,0,0,12.1,28.8c2.4,4.6,5.1,9.1,7.8,13.5s5.9,8.6,9,12.8a185.77,185.77,0,0,0,21.5,22.9,134.88,134.88,0,0,1-23.2-21.5l-2.5-3.1a38.12,38.12,0,0,1-2.4-3.2c-1.6-2.1-3.1-4.3-4.6-6.5-2.9-4.4-5.6-9-8.1-13.7s-4.6-9.5-6.6-14.4a132.41,132.41,0,0,1-5.1-15,137.46,137.46,0,0,1-3.6-15.4A117.63,117.63,0,0,1,176.7,1337.89Z"/><path class="cls-3" d="M71.3,1416.59c2.2,4.7,4.6,9.2,7.2,13.6a96.2,96.2,0,0,0,8.8,12.4,67.68,67.68,0,0,0,10.8,10.6,63.88,63.88,0,0,0,13.1,7.8,40.48,40.48,0,0,1-14.4-6,52.81,52.81,0,0,1-11.6-10.5,73.63,73.63,0,0,1-4.7-6.3c-1.4-2.2-2.7-4.5-3.9-6.8A71,71,0,0,1,71.3,1416.59Z"/><path class="cls-2" d="M1260.2,1469.59c-9.9-72.2,19.9-145.8,66.6-201.8s108.9-96.8,172.3-132.8c16.1,67.1,8.1,140.9-23.2,202.3,9.9-20.3,29.8-34.4,51.1-42.2s44.1-10,66.6-12.2c14.8,42,7.7,91.8-22.2,124.8,38.6-11.3,81.8-13.5,121.2-5.2,3.6,22.1,3,44.9-2.9,66.5Z"/><path class="cls-3" d="M1475.9,1337.39a172.82,172.82,0,0,1-7.9,20.7,217.08,217.08,0,0,1-10.3,19.7c-3.7,6.4-7.8,12.6-12.1,18.6s-9,11.8-13.8,17.4-10.1,10.8-15.5,15.9c-2.8,2.4-5.5,5-8.4,7.3-1.4,1.2-2.8,2.4-4.3,3.5l-4.4,3.4c-1.5,1.1-3,2.2-4.5,3.2s-3,2.2-4.6,3.1c-3.1,2-6.2,4-9.5,5.8a191.55,191.55,0,0,1-19.8,9.8A282.4,282.4,0,0,0,1397,1441c5.6-4.6,11.1-9.5,16.3-14.5s10.3-10.3,15.1-15.8,9.4-11.1,13.8-16.9,8.6-11.8,12.6-17.9,7.8-12.4,11.3-18.8S1472.9,1344.09,1475.9,1337.39Z"/><path class="cls-3" d="M1571.4,1407.89a108.08,108.08,0,0,1-14.2,16.7,150.9,150.9,0,0,1-16.7,14.2l-2.2,1.6-2.3,1.6c-1.5,1-3,2.1-4.6,3-3.1,1.9-6.2,3.9-9.5,5.5a120.23,120.23,0,0,1-20.2,8.6c6.2-4,12.4-7.6,18.3-11.6,3-1.9,6-4,8.9-6,1.5-1,2.9-2.1,4.4-3.1l2.2-1.5,2.2-1.6c5.8-4.2,11.5-8.7,17.1-13.2C1560.4,1417.29,1565.9,1412.69,1571.4,1407.89Z"/><rect class="cls-3" x="302.1" y="785.39" width="1019.2" height="304.3"/><rect class="cls-4" x="362" y="227.19" width="901.1" height="901.1"/><path id="SVGID" class="cls-5" d="M1264.1,1129.39H361V226.19h903.1Zm-901.1-2h899.1V228.19H363Z"/><path class="cls-5" d="M1360.8,1445.29a39.08,39.08,0,0,0,3.1-15.3V825.29c0-31.6-35.1-50.6-61.5-33.4l-379.7,247.2L812.6,937l-110.1,102.1L322.8,791.89c-26.5-17.2-61.5,1.8-61.5,33.4V1430a39.08,39.08,0,0,0,3.1,15.3l1.3,2.8a39.76,39.76,0,0,0,35.4,21.7H1324.2a39.65,39.65,0,0,0,35.4-21.7Z"/><path class="cls-3" d="M261.2,1435.29c45.3-42.3,90.8-84.2,136.4-126.2l68.4-62.8,68.5-62.7q68.55-62.7,137.3-125.1l137.7-124.8,3-2.7,3,2.7,137.7,124.8,68.7,62.5,68.6,62.6,68.5,62.7,68.4,62.8q68.25,63,136.4,126.2-69.9-61.2-139.3-123l-69.4-61.7-69.3-61.9-69.2-62-69.1-62.1-138-124.4h6l-138,124.4c-46.1,41.3-92.1,82.8-138.3,124l-69.3,62-69.4,61.7Q330.9,1374.09,261.2,1435.29Z"/><path class="cls-5" d="M449.2,523.69c60.8-1.9,121.6-2.9,182.4-3.6l22.8-.3,22.8-.2,45.6-.3L814,519l91.2.2,45.6.3,22.8.2,22.8.3c60.8.7,121.6,1.7,182.4,3.6-60.8,1.9-121.6,2.9-182.4,3.6l-22.8.3-22.8.2-45.6.3-91.2.2-91.2-.3-45.6-.3-22.8-.2-22.8-.3C570.7,526.59,510,525.59,449.2,523.69Z"/><path class="cls-5" d="M449.2,600.69c60.8-1.9,121.6-2.9,182.4-3.6l22.8-.3,22.8-.2,45.6-.3L814,596l91.2.2,45.6.3,22.8.2,22.8.3c60.8.7,121.6,1.7,182.4,3.6-60.8,1.9-121.6,2.9-182.4,3.6l-22.8.3-22.8.2-45.6.3-91.2.2-91.2-.3-45.6-.3-22.8-.2-22.8-.3C570.7,603.69,510,602.69,449.2,600.69Z"/><path class="cls-5" d="M449.2,677.79c60.8-1.9,121.6-2.9,182.4-3.6l22.8-.3,22.8-.2,45.6-.3,91.2-.3,91.2.2,45.6.3,22.8.2,22.8.3c60.8.7,121.6,1.7,182.4,3.6-60.8,1.9-121.6,2.9-182.4,3.6l-22.8.3-22.8.2-45.6.3-91.2.2-91.2-.3-45.6-.3-22.8-.2-22.8-.3C570.7,680.69,510,679.69,449.2,677.79Z"/><path class="cls-5" d="M449.2,754.89c60.8-1.9,121.6-2.9,182.4-3.6l22.8-.3,22.8-.2,45.6-.3,91.2-.3,91.2.2,45.6.3,22.8.2,22.8.3c60.8.7,121.6,1.7,182.4,3.6-60.8,1.9-121.6,2.9-182.4,3.6l-22.8.3-22.8.2-45.6.3-91.2.2-91.2-.3-45.6-.3-22.8-.2-22.8-.3C570.7,757.79,510,756.79,449.2,754.89Z"/><path class="cls-5" d="M449.2,831.89c60.8-1.9,121.6-2.9,182.4-3.6l22.8-.3,22.8-.2,45.6-.3,91.2-.3,91.2.2,45.6.3,22.8.2,22.8.3c60.8.7,121.6,1.7,182.4,3.6-60.8,1.9-121.6,2.9-182.4,3.6l-22.8.3-22.8.2-45.6.3-91.2.2-91.2-.3-45.6-.3-22.8-.2-22.8-.3C570.7,834.89,510,833.89,449.2,831.89Z"/><path class="cls-3" d="M323,791.49l46.2,29,46.2,29,92.2,58.4,23.1,14.5,23.1,14.5c15.4,9.7,30.7,19.6,45.7,29.7l22.6,15.3c7.5,5.2,15,10.3,22.4,15.6,14.9,10.5,29.7,21.1,44.2,32.1l-.5.8c-16-8.8-31.7-18-47.3-27.4-7.8-4.6-15.5-9.5-23.3-14.2l-23.2-14.4q-23.1-14.55-45.7-29.8l-22.6-15.3-22.6-15.2-90.7-60.7-45.2-30.5-45.2-30.6Z"/><path class="cls-3" d="M957.7,1016.29c27.7-20.3,55.8-39.9,84.2-59.1s56.9-38.2,85.6-57,57.6-37.2,86.7-55.2,58.4-36,88.1-53c-27.7,20.3-55.8,39.9-84.2,59.1s-56.9,38.2-85.6,56.9-57.6,37.1-86.7,55.2S987.5,999.19,957.7,1016.29Z"/><path class="cls-3" d="M507.3,437.39a18.5,18.5,0,0,1-17.1,9.5c-5.7,0-10.1-1.6-13.1-4.9s-4.5-8-4.5-14.1c0-8.8,2.6-16.2,7.8-22.3s11.5-9.2,18.8-9.2a16.33,16.33,0,0,1,8.4,1.9,14.52,14.52,0,0,1,5.6,6.1l3.1-6H525l-8.4,33.1c0,.2-.1.4-.1.7a16.21,16.21,0,0,0-.3,2.1,4.19,4.19,0,0,0,1.5,3.4,5.58,5.58,0,0,0,3.9,1.3,13.77,13.77,0,0,0,6.1-1.7,21.85,21.85,0,0,0,6-4.8,29.52,29.52,0,0,0,6.2-10,35.15,35.15,0,0,0,2.1-12.2c0-9.5-3.5-17.3-10.6-23.2s-16.3-8.9-27.6-8.9a55.92,55.92,0,0,0-14.5,1.8,41.22,41.22,0,0,0-12.1,5.3A44.07,44.07,0,0,0,455.9,424c0,11.8,3.9,21.2,11.8,28.2s18.4,10.6,31.6,10.6A61.72,61.72,0,0,0,534.1,452l3.8,5.6a60.28,60.28,0,0,1-18,9.6,64.09,64.09,0,0,1-20.1,3.2,68.69,68.69,0,0,1-19.8-2.7,49.55,49.55,0,0,1-15.9-8,43.15,43.15,0,0,1-13.1-15.6,45.4,45.4,0,0,1-4.3-20.2,54.74,54.74,0,0,1,2.9-17.7,52,52,0,0,1,8.6-15.4,54.66,54.66,0,0,1,20-15.4,62.6,62.6,0,0,1,26-5.3,60.8,60.8,0,0,1,17.8,2.6,44.22,44.22,0,0,1,14.4,7.2,38,38,0,0,1,11.2,13.3,37.58,37.58,0,0,1,3.7,17,39.54,39.54,0,0,1-3.7,17.1,36,36,0,0,1-10.5,13.4,28.36,28.36,0,0,1-8.5,4.7,27.88,27.88,0,0,1-9.5,1.6c-4,0-7-.8-8.9-2.3s-2.9-3.9-2.9-7.1Zm3.3-24a12.28,12.28,0,0,0-3.5-7.3,9.68,9.68,0,0,0-6.9-2.6c-4.8,0-8.9,2.4-12.3,7.3s-5.1,10.7-5.1,17.5c0,3.7.9,6.5,2.6,8.5s4.1,3,7.3,3a13.29,13.29,0,0,0,9.2-3.8,18.93,18.93,0,0,0,5.6-9.7Z"/><path class="cls-1" d="M1131.6,465.59H631.7a45.32,45.32,0,0,1-45.3-45.3h0A45.32,45.32,0,0,1,631.7,375h499.8a45.32,45.32,0,0,1,45.3,45.3h0A45.17,45.17,0,0,1,1131.6,465.59Z"/><rect class="cls-3" x="363" y="226.19" width="899.1" height="85.9"/><circle class="cls-2" cx="424.2" cy="269.45" r="12.3"/><circle class="cls-5" cx="473.01" cy="269.19" r="12.3"/><circle class="cls-5" cx="520.29" cy="268.99" r="12.3"/></g></g></svg>